<svg width="80" height="80" viewBox="0 0 80 80" fill="none" xmlns="http://www.w3.org/2000/svg">
<path d="M13.2213 13.2214H73.6356V73.6357H13.2213V13.2214Z" fill="#EDEDED" stroke="#3C3C3C" stroke-width="1.3" stroke-miterlimit="1.5" stroke-linecap="square"/>
<path d="M6.36387 13.2214H67.921V67.9214H6.36387V13.2214Z" fill="white" stroke="#3C3C3C" stroke-width="1.3" stroke-miterlimit="1.5" stroke-linecap="square"/>
<path d="M36.5706 56.4928C27.4599 56.4928 20.0777 49.1106 20.0777 39.9999C20.0777 30.8892 27.4599 23.5071 36.5706 23.5071C45.6813 23.5071 53.0634 30.8892 53.0634 39.9999V56.4928H36.5706Z" fill="#76B82A" stroke="#3C3C3C" stroke-width="1.3" stroke-miterlimit="1.5" stroke-linecap="square"/>
<path d="M40.2515 38.1931L40.4651 38.7961L41.0714 38.5921C41.422 38.4742 41.7961 38.4097 42.1887 38.4162L42.1887 38.4163H42.1994C44.1136 38.4163 45.635 39.9149 45.635 41.7364C45.635 43.5594 44.112 45.0642 42.1994 45.0642H30.0066H30.0065H30.0064H30.0063H30.0062H30.0061H30.006H30.0059H30.0058H30.0058H30.0057H30.0056H30.0055H30.0054H30.0053H30.0052H30.0051H30.005H30.0049H30.0048H30.0048H30.0047H30.0046H30.0045H30.0044H30.0043H30.0042H30.0041H30.004H30.004H30.0039H30.0038H30.0037H30.0036H30.0035H30.0034H30.0033H30.0032H30.0032H30.0031H30.003H30.0029H30.0028H30.0027H30.0026H30.0026H30.0025H30.0024H30.0023H30.0022H30.0021H30.002H30.002H30.0019H30.0018H30.0017H30.0016H30.0015H30.0015H30.0014H30.0013H30.0012H30.0011H30.001H30.001H30.0009H30.0008H30.0007H30.0006H30.0005H30.0005H30.0004H30.0003H30.0002H30.0001H30.0001H30H29.9999H29.9998H29.9997H29.9997H29.9996H29.9995H29.9994H29.9993H29.9993H29.9992H29.9991H29.999H29.9989H29.9989H29.9988H29.9987H29.9986H29.9985H29.9985H29.9984H29.9983H29.9982H29.9982H29.9981H29.998H29.9979H29.9978H29.9978H29.9977H29.9976H29.9975H29.9975H29.9974H29.9973H29.9972H29.9972H29.9971H29.997H29.9969H29.9969H29.9968H29.9967H29.9966H29.9966H29.9965H29.9964H29.9963H29.9963H29.9962H29.9961H29.996H29.996H29.9959H29.9958H29.9958H29.9957H29.9956H29.9955H29.9955H29.9954H29.9953H29.9952H29.9952H29.9951H29.995H29.995H29.9949H29.9948H29.9947H29.9947H29.9946H29.9945H29.9945H29.9944H29.9943H29.9943H29.9942H29.9941H29.994H29.994H29.9939H29.9938H29.9938H29.9937H29.9936H29.9936H29.9935H29.9934H29.9934H29.9933H29.9932H29.9932H29.9931H29.993H29.9929H29.9929H29.9928H29.9927H29.9927H29.9926H29.9925H29.9925H29.9924H29.9923H29.9923H29.9922H29.9921H29.9921H29.992H29.9919H29.9919H29.9918H29.9917H29.9917H29.9916H29.9916H29.9915H29.9914H29.9914H29.9913H29.9912H29.9912H29.9911H29.991H29.991H29.9909H29.9908H29.9908H29.9907H29.9907H29.9906H29.9905H29.9905H29.9904H29.9903H29.9903H29.9902H29.9901H29.9901H29.99H29.99H29.9899H29.9898H29.9898H29.9897H29.9896H29.9896H29.9895H29.9895H29.9894H29.9893H29.9893H29.9892H29.9892H29.9891H29.989H29.989H29.9889H29.9889H29.9888H29.9887H29.9887H29.9886H29.9886H29.9885H29.9884H29.9884H29.9883H29.9883H29.9882H29.9881H29.9881H29.988H29.988H29.9879H29.9878H29.9878H29.9877H29.9877H29.9876H29.9875H29.9875H29.9874H29.9874H29.9873H29.9873H29.9872H29.9871H29.9871H29.987H29.987H29.9869H29.9868H29.9868H29.9867H29.9867H29.9866H29.9866H29.9865H29.9864H29.9864H29.9863H29.9863H29.9862H29.9862H29.9861H29.9861H29.986H29.9859H29.9859H29.9858H29.9858H29.9857H29.9857H29.9856H29.9855H29.9855H29.9854H29.9854H29.9853H29.9853H29.9852H29.9852H29.9851H29.9851H29.985H29.9849H29.9849H29.9848H29.9848H29.9847H29.9847H29.9846H29.9846H29.9845H29.9845H29.9844H29.9843H29.9843H29.9842H29.9842H29.9841H29.9841H29.984H29.984H29.9839H29.9839H29.9838H29.9838H29.9837H29.9837H29.9836H29.9835H29.9835H29.9834H29.9834H29.9833H29.9833H29.9832H29.9832H29.9831H29.9831H29.983H29.983H29.9829H29.9829H29.9828H29.9828H29.9827H29.9827H29.9826H29.9826H29.9825H29.9824H29.9824H29.9823H29.9823H29.9822H29.9822H29.9821H29.9821H29.982H29.982H29.9819H29.9819H29.9818H29.9818H29.9817H29.9817H29.9816H29.9816H29.9815H29.9815H29.9814H29.9814H29.9813H29.9813H29.9812H29.9812H29.9811H29.9811H29.981H29.981H29.9809H29.9809H29.9808H29.9808H29.9807H29.9807H29.9806H29.9806H29.9805H29.9805H29.9804H29.9804H29.9803H29.9803H29.9802H29.9802H29.9801H29.9801H29.98H29.98H29.9799H29.9799H29.9798H29.9798H29.9797H29.9797H29.9796H29.9796H29.9795H29.9795H29.9794H29.9794H29.9794H29.9793H29.9793H29.9792H29.9792H29.9791H29.9791H29.979H29.979H29.9789H29.9789H29.9788H29.9788H29.9787H29.9787H29.9786H29.9786H29.9785H29.9785H29.9784H29.9784H29.9783H29.9783H29.9782H29.9782H29.9781H29.9781H29.978H29.978H29.978H29.9779H29.9779H29.9778H29.9778H29.9777H29.9777H29.9776H29.9776H29.9775H29.9775H29.9774H29.9774H29.9773H29.9773H29.9772H29.9772H29.9771H29.9771H29.9771H29.977H29.977H29.9769H29.9769H29.9768H29.9768H29.9767H29.9767H29.9766H29.9766H29.9765H29.9765H29.9764H29.9764H29.9763H29.9763H29.9762H29.9762H29.9762H29.9761H29.9761H29.976H29.976H29.9759H29.9759H29.9758H29.9758H29.9757H29.9757H29.9756H29.9756H29.9755H29.9755H29.9754H29.9754H29.9754H29.9753H29.9753H29.9752H29.9752H29.9751H29.9751H29.975H29.975H29.9749H29.9749H29.9748H29.9748H29.9747H29.9747H29.9747H29.9746H29.9745H29.9744H29.9743H29.9742H29.9741H29.974H29.9739H29.9739H29.9738H29.9737H29.9736H29.9735H29.9734H29.9733H29.9732H29.9731H29.973H29.9729H29.9728H29.9727H29.9726H29.9725H29.9725H29.9724H29.9723H29.9722H29.9721H29.972H29.9719H29.9718H29.9717H29.9716H29.9715H29.9714H29.9713H29.9712H29.9711H29.971H29.971H29.9709H29.9708H29.9707H29.9706H29.9705H29.9704H29.9703H29.9702H29.9701H29.97H29.9699H29.9698H29.9697H29.9696H29.9695H29.9695H29.9694H29.9693H29.9692H29.9691H29.969H29.9689H29.9688H29.9687H29.9686H29.9685H29.9684H29.9683H29.9682H29.9681H29.968H29.968H29.9679H29.9678H29.9677H29.9676H29.9675H29.9674H29.9673H29.9672H29.9671H29.967H29.9669H29.9668H29.9667H29.9666H29.9665H29.9665H29.9664H29.9663H29.9662H29.9661H29.966H29.9659H29.9658H29.9657H29.9656H29.9655H29.9654H29.9653H29.9652H29.9651H29.965H29.965H29.9649H29.9648H29.9647H29.9646H29.9645H29.9644H29.9643H29.9642H29.9641H29.964H29.9639H29.9638H29.9637H29.9636H29.9635H29.9635H29.9634H29.9633H29.9632H29.9631H29.963H29.9629H29.9628H29.9627H29.9626H29.9625H29.9624H29.9623H29.9622H29.9621H29.9621H29.962H29.9619H29.9618H29.9617H29.9616H29.9615H29.9614H29.9613H29.9612H29.9611H29.961H29.9609H29.9608H29.9607H29.9606H29.9606H29.9605H29.9604H29.9603H29.9602H29.9601H29.96H29.9599H29.9598H29.9597H29.9596H29.9595H29.9594H29.9593H29.9592H29.9591H29.9591H29.959H29.9589H29.9588H29.9587H29.9586H29.9585H29.9584H29.9583H29.9582H29.9581H29.958H29.9579H29.9578H29.9577H29.9576H29.9576H29.9575H29.9574H29.9573H29.9572H29.9571H29.957H29.9569H29.9568H29.9567H29.9566H29.9565H29.9564H29.9563H29.9562H29.9561H29.9561H29.956H29.9559H29.9558H29.9557H29.9556H29.9555H29.9554H29.9553H29.9552H29.9551H29.955H29.9549H29.9548H29.9547H29.9546H29.9546H29.9545H29.9544H29.9543H29.9542H29.9541H29.954H29.9539H29.9538H29.9537H29.9536H29.9535H29.9534H29.9533H29.9532H29.9532H29.9531H29.953H29.9529H29.9528H29.9527H29.9526H29.9525H29.9524H29.9523H29.9522H29.9521H29.952H29.9519H29.9518H29.9517H29.9517H29.9516H29.9515H29.9514H29.9513H29.9512H29.9511H29.951H29.9509H29.9508H29.9507H29.9506H29.9505H29.9504H29.9503H29.9502H29.9502H29.9501H29.95H29.9499H29.9498H29.9497H29.9496H29.9495H29.9494H29.9493H29.9492H29.9491H29.949H29.9489H29.9488H29.9487H29.9487H29.9486H29.9485H29.9484H29.9483H29.9482H29.9481H29.948H29.9479H29.9478H29.9477H29.9476H29.9475H29.9474H29.9473H29.9472H29.9472H29.9471H29.947H29.9469H29.9468H29.9467H29.9466H29.9465H29.9464H29.9463H29.9462H29.9461H29.946H29.9459H29.9458H29.9457H29.9457H29.9456H29.9455H29.9454H29.9453H29.9452H29.9451H29.945H29.9449H29.9448H29.9447H29.9446H29.9445H29.9444H29.9443H29.9442H29.9442H29.9441H29.944H29.9439H29.9438H29.9437H29.9436H29.9435H29.9434H29.9433H29.9432H29.9431H29.943H29.9429H29.9428H29.9428H29.9427H29.9426H29.9425H29.9424H29.9423H29.9422H29.9421H29.942H29.9419H29.9418H29.9417H29.9416H29.9415H29.9414H29.9413H29.9413H29.9412H29.9411H29.941H29.9409H29.9408H29.9407H29.9406H29.9405H29.9404H29.9403H29.9402H29.9401H29.94H29.9399H29.9398H29.9398H29.9397H29.9396H29.9395H29.9394H29.9393H29.9392H29.9391H29.939H29.9389H29.9388H29.9387H29.9386H29.9385H29.9384H29.9383H29.9383H29.9382H29.9381H29.938H29.9379H29.9378H29.9377H29.9376H29.9375H29.9374H29.9373H29.9372H29.9371H29.937H29.9369H29.9368H29.9368H29.9367H29.9366H29.9365H29.9364H29.9363H29.9362H29.9361H29.936H29.9359H29.9358H29.9357H29.9356H29.9355H29.9354H29.9353H29.9353H29.9352H29.9351H29.935H29.9349H29.9348H29.9347H29.9346H29.9345H29.9344H29.9343H29.9342H29.9341H29.934H29.9339H29.9339H29.9338H29.9337H29.9336H29.9335H29.9334H29.9333H29.9332H29.9331H29.933H29.9329H29.9328H29.9327H29.9326H29.9325H29.9324H29.9324H29.9323H29.9322H29.9321H29.932H29.9319H29.9318H29.9317H29.9316H29.9315H29.9314H29.9313H29.9312H29.9311H29.931H29.9309H29.9309H29.9308H29.9307H29.9306H29.9305H29.9304H29.9303H29.9302H29.9301H29.93H29.9299H29.9298H29.9297H29.9296H29.9295H29.9294H29.9294H29.9293H29.9292H29.9291H29.929H29.9289H29.9288H29.9287H29.9286H29.9285H29.9284H29.9283H29.9282H29.9281H29.928H29.9279H29.9279H29.9278H29.9277H29.9276H29.9275H29.9274H29.9273H29.9272H29.9271H29.927H29.9269H29.9268H29.9267H29.9266C28.5729 45.0642 27.5064 44.0015 27.5064 42.7308C27.5064 41.4602 28.5729 40.3974 29.9266 40.3974H30.5766V39.7474C30.5766 37.1094 32.7864 34.9356 35.5473 34.9356C37.7347 34.9356 39.5839 36.3084 40.2515 38.1931Z" fill="white" stroke="#3C3C3C" stroke-width="1.3" stroke-miterlimit="1.5" stroke-linecap="square"/>
<path d="M6.36387 6.36423H67.921V11.9214H6.36387V6.36423Z" fill="#3C3C3C" stroke="#3C3C3C" stroke-width="1.3" stroke-miterlimit="1.5" stroke-linecap="square" stroke-linejoin="round"/>
<path d="M14.6638 9.71429C14.6638 10.8701 13.7268 11.8071 12.571 11.8071C11.4151 11.8071 10.4781 10.8701 10.4781 9.71429C10.4781 8.55844 11.4151 7.62144 12.571 7.62144C13.7268 7.62144 14.6638 8.55844 14.6638 9.71429Z" fill="white" stroke="#3C3C3C" stroke-width="1.3" stroke-miterlimit="1.5" stroke-linecap="square"/>
<path d="M21.5213 9.71429C21.5213 10.8701 20.5843 11.8071 19.4284 11.8071C18.2726 11.8071 17.3355 10.8701 17.3355 9.71429C17.3355 8.55844 18.2726 7.62144 19.4284 7.62144C20.5843 7.62144 21.5213 8.55844 21.5213 9.71429Z" fill="white" stroke="#3C3C3C" stroke-width="1.3" stroke-miterlimit="1.5" stroke-linecap="square"/>
</svg>
