<svg width="145" height="144" viewBox="0 0 145 144" fill="none" xmlns="http://www.w3.org/2000/svg">
<path d="M89.8399 135.35H89.85V135.341V135.317V135.293V135.268V135.243V135.218V135.192V135.166V135.14V135.113V135.085V135.058V135.03V135.001V134.972V134.943V134.913V134.883V134.853V134.822V134.791V134.759V134.727V134.695V134.662V134.629V134.595V134.561V134.527V134.492V134.457V134.422V134.386V134.35V134.313V134.277V134.239V134.202V134.164V134.125V134.086V134.047V134.008V133.968V133.928V133.887V133.846V133.805V133.763V133.721V133.678V133.636V133.593V133.549V133.505V133.461V133.416V133.372V133.326V133.281V133.235V133.188V133.142V133.095V133.047V133V132.952V132.903V132.854V132.805V132.756V132.706V132.656V132.605V132.555V132.504V132.452V132.4V132.348V132.296V132.243V132.19V132.136V132.082V132.028V131.974V131.919V131.864V131.808V131.753V131.697V131.64V131.583V131.526V131.469V131.411V131.353V131.295V131.236V131.177V131.118V131.058V130.998V130.938V130.877V130.817V130.755V130.694V130.632V130.57V130.508V130.445V130.382V130.319V130.255V130.191V130.127V130.062V129.997V129.932V129.867V129.801V129.735V129.669V129.602V129.535V129.468V129.4V129.333V129.265V129.196V129.127V129.059V128.989V128.92V128.85V128.78V128.709V128.639V128.568V128.497V128.425V128.353V128.281V128.209V128.136V128.063V127.99V127.917V127.843V127.769V127.695V127.62V127.546V127.471V127.395V127.32V127.244V127.168V127.091V127.015V126.938V126.861V126.783V126.705V126.627V126.549V126.471V126.392V126.313V126.234V126.154V126.075V125.995V125.914V125.834V125.753V125.672V125.591V125.509V125.428V125.346V125.263V125.181V125.098V125.015V124.932V124.849V124.765V124.681V124.597V124.513V124.428V124.343V124.258V124.173V124.087V124.002V123.916V123.829V123.743V123.656V123.569V123.482V123.395V123.307V123.219V123.131V123.043V122.955V122.866V122.777V122.688V122.599V122.509V122.419V122.329V122.239V122.149V122.058V121.967V121.876V121.785V121.694V121.602V121.51V121.418V121.326V121.233V121.141V121.048V120.955V120.861V120.768V120.674V120.58V120.486V120.392V120.298V120.203V120.108V120.013V119.918V119.823V119.727V119.631V119.535V119.439V119.343V119.246V119.149V119.053V118.955V118.858V118.761V118.663V118.565V118.467V118.369V118.271V118.172V118.074V117.975V117.876V117.777V117.677V117.578V117.478V117.378V117.278V117.178V117.078V116.977V116.876V116.775V116.674V116.573V116.472V116.37V116.269V116.167V116.065V115.963V115.861V115.758V115.656V115.553V115.45V115.347V115.244V115.14V115.037V114.933V114.829V114.726V114.621V114.517V114.413V114.308V114.204V114.099V113.994V113.889V113.784V113.679V113.573V113.467V113.362V113.256V113.15V113.044V112.938V112.831V112.725V112.618V112.511V112.404V112.297V112.19V112.083V111.976V111.868V111.761V111.653V111.545V111.437V111.329V111.221V111.112V111.004V110.895V110.787V110.678V110.569V110.46V110.351V110.242V110.132V110.023V109.914V109.804V109.694V109.584V109.474V109.364V109.254V109.144V109.034V108.923V108.813V108.702V108.591V108.481V108.37V108.259V108.148V108.036V107.925V107.814V107.702V107.591V107.479V107.367V107.256V107.144V107.032V106.92V106.808V106.696V106.583V106.471V106.359V106.246V106.133V106.021V105.908V105.795V105.682V105.57V105.457V105.343V105.23V105.117V105.004V104.891V104.777V104.664V104.55V104.437V104.323V104.209V104.095V103.982V103.868V103.754V103.64V103.526V103.412V103.297V103.183V103.069V102.955V102.84V102.726V102.611V102.497V102.382V102.268V102.153V102.038V101.924V101.809V101.694V101.579V101.464V101.349V101.234V101.119V101.004V100.889V100.774V100.659V100.544V100.429V100.314V100.198V100.083V99.9677V99.8524V99.737V99.6216V99.5062V99.3908V99.2753V99.1598V99.0443V98.9288V98.8133V98.6977V98.5821V98.4666V98.351V98.2353V98.1197V98.0041V97.8884V97.7728V97.6571V97.5414V97.4257V97.31V97.1943V97.0786V96.9629V96.8472V96.7314V96.6157V96.5C89.85 75.0776 71.7961 57.65 49.5 57.65C38.7865 57.65 28.5347 61.7476 20.9498 69.0289C13.3942 76.3084 9.15 86.1995 9.15 96.5C9.15 106.8 13.3939 116.666 20.9511 123.972C28.5079 131.252 38.7861 135.35 49.5 135.35H49.6201H49.7402H49.8603H49.9805H50.1006H50.2207H50.3408H50.4609H50.5809H50.701H50.8211H50.9411H51.0612H51.1812H51.3012H51.4212H51.5412H51.6612H51.7812H51.9011H52.021H52.141H52.2608H52.3807H52.5005H52.6204H52.7402H52.8599H52.9797H53.0994H53.2191H53.3387H53.4584H53.578H53.6976H53.8171H53.9366H54.0561H54.1755H54.2949H54.4143H54.5336H54.6529H54.7721H54.8914H55.0105H55.1297H55.2487H55.3678H55.4868H55.6057H55.7246H55.8435H55.9623H56.081H56.1997H56.3184H56.437H56.5555H56.674H56.7925H56.9109H57.0292H57.1475H57.2657H57.3838H57.5019H57.6199H57.7379H57.8558H57.9737H58.0914H58.2091H58.3268H58.4444H58.5619H58.6793H58.7967H58.914H59.0312H59.1483H59.2654H59.3824H59.4993H59.6162H59.7329H59.8496H59.9662H60.0828H60.1992H60.3156H60.4318H60.548H60.6642H60.7802H60.8961H61.012H61.1277H61.2434H61.359H61.4745H61.5899H61.7052H61.8204H61.9355H62.0505H62.1654H62.2803H62.395H62.5096H62.6241H62.7385H62.8529H62.9671H63.0812H63.1952H63.3091H63.4229H63.5366H63.6501H63.7636H63.8769H63.9902H64.1033H64.2163H64.3292H64.442H64.5547H64.6672H64.7797H64.892H65.0042H65.1163H65.2282H65.34H65.4517H65.5633H65.6748H65.7861H65.8973H66.0084H66.1193H66.2301H66.3408H66.4514H66.5618H66.6721H66.7822H66.8922H67.0021H67.1118H67.2214H67.3309H67.4402H67.5494H67.6584H67.7673H67.8761H67.9847H68.0931H68.2015H68.3096H68.4176H68.5255H68.6332H68.7408H68.8482H68.9555H69.0626H69.1695H69.2763H69.383H69.4894H69.5958H69.7019H69.8079H69.9138H70.0195H70.125H70.2303H70.3355H70.4405H70.5454H70.6501H70.7546H70.859H70.9631H71.0671H71.171H71.2746H71.3781H71.4814H71.5846H71.6875H71.7903H71.8929H71.9954H72.0976H72.1997H72.3015H72.4032H72.5048H72.6061H72.7072H72.8082H72.9089H73.0095H73.1099H73.2101H73.3101H73.4099H73.5095H73.609H73.7082H73.8072H73.9061H74.0047H74.1032H74.2014H74.2994H74.3973H74.4949H74.5923H74.6896H74.7866H74.8834H74.98H75.0764H75.1726H75.2686H75.3644H75.4599H75.5553H75.6504H75.7453H75.84H75.9345H76.0288H76.1229H76.2167H76.3103H76.4037H76.4969H76.5898H76.6825H76.775H76.8673H76.9594H77.0512H77.1428H77.2341H77.3253H77.4162H77.5069H77.5973H77.6875H77.7775H77.8672H77.9567H78.046H78.135H78.2238H78.3123H78.4006H78.4887H78.5765H78.6641H78.7514H78.8385H78.9253H79.0119H79.0983H79.1843H79.2702H79.3558H79.4411H79.5262H79.611H79.6956H79.7799H79.864H79.9478H80.0314H80.1146H80.1977H80.2804H80.3629H80.4452H80.5272H80.6089H80.6903H80.7715H80.8524H80.9331H81.0135H81.0936H81.1734H81.253H81.3322H81.4113H81.49H81.5685H81.6467H81.7246H81.8022H81.8795H81.9566H82.0334H82.1099H82.1861H82.2621H82.3377H82.4131H82.4882H82.563H82.6375H82.7117H82.7856H82.8593H82.9326H83.0057H83.0784H83.1509H83.223H83.2949H83.3665H83.4378H83.5087H83.5794H83.6498H83.7198H83.7896H83.8591H83.9282H83.9971H84.0656H84.1338H84.2018H84.2694H84.3367H84.4037H84.4703H84.5367H84.6028H84.6685H84.7339H84.799H84.8638H84.9283H84.9924H85.0562H85.1198H85.1829H85.2458H85.3083H85.3705H85.4324H85.494H85.5552H85.6161H85.6767H85.7369H85.7968H85.8564H85.9156H85.9745H86.0331H86.0913H86.1492H86.2068H86.264H86.3209H86.3774H86.4336H86.4895H86.545H86.6001H86.655H86.7094H86.7636H86.8173H86.8708H86.9238H86.9766H87.0289H87.081H87.1326H87.1839H87.2349H87.2855H87.3357H87.3856H87.4352H87.4843H87.5331H87.5816H87.6297H87.6774H87.7247H87.7717H87.8183H87.8646H87.9105H87.956H88.0011H88.0459H88.0903H88.1343H88.178H88.2213H88.2642H88.3067H88.3488H88.3906H88.432H88.473H88.5137H88.5539H88.5938H88.6332H88.6723H88.7111H88.7494H88.7873H88.8249H88.862H88.8988H88.9352H88.9711H89.0067H89.0419H89.0767H89.1111H89.1452H89.1788H89.212H89.2448H89.2772H89.3092H89.3408H89.372H89.4028H89.4332H89.4632H89.4928H89.522H89.5507H89.5791H89.607H89.6346H89.6617H89.6884H89.7147H89.7406H89.7661H89.7911H89.8157H89.8399Z" fill="white" stroke="#3C3C3C" stroke-width="1.3" stroke-miterlimit="1.5" stroke-linecap="square"/>
<path d="M27.5 14.3333V8" stroke="#3C3C3C" stroke-width="1.3" stroke-miterlimit="1.5" stroke-linejoin="bevel"/>
<path d="M27.5 46V39.6666" stroke="#3C3C3C" stroke-width="1.3" stroke-miterlimit="1.5" stroke-linejoin="bevel"/>
<path d="M21.1667 16.0308L18 10.5461" stroke="#3C3C3C" stroke-width="1.3" stroke-miterlimit="1.5" stroke-linejoin="bevel"/>
<path d="M37.0002 43.4542L33.8335 37.9695" stroke="#3C3C3C" stroke-width="1.3" stroke-miterlimit="1.5" stroke-linejoin="bevel"/>
<path d="M21.1667 37.9695L18 43.4542" stroke="#3C3C3C" stroke-width="1.3" stroke-miterlimit="1.5" stroke-linejoin="bevel"/>
<path d="M37.0002 10.5461L33.8335 16.0308" stroke="#3C3C3C" stroke-width="1.3" stroke-miterlimit="1.5" stroke-linejoin="bevel"/>
<path d="M14.8333 27H8.5" stroke="#3C3C3C" stroke-width="1.3" stroke-miterlimit="1.5" stroke-linejoin="bevel"/>
<path d="M46.4998 27H40.1665" stroke="#3C3C3C" stroke-width="1.3" stroke-miterlimit="1.5" stroke-linejoin="bevel"/>
<path d="M16.5305 20.6668L11.0459 17.5001" stroke="#3C3C3C" stroke-width="1.3" stroke-miterlimit="1.5" stroke-linejoin="bevel"/>
<path d="M43.9539 36.5L38.4692 33.3334" stroke="#3C3C3C" stroke-width="1.3" stroke-miterlimit="1.5" stroke-linejoin="bevel"/>
<path d="M38.4692 20.6668L43.9539 17.5001" stroke="#3C3C3C" stroke-width="1.3" stroke-miterlimit="1.5" stroke-linejoin="bevel"/>
<path d="M11.0459 36.5L16.5305 33.3334" stroke="#3C3C3C" stroke-width="1.3" stroke-miterlimit="1.5" stroke-linejoin="bevel"/>
<path d="M71.1532 83.35H71.15V83.3355V83.314V83.2922V83.27V83.2475V83.2247V83.2016V83.1782V83.1544V83.1303V83.1059V83.0811V83.0561V83.0307V83.005V82.979V82.9527V82.926V82.8991V82.8718V82.8442V82.8163V82.7881V82.7596V82.7307V82.7016V82.6721V82.6424V82.6123V82.5819V82.5512V82.5203V82.489V82.4574V82.4255V82.3932V82.3607V82.3279V82.2948V82.2614V82.2277V82.1937V82.1594V82.1248V82.0899V82.0547V82.0192V81.9834V81.9473V81.911V81.8743V81.8373V81.8001V81.7626V81.7247V81.6866V81.6482V81.6095V81.5706V81.5313V81.4918V81.4519V81.4118V81.3714V81.3307V81.2898V81.2485V81.207V81.1652V81.1232V81.0808V81.0382V80.9953V80.9521V80.9086V80.8649V80.8209V80.7766V80.7321V80.6873V80.6422V80.5968V80.5512V80.5053V80.4592V80.4127V80.366V80.3191V80.2719V80.2244V80.1766V80.1286V80.0803V80.0318V79.983V79.934V79.8846V79.8351V79.7853V79.7352V79.6848V79.6342V79.5834V79.5323V79.4809V79.4293V79.3775V79.3254V79.273V79.2204V79.1675V79.1144V79.0611V79.0075V78.9536V78.8996V78.8452V78.7907V78.7358V78.6808V78.6255V78.5699V78.5142V78.4581V78.4019V78.3454V78.2887V78.2317V78.1745V78.117V78.0594V78.0015V77.9433V77.885V77.8264V77.7675V77.7085V77.6492V77.5897V77.5299V77.4699V77.4097V77.3493V77.2887V77.2278V77.1667V77.1054V77.0439V76.9821V76.9201V76.8579V76.7955V76.7329V76.67V76.607V76.5437V76.4802V76.4165V76.3525V76.2884V76.224V76.1595V76.0947V76.0297V75.9645V75.8991V75.8335V75.7677V75.7017V75.6355V75.569V75.5024V75.4355V75.3685V75.3013V75.2338V75.1662V75.0983V75.0303V74.962V74.8936V74.8249V74.7561V74.6871V74.6179V74.5484V74.4788V74.409V74.339V74.2688V74.1985V74.1279V74.0571V73.9862V73.9151V73.8438V73.7722V73.7006V73.6287V73.5566V73.4844V73.412V73.3394V73.2666V73.1936V73.1205V73.0471V72.9736V72.9V72.8261V72.7521V72.6779V72.6035V72.5289V72.4542V72.3793V72.3042V72.229V72.1536V72.078V72.0023V71.9263V71.8502V71.774V71.6976V71.621V71.5443V71.4673V71.3903V71.313V71.2356V71.1581V71.0804V71.0025V70.9245V70.8463V70.7679V70.6894V70.6108V70.532V70.453V70.3739V70.2946V70.2152V70.1356V70.0559V69.976V69.896V69.8158V69.7355V69.655V69.5744V69.4936V69.4127V69.3317V69.2505V69.1692V69.0877V69.0061V68.9243V68.8424V68.7604V68.6782V68.5959V68.5135V68.4309V68.3482V68.2653V68.1823V68.0992V68.016V67.9326V67.8491V67.7654V67.6817V67.5978V67.5137V67.4296V67.3453V67.2609V67.1764V67.0917V67.0069V66.922V66.837V66.7518V66.6666V66.5812V66.4957V66.4101V66.3243V66.2385V66.1525V66.0664V65.9802V65.8939V65.8074V65.7209V65.6342V65.5475V65.4606V65.3736V65.2865V65.1993V65.112V65.0246V64.937V64.8494V64.7617V64.6738V64.5859V64.4979V64.4097V64.3215V64.2331V64.1447V64.0561V63.9675V63.8787V63.7899V63.701V63.6119V63.5228V63.4336V63.3443V63.2549V63.1654V63.0758V62.9861V62.8964V62.8065V62.7166V62.6265V62.5364V62.4462V62.3559V62.2656V62.1751V62.0846V61.994V61.9033V61.8125V61.7216V61.6307V61.5397V61.4486V61.3574V61.2662V61.1748V61.0834V60.992V60.9004V60.8088V60.7171V60.6253V60.5335V60.4416V60.3496V60.2576V60.1655V60.0733V59.9811V59.8888V59.7964V59.704V59.6115V59.5189V59.4263V59.3336V59.2409V59.1481V59.0552V58.9623V58.8693V58.7763V58.6832V58.59V58.4968V58.4036V58.3103V58.2169V58.1235V58.0301V57.9365V57.843V57.7494V57.6557V57.562V57.4683V57.3745V57.2806V57.1867V57.0928V56.9988V56.9048V56.8108V56.7167V56.6225V56.5284V56.4341V56.3399V56.2456V56.1513V56.0569V55.9625V55.8681V55.7736V55.6791V55.5846V55.4901V55.3955V55.3008V55.2062V55.1115V55.0168V54.9221V54.8273V54.7325V54.6377V54.5429V54.4481V54.3532V54.2583V54.1634V54.0684V53.9735V53.8785V53.7835V53.6885V53.5934V53.4984V53.4033V53.3083V53.2132V53.1181V53.0229V52.9278V52.8327V52.7375V52.6424V52.5472V52.452V52.3568V52.2617V52.1665V52.0713V51.9761V51.8809V51.7856V51.6904V51.5952V51.5C71.15 33.9283 85.6336 19.65 103.5 19.65C112.086 19.65 120.304 23.0068 126.386 28.9748C132.445 34.9417 135.85 43.0519 135.85 51.5C135.85 59.9473 132.445 68.0363 126.385 74.0257C120.326 79.9927 112.087 83.35 103.5 83.35H103.403H103.307H103.21H103.113H103.017H102.92H102.823H102.727H102.63H102.533H102.437H102.34H102.243H102.147H102.05H101.954H101.857H101.76H101.664H101.567H101.471H101.374H101.278H101.181H101.085H100.988H100.892H100.796H100.699H100.603H100.507H100.41H100.314H100.218H100.121H100.025H99.9291H99.8329H99.7368H99.6407H99.5446H99.4486H99.3525H99.2566H99.1606H99.0647H98.9688H98.873H98.7772H98.6814H98.5856H98.4899H98.3943H98.2987H98.2031H98.1075H98.012H97.9166H97.8211H97.7258H97.6304H97.5352H97.4399H97.3447H97.2496H97.1545H97.0594H96.9644H96.8695H96.7746H96.6797H96.5849H96.4902H96.3955H96.3009H96.2063H96.1118H96.0173H95.9229H95.8286H95.7343H95.64H95.5459H95.4518H95.3577H95.2637H95.1698H95.076H94.9822H94.8884H94.7948H94.7012H94.6077H94.5142H94.4208H94.3275H94.2343H94.1411H94.048H93.955H93.862H93.7691H93.6763H93.5836H93.4909H93.3984H93.3059H93.2135H93.1211H93.0289H92.9367H92.8446H92.7526H92.6606H92.5688H92.477H92.3854H92.2938H92.2023H92.1109H92.0195H91.9283H91.8372H91.7461H91.6551H91.5643H91.4735H91.3828H91.2922H91.2017H91.1113H91.021H90.9308H90.8407H90.7507H90.6608H90.571H90.4813H90.3917H90.3022H90.2128H90.1235H90.0343H89.9452H89.8562H89.7674H89.6786H89.5899H89.5014H89.413H89.3246H89.2364H89.1483H89.0603H88.9724H88.8847H88.797H88.7095H88.6221H88.5348H88.4476H88.3605H88.2736H88.1868H88.1001H88.0135H87.9271H87.8407H87.7545H87.6684H87.5825H87.4966H87.4109H87.3254H87.2399H87.1546H87.0694H86.9843H86.8994H86.8146H86.7299H86.6454H86.561H86.4768H86.3926H86.3086H86.2248H86.1411H86.0575H85.9741H85.8908H85.8076H85.7246H85.6417H85.559H85.4764H85.394H85.3117H85.2295H85.1475H85.0657H84.984H84.9024H84.821H84.7398H84.6587H84.5777H84.4969H84.4163H84.3358H84.2554H84.1752H84.0952H84.0153H83.9356H83.8561H83.7767H83.6975H83.6184H83.5395H83.4607H83.3821H83.3037H83.2255H83.1474H83.0694H82.9917H82.9141H82.8367H82.7594H82.6823H82.6054H82.5287H82.4521H82.3757H82.2995H82.2234H82.1475H82.0718H81.9963H81.921H81.8458H81.7708H81.696H81.6214H81.5469H81.4726H81.3986H81.3247H81.2509H81.1774H81.104H81.0309H80.9579H80.8851H80.8125H80.7401H80.6679H80.5958H80.524H80.4523H80.3809H80.3096H80.2385H80.1676H80.097H80.0265H79.9562H79.8861H79.8162H79.7465H79.677H79.6077H79.5386H79.4697H79.4011H79.3326H79.2643H79.1962H79.1283H79.0607H78.9932H78.926H78.8589H78.7921H78.7255H78.6591H78.5929H78.5269H78.4611H78.3956H78.3302H78.2651H78.2002H78.1355H78.071H78.0068H77.9427H77.8789H77.8153H77.752H77.6888H77.6259H77.5632H77.5007H77.4384H77.3764H77.3146H77.253H77.1916H77.1305H77.0696H77.009H76.9485H76.8883H76.8284H76.7686H76.7091H76.6499H76.5908H76.532H76.4735H76.4151H76.3571H76.2992H76.2416H76.1842H76.1271H76.0702H76.0136H75.9572H75.9011H75.8452H75.7895H75.7341H75.6789H75.624H75.5693H75.5149H75.4607H75.4068H75.3531H75.2997H75.2466H75.1936H75.141H75.0886H75.0364H74.9846H74.9329H74.8816H74.8304H74.7796H74.729H74.6787H74.6286H74.5788H74.5292H74.48H74.4309H74.3822H74.3337H74.2855H74.2375H74.1899H74.1425H74.0953H74.0484H74.0018H73.9555H73.9095H73.8637H73.8182H73.773H73.728H73.6833H73.6389H73.5948H73.5509H73.5074H73.4641H73.4211H73.3784H73.3359H73.2938H73.2519H73.2103H73.169H73.128H73.0873H73.0468H73.0067H72.9668H72.9272H72.888H72.849H72.8103H72.7719H72.7338H72.6959H72.6584H72.6212H72.5843H72.5476H72.5113H72.4752H72.4395H72.4041H72.3689H72.3341H72.2996H72.2653H72.2314H72.1978H72.1645H72.1315H72.0988H72.0664H72.0343H72.0025H71.971H71.9399H71.909H71.8785H71.8483H71.8184H71.7888H71.7595H71.7305H71.7019H71.6736H71.6456H71.6179H71.5905H71.5634H71.5367H71.5103H71.4842H71.4584H71.433H71.4079H71.3831H71.3586H71.3345H71.3107H71.2872H71.264H71.2412H71.2187H71.1966H71.1747H71.1532Z" fill="#DECAE1" stroke="#3C3C3C" stroke-width="1.3" stroke-miterlimit="1.5" stroke-linecap="square"/>
<path d="M84.5 49C87.6879 56.8676 95.1814 62 103.5 62C111.819 62 119.312 56.8753 122.5 49.0077" stroke="#3C3C3C" stroke-width="1.3" stroke-miterlimit="1.5"/>
<circle cx="32" cy="98.5" r="4.85" fill="#76B82A" stroke="#3C3C3C" stroke-width="1.3" stroke-miterlimit="1.5" stroke-linecap="square"/>
<circle cx="50" cy="98.5" r="4.85" fill="#76B82A" stroke="#3C3C3C" stroke-width="1.3" stroke-miterlimit="1.5" stroke-linecap="square"/>
<circle cx="67" cy="98.5" r="4.85" fill="#76B82A" stroke="#3C3C3C" stroke-width="1.3" stroke-miterlimit="1.5" stroke-linecap="square"/>
</svg>
