<svg width="145" height="144" viewBox="0 0 145 144" fill="none" xmlns="http://www.w3.org/2000/svg">
<path d="M41.15 135.35V84.65H135.85V135.35H41.15Z" fill="#F2EAF3" stroke="#3C3C3C" stroke-width="1.3" stroke-miterlimit="1.5" stroke-linecap="square"/>
<path d="M43.7659 83.35L89.4832 54.7688L134.273 83.35H43.7659Z" fill="#F2EAF3" stroke="#3C3C3C" stroke-width="1.3" stroke-miterlimit="1.5" stroke-linecap="square"/>
<path d="M134.5 135L88.1393 110L41.5 135" stroke="#3C3C3C" stroke-width="1.3" stroke-miterlimit="1.5" stroke-linecap="square"/>
<mask id="path-4-inside-1_663_2299" fill="white">
<path d="M40.5 85L88 110L135.5 85"/>
</mask>
<path d="M40.5 85L88 110L135.5 85" fill="#3C3C3C"/>
<path d="M40.5 84.35H39.85V85.65H40.5V84.35ZM135.5 85.65H136.15V84.35H135.5V85.65ZM40.5 85.65H135.5V84.35H40.5V85.65ZM41.1055 83.8496L39.9551 83.2441L38.7441 85.5449L39.8945 86.1504L41.1055 83.8496ZM88 110L87.3945 111.15L88 111.469L88.6055 111.15L88 110ZM136.105 86.1504L137.256 85.5449L136.045 83.2441L134.895 83.8496L136.105 86.1504ZM39.8945 86.1504L87.3945 111.15L88.6055 108.85L41.1055 83.8496L39.8945 86.1504ZM88.6055 111.15L136.105 86.1504L134.895 83.8496L87.3945 108.85L88.6055 111.15Z" fill="#3C3C3C" mask="url(#path-4-inside-1_663_2299)"/>
<path d="M58.15 93.2053L58.15 40.65L103.271 40.65L117.85 55.2222L117.85 93.2053L88 109.262L58.15 93.2053Z" fill="white" stroke="#3C3C3C" stroke-width="1.3" stroke-miterlimit="1.5" stroke-linecap="square"/>
<path d="M103.5 41V55H117.5" stroke="#3C3C3C" stroke-width="1.3"/>
<path d="M70.5 66H98.5" stroke="#3C3C3C" stroke-width="1.3"/>
<path d="M70.5 76H90.5" stroke="#3C3C3C" stroke-width="1.3"/>
<path d="M70.5 86H96.5" stroke="#3C3C3C" stroke-width="1.3"/>
<rect x="9.15" y="8.65" width="52.7" height="90.7" fill="white" stroke="#3C3C3C" stroke-width="1.3" stroke-miterlimit="1.5" stroke-linecap="square"/>
<path d="M26.5 18H46.5" stroke="#3C3C3C" stroke-width="1.3" stroke-miterlimit="1.5" stroke-linecap="square"/>
<path d="M40.85 84C40.85 86.9547 38.4547 89.35 35.5 89.35C32.5453 89.35 30.15 86.9547 30.15 84C30.15 81.0453 32.5453 78.65 35.5 78.65C38.4547 78.65 40.85 81.0453 40.85 84Z" fill="#76B82A" stroke="#3C3C3C" stroke-width="1.3" stroke-miterlimit="1.5" stroke-linecap="square"/>
<path d="M35.5 64.5166C43.0387 64.5166 49.15 58.4053 49.15 50.8666C49.15 43.3279 43.0387 37.2166 35.5 37.2166C27.9613 37.2166 21.85 43.3279 21.85 50.8666C21.85 58.4053 27.9613 64.5166 35.5 64.5166Z" fill="#DECAE1" stroke="#3C3C3C" stroke-width="1.3" stroke-miterlimit="1.5" stroke-linecap="square"/>
<path d="M27.5 52.8666C29.4013 55.3891 32.3623 56.8666 35.502 56.8666C38.6417 56.8666 41.6027 55.3851 43.5 52.8666" stroke="#3C3C3C" stroke-width="1.3" stroke-miterlimit="1.5"/>
<path d="M111.5 8V10.068C111.5 15.0033 115.497 19 120.432 19H122.5H120.432C115.497 19 111.5 23.004 111.5 27.932V30V27.932C111.5 22.9967 107.503 19 102.568 19H100.5H102.568C107.503 19 111.5 15.0033 111.5 10.068V8Z" stroke="#3C3C3C" stroke-width="1.3" stroke-miterlimit="1.5" stroke-linejoin="bevel"/>
<path d="M131.5 24V24.94C131.5 27.1833 133.317 29 135.56 29H136.5H135.56C133.317 29 131.5 30.82 131.5 33.06V34V33.06C131.5 30.8167 129.683 29 127.44 29H126.5H127.44C129.683 29 131.5 27.1833 131.5 24.94V24Z" stroke="#3C3C3C" stroke-width="1.3" stroke-miterlimit="1.5" stroke-linejoin="bevel"/>
</svg>
