<svg width="145" height="144" viewBox="0 0 145 144" fill="none" xmlns="http://www.w3.org/2000/svg">
<rect x="83.15" y="40.65" width="52.7" height="72.7" fill="#EDEDED" stroke="#3C3C3C" stroke-width="1.3" stroke-miterlimit="1.5" stroke-linecap="square"/>
<path d="M124.85 23.7067L124.85 93.35L62.15 93.35L62.15 8.65L109.538 8.65001L124.85 23.7067Z" fill="white" stroke="#3C3C3C" stroke-width="1.3" stroke-miterlimit="1.5" stroke-linecap="square"/>
<path d="M109.5 9V24H124.5" stroke="#3C3C3C" stroke-width="1.3"/>
<path d="M74.5 35H104.5" stroke="#3C3C3C" stroke-width="1.3"/>
<path d="M74.5 45H94.5" stroke="#3C3C3C" stroke-width="1.3"/>
<path d="M74.5 55H102.5" stroke="#3C3C3C" stroke-width="1.3"/>
<path d="M61.6618 63.5916L61.0772 63.8757L61.255 64.2416H61.6618V63.5916ZM61.6618 63.5916C61.0772 63.8757 61.0772 63.8757 61.0772 63.8756L61.077 63.8753L61.0765 63.8742L61.0743 63.8698L61.0658 63.8522L61.0323 63.7832L60.9034 63.5181L60.4301 62.5439C60.0307 61.7218 59.4796 60.5873 58.8728 59.3376C57.6596 56.8393 56.2234 53.8806 55.3315 52.0384M61.6618 63.5916C61.6618 64.2416 61.662 64.2416 61.6623 64.2416H61.6636H61.6658H61.6688H61.6728H61.6776H61.6832H61.6897H61.6971H61.7053H61.7144H61.7243H61.7351H61.7467H61.7592H61.7724H61.7866H61.8015H61.8173H61.8339H61.8513H61.8695H61.8886H61.9085H61.9291H61.9506H61.9729H61.996H62.0199H62.0446H62.07H62.0963H62.1233H62.1512H62.1798H62.2092H62.2393H62.2703H62.302H62.3344H62.3676H62.4016H62.4364H62.4719H62.5081H62.5451H62.5829H62.6214H62.6606H62.7005H62.7412H62.7827H62.8248H62.8677H62.9113H62.9556H63.0006H63.0464H63.0928H63.14H63.1878H63.2364H63.2857H63.3356H63.3863H63.4376H63.4896H63.5424H63.5957H63.6498H63.7046H63.76H63.8161H63.8728H63.9302H63.9883H64.047H64.1064H64.1664H64.2271H64.2884H64.3504H64.413H64.4763H64.5401H64.6047H64.6698H64.7355H64.8019H64.8689H64.9366H65.0048H65.0736H65.1431H65.2131H65.2838H65.355H65.4269H65.4993H65.5724H65.646H65.7202H65.795H65.8703H65.9463H66.0228H66.0998H66.1775H66.2557H66.3345H66.4138H66.4937H66.5741H66.6551H66.7366H66.8187H66.9013H66.9844H67.0681H67.1523H67.237H67.3223H67.4081H67.4944H67.5812H67.6685H67.7564H67.8447H67.9336H68.0229H68.1128H68.2031H68.294H68.3853H68.4771H68.5695H68.6622H68.7555H68.8492H68.9435H69.0381H69.1333H69.2289H69.325H69.4215H69.5185H69.6159H69.7138H69.8121H69.9109H70.0101H70.1098H70.2099H70.3104H70.4113H70.5127H70.6145H70.7167H70.8193H70.9224H71.0258H71.1297H71.234H71.3386H71.4437H71.5492H71.655H71.7613H71.8679H71.9749H72.0823H72.1901H72.2983H72.4068H72.5157H72.625H72.7346H72.8446H72.9549H73.0656H73.1767H73.2881H73.3998H73.5119H73.6244H73.7372H73.8503H73.9637H74.0775H74.1916H74.306H74.4207H74.5358H74.6511H74.7668H74.8828H74.9991H75.1157H75.2326H75.3498H75.4672H75.585H75.7031H75.8214H75.9401H76.059H76.1781H76.2976H76.4173H76.5373H76.6576H76.7781H76.8989H77.0199H77.1412H77.2627H77.3845H77.5065H77.6288H77.7513H77.874H77.997H78.1202H78.2436H78.3673H78.4912H78.6152H78.7396H78.8641H78.9888H79.1137H79.2388H79.3642H79.4897H79.6154H79.7413H79.8674H79.9937H80.1202H80.2468H80.3736H80.5006H80.6278H80.7551H80.8826H81.0103H81.1381H81.2661H81.3942H81.5225H81.6509H81.7795H81.9082H82.037H82.166H82.2951H82.4244H82.5538H82.6833H82.8129H82.9426H83.0724H83.2024H83.3325H83.4627H83.5929H83.7233H83.8538H83.9843H84.115H84.2458H84.3766H84.5075H84.6385H84.7696H84.9007H85.0319H85.1632H85.2946H85.426H85.5574H85.689H85.8206H85.9522H86.0839H86.2156H86.3474H86.4792H86.611H86.7429H86.8748H87.0067H87.1386H87.2706H87.4026H87.5346H87.6666H87.7986H87.9307H88.0627H88.1947H88.3268H88.4588H88.5908H88.7228H88.8548H88.9868H89.1188H89.2507H89.3826H89.5145H89.6463H89.7781H89.9099H90.0417H90.1733H90.305H90.4366H90.5681H90.6996H90.831H90.9624H91.0937H91.225H91.3561H91.4872H91.6182H91.7492H91.88H92.0108H92.1415H92.2721H92.4026H92.533H92.6633H92.7935H92.9236H93.0536H93.1835H93.3132H93.4429H93.5724H93.7018H93.8311H93.9603H94.0893H94.2182H94.3469H94.4755H94.604H94.7323H94.8605H94.9885H95.1164H95.2441H95.3716H95.499H95.6262H95.7533H95.8801H96.0068H96.1333H96.2597H96.3858H96.5118H96.6376H96.7632H96.8885H97.0137H97.1387H97.2635H97.3881H97.5124H97.6366H97.7605H97.8842H98.0077H98.131H98.254H98.3768H98.4994H98.6217H98.7438H98.8657H98.9873H99.1087H99.2298H99.3506H99.4712H99.5915H99.7116H99.8314H99.951H100.07H100.189H100.308H100.426H100.544H100.662H100.78H100.897H101.014H101.131H101.247H101.363H101.479H101.595H101.71H101.825H101.939H102.053H102.167H102.281H102.394H102.507H102.619H102.731H102.843H102.955H103.066H103.177H103.287H103.397H103.507H103.616H103.725H103.834H103.942H104.05H104.158H104.265H104.372H104.478H104.584H104.689H104.795H104.899H105.004H105.108H105.211H105.315H105.417H105.52H105.622H105.723H105.824H105.925H106.025H106.125H106.224H106.323H106.421H106.519H106.617H106.714H106.811H106.907H107.003H107.098H107.193H107.287H107.381H107.474H107.567H107.66H107.752H107.843H107.934H108.025H108.115H108.204H108.293H108.382H108.47H108.557H108.644H108.731H108.817H108.902H108.987H109.071H109.155H109.238H109.321H109.403H109.485H109.566H109.647H109.727H109.806H109.885H109.964H110.041H110.119H110.195H110.271H110.347H110.422H110.496H110.57H110.643H110.716H110.788H110.859H110.93H111H111.07H111.139H111.207H111.275H111.342H111.409C112.039 64.2416 112.657 64.5142 113.128 64.9878C113.584 65.4467 113.85 66.0958 113.85 66.772V66.8393V66.9073V66.976V67.0454V67.1156V67.1864V67.258V67.3303V67.4032V67.4769V67.5513V67.6264V67.7022V67.7786V67.8558V67.9336V68.0122V68.0914V68.1712V68.2518V68.333V68.4149V68.4975V68.5807V68.6646V68.7491V68.8343V68.9201V69.0066V69.0938V69.1815V69.27V69.359V69.4487V69.539V69.63V69.7216V69.8138V69.9066V70V70.0941V70.1887V70.284V70.3799V70.4763V70.5734V70.6711V70.7694V70.8682V70.9677V71.0677V71.1683V71.2695V71.3713V71.4737V71.5766V71.6801V71.7841V71.8888V71.9939V72.0997V72.206V72.3128V72.4202V72.5282V72.6366V72.7457V72.8552V72.9653V73.0759V73.1871V73.2988V73.411V73.5237V73.637V73.7507V73.865V73.9798V74.0951V74.2108V74.3271V74.4439V74.5612V74.679V74.7972V74.916V75.0352V75.1549V75.2751V75.3958V75.5169V75.6385V75.7606V75.8831V76.0061V76.1296V76.2535V76.3779V76.5027V76.6279V76.7536V76.8798V77.0064V77.1334V77.2608V77.3887V77.517V77.6457V77.7749V77.9045V78.0344V78.1648V78.2956V78.4268V78.5585V78.6905V78.8229V78.9557V79.0889V79.2225V79.3565V79.4908V79.6256V79.7607V79.8962V80.032V80.1683V80.3049V80.4419V80.5792V80.7169V80.8549V80.9933V81.1321V81.2712V81.4106V81.5504V81.6905V81.8309V81.9717V82.1128V82.2543V82.396V82.5381V82.6805V82.8232V82.9663V83.1096V83.2533V83.3972V83.5415V83.686V83.8309V83.976V84.1215V84.2672V84.4132V84.5595V84.706V84.8529V85V85.1474V85.295V85.4429V85.5911V85.7396V85.8882V86.0372V86.1864V86.3358V86.4855V86.6354V86.7856V86.936V87.0866V87.2375V87.3886V87.5399V87.6915V87.8432V87.9952V88.1474V88.2998V88.4524V88.6052V88.7582V88.9114V89.0648V89.2184V89.3722V89.5262V89.6804V89.8347V89.9892V90.1439V90.2988V90.4538V90.6091V90.7644V90.92V91.0757V91.2315V91.3875V91.5437V91.7V91.8564V92.013V92.1698V92.3266V92.4836V92.6408V92.798V92.9554V93.1129V93.2706V93.4283V93.5862V93.7441V93.9022V94.0604V94.2187V94.377V94.5355V94.6941V94.8528V95.0115V95.1704V95.3293V95.4883V95.6473V95.8065V95.9657V96.125V96.2844V96.4438V96.6032V96.7628V96.9224V97.082V97.2417V97.4014V97.5612V97.721V97.8809V98.0407V98.2007V98.3606V98.5206V98.6806V98.8406V99.0006V99.1606V99.3207V99.4808V99.6408V99.8009V99.961V100.121V100.281V100.441V100.601V100.761V100.921V101.081V101.241V101.401V101.561V101.721V101.881V102.041V102.2V102.36V102.52V102.679V102.839V102.998V103.158V103.317V103.477V103.636V103.795V103.954V104.113V104.272V104.431V104.59V104.749V104.908V105.066V105.225V105.383V105.541V105.699V105.857V106.015V106.173V106.331V106.489V106.646V106.803V106.961V107.118V107.275V107.432V107.588V107.745V107.901V108.058V108.214V108.37V108.526V108.681V108.837V108.992V109.147V109.302V109.457V109.612V109.766V109.921V110.075V110.229V110.383V110.536V110.69V110.843V110.996V111.149V111.301V111.454V111.606V111.758V111.909V112.061V112.212V112.363V112.514V112.665V112.815V112.965V113.115V113.265V113.414V113.563V113.712V113.861V114.009V114.158V114.305V114.453V114.6V114.747V114.894V115.041V115.187V115.333V115.479V115.624V115.769V115.914V116.059V116.203V116.347V116.49V116.634V116.777V116.919V117.062V117.204V117.345V117.487V117.628V117.769V117.909V118.049V118.189V118.328V118.467V118.606V118.744V118.882V119.02V119.157V119.294V119.431V119.567V119.703V119.838V119.973V120.108V120.243V120.376V120.51V120.643V120.776V120.908V121.04V121.172V121.303V121.434V121.564V121.694V121.824V121.953V122.081V122.21V122.337V122.465V122.592V122.718V122.844V122.97V123.095V123.22V123.344V123.468V123.592V123.715V123.837V123.959V124.081V124.202V124.322V124.442V124.562V124.681V124.8V124.918V125.036V125.153V125.27V125.386V125.502V125.617V125.732V125.846V125.96V126.073V126.186V126.298V126.409V126.52V126.631V126.741V126.851V126.96V127.068V127.176V127.283V127.39V127.496V127.602V127.707V127.812V127.916V128.019V128.122V128.224V128.326V128.427V128.528V128.628V128.727V128.826V128.924V129.022V129.119V129.215V129.311V129.406V129.501V129.595V129.688V129.781V129.873V129.964V130.055V130.145V130.235V130.324V130.412V130.5V130.587V130.674V130.759V130.844V130.929V131.013V131.096V131.178V131.26V131.341V131.422V131.502V131.581V131.659V131.737V131.814V131.89V131.966V132.041V132.115V132.189V132.262V132.334V132.406V132.476V132.547V132.616V132.684V132.752V132.82C113.85 133.494 113.585 134.147 113.122 134.623C112.675 135.083 112.05 135.35 111.409 135.35H111.318H111.226H111.132H111.037H110.941H110.844H110.746H110.646H110.546H110.444H110.341H110.236H110.131H110.024H109.917H109.808H109.698H109.587H109.474H109.361H109.246H109.131H109.014H108.896H108.777H108.657H108.535H108.413H108.29H108.165H108.039H107.913H107.785H107.656H107.526H107.395H107.263H107.13H106.996H106.861H106.725H106.588H106.45H106.31H106.17H106.029H105.887H105.743H105.599H105.454H105.308H105.16H105.012H104.863H104.713H104.562H104.41H104.257H104.103H103.948H103.792H103.635H103.478H103.319H103.16H102.999H102.838H102.676H102.513H102.349H102.184H102.018H101.851H101.684H101.515H101.346H101.176H101.005H100.833H100.66H100.486H100.312H100.137H99.9607H99.7839H99.6062H99.4276H99.2483H99.0682H98.8873H98.7056H98.523H98.3398H98.1557H97.9708H97.7852H97.5988H97.4117H97.2238H97.0352H96.8458H96.6556H96.4648H96.2731H96.0808H95.8878H95.694H95.4995H95.3043H95.1084H94.9118H94.7145H94.5166H94.3179H94.1186H93.9185H93.7179H93.5165H93.3145H93.1118H92.9085H92.7046H92.5H92.2947H92.0889H91.8824H91.6753H91.4675H91.2592H91.0502H90.8407H90.6305H90.4198H90.2084H89.9965H89.784H89.5709H89.3573H89.1431H88.9283H88.713H88.4971H88.2807H88.0638H87.8463H87.6283H87.4097H87.1906H86.9711H86.751H86.5303H86.3092H86.0876H85.8655H85.643H85.4199H85.1963H84.9723H84.7478H84.5229H84.2975H84.0716H83.8453H83.6185H83.3913H83.1637H82.9356H82.7071H82.4782H82.2489H82.0191H81.789H81.5585H81.3275H81.0962H80.8644H80.6323H80.3999H80.167H79.9338H79.7002H79.4662H79.2319H78.9973H78.7623H78.5269H78.2913H78.0553H77.819H77.5823H77.3453H77.1081H76.8705H76.6326H76.3944H76.156H75.9172H75.6782H75.4389H75.1993H74.9594H74.7193H74.4789H74.2383H73.9974H73.7563H73.5149H73.2734H73.0315H72.7895H72.5472H72.3047H72.062H71.8191H71.576H71.3327H71.0892H70.8456H70.6017H70.3577H70.1135H69.8691H69.6246H69.3799H69.135H68.89H68.6449H68.3996H68.1542H67.9087H67.663H67.4172H67.1713H66.9253H66.6792H66.433H66.1867H65.9403H65.6938H65.4472H65.2006H64.9539H64.7071H64.4603H64.2134H63.9664H63.7194H63.4724H63.2253H62.9782H62.731H62.4839H62.2367H61.9895H61.7423H61.4951H61.2478H61.0006H60.7534H60.5063H60.2591H60.0119H59.7648H59.5178H59.2707H59.0237H58.7768H58.5299H58.283H58.0363H57.7895H57.5429H57.2963H57.0499H56.8035H56.5572H56.311H56.0649H55.8189H55.573H55.3272H55.0815H54.836H54.5906H54.3453H54.1002H53.8552H53.6104H53.3657H53.1212H52.8768H52.6326H52.3886H52.1448H51.9011H51.6576H51.4143H51.1713H50.9284H50.6857H50.4432H50.201H49.9589H49.7171H49.4755H49.2342H48.9931H48.7522H48.5116H48.2713H48.0312H47.7913H47.5517H47.3124H47.0734H46.8347H46.5962H46.3581H46.1202H45.8827H45.6454H45.4085H45.1718H44.9355H44.6996H44.4639H44.2286H43.9936H43.759H43.5247H43.2908H43.0572H42.824H42.5912H42.3587H42.1266H41.8949H41.6636H41.4327H41.2022H40.9721H40.7423H40.513H40.2842H40.0557H39.8277H39.6H39.3729H39.1461H38.9199H38.694H38.4686H38.2437H38.0192H37.7953H37.5717H37.3487H37.1262H36.9041H36.6825H36.4614H36.2409H36.0208H35.8012H35.5822H35.3637H35.1457H34.9282H34.7113H34.4949H34.2791H34.0638H33.8491H33.6349H33.4213H33.2083H32.9958H32.7839H32.5726H32.3619H32.1518H31.9423H31.7334H31.5251H31.3174H31.1103H30.9038H30.698H30.4928H30.2883H30.0843H29.8811H29.6784H29.4765H29.2752H29.0745H28.8746H28.6753H28.4766H28.2787H28.0815H27.8849H27.6891H27.4939H27.2995H27.1058H26.9127H26.7205H26.5289H26.3381H26.148H25.9586H25.77H25.5822H25.3951H25.2088H25.0232H24.8384H24.6544H24.4711H24.2887H24.107H23.9261H23.7461H23.5668H23.3883H23.2107H23.0339H22.8578H22.6827H22.5083H22.3348H22.1622H21.9903H21.8194H21.6493H21.48H21.3116H21.1441H20.9775H20.8117H20.6468L55.3315 52.0384M55.3315 52.0384C54.9081 51.1796 54.0598 50.65 53.1549 50.65L33.0021 50.65L11.591 50.65C10.2634 50.65 9.15002 51.7685 9.15002 53.1804V53.2572V53.3349V53.4135V53.493V53.5734V53.6548V53.737V53.8202V53.9043V53.9892V54.075V54.1618V54.2494V54.3379V54.4273V54.5175V54.6087V54.7006V54.7935V54.8872V54.9818V55.0772V55.1735V55.2706V55.3686V55.4674V55.567V55.6674V55.7687V55.8708V55.9738V56.0775V56.1821V56.2875V56.3936V56.5006V56.6084V56.717V56.8263V56.9365V57.0474V57.1591V57.2716V57.3849V57.4989V57.6137V57.7292V57.8456V57.9626V58.0804V58.199V58.3183V58.4384V58.5592V58.6807V58.8029V58.9259V59.0496V59.174V59.2992V59.425V59.5515V59.6788V59.8068V59.9354V60.0647V60.1948V60.3255V60.4569V60.589V60.7217V60.8552V60.9892V61.124V61.2594V61.3955V61.5322V61.6696V61.8076V61.9463V62.0856V62.2255V62.3661V62.5073V62.6491V62.7915V62.9346V63.0783V63.2225V63.3674V63.5129V63.659V63.8057V63.9529V64.1008V64.2493V64.3983V64.5479V64.6981V64.8488V65.0001V65.152V65.3044V65.4574V65.6109V65.765V65.9196V66.0748V66.2305V66.3868V66.5435V66.7008V66.8586V67.017V67.1758V67.3352V67.4951V67.6554V67.8163V67.9777V68.1396V68.3019V68.4648V68.6281V68.7919V68.9562V69.1209V69.2861V69.4518V69.618V69.7846V69.9516V70.1191V70.2871V70.4555V70.6243V70.7936V70.9633V71.1334V71.3039V71.4749V71.6463V71.8181V71.9903V72.1629V72.336V72.5094V72.6832V72.8574V73.032V73.207V73.3824V73.5581V73.7342V73.9107V74.0875V74.2648V74.4423V74.6203V74.7985V74.9772V75.1561V75.3354V75.5151V75.6951V75.8754V76.056V76.237V76.4183V76.5999V76.7818V76.964V77.1465V77.3294V77.5125V77.6959V77.8796V78.0636V78.2479V78.4324V78.6173V78.8024V78.9877V79.1734V79.3593V79.5454V79.7318V79.9185V80.1054V80.2925V80.4799V80.6676V80.8554V81.0435V81.2318V81.4203V81.6091V81.7981V81.9872V82.1766V82.3662V82.556V82.746V82.9361V83.1265V83.317V83.5078V83.6987V83.8897V84.081V84.2724V84.464V84.6557V84.8476V85.0397V85.2319V85.4242V85.6167V85.8093V86.0021V86.1949V86.388V86.5811V86.7743V86.9677V87.1612V87.3548V87.5485V87.7423V87.9362V88.1302V88.3243V88.5184V88.7127V88.907V89.1014V89.2959V89.4904V89.6851V89.8797V90.0745V90.2693V90.4641V90.659V90.8539V91.0489V91.2439V91.4389V91.634V91.8291V92.0242V92.2194V92.4145V92.6097V92.8048V93V93.1952V93.3903V93.5855V93.7806V93.9758V94.1709V94.366V94.5611V94.7561V94.9511V95.1461V95.341V95.5359V95.7307V95.9255V96.1203V96.3149V96.5096V96.7041V96.8986V97.093V97.2873V97.4816V97.6757V97.8698V98.0638V98.2577V98.4515V98.6452V98.8388V99.0323V99.2257V99.4189V99.612V99.8051V99.9979V100.191V100.383V100.576V100.768V100.96V101.152V101.344V101.536V101.728V101.919V102.11V102.301V102.492V102.683V102.874V103.064V103.254V103.444V103.634V103.823V104.013V104.202V104.391V104.58V104.768V104.956V105.145V105.332V105.52V105.707V105.895V106.082V106.268V106.455V106.641V106.827V107.012V107.198V107.383V107.568V107.752V107.936V108.12V108.304V108.488V108.671V108.853V109.036V109.218V109.4V109.582V109.763V109.944V110.125V110.305V110.485V110.665V110.844V111.023V111.201V111.38V111.558V111.735V111.912V112.089V112.266V112.442V112.618V112.793V112.968V113.143V113.317V113.491V113.664V113.837V114.01V114.182V114.354V114.525V114.696V114.867V115.037V115.206V115.376V115.545V115.713V115.881V116.048V116.215V116.382V116.548V116.714V116.879V117.044V117.208V117.372V117.535V117.698V117.86V118.022V118.184V118.345V118.505V118.665V118.824V118.983V119.141V119.299V119.456V119.613V119.769V119.925V120.08V120.235V120.389V120.543V120.696V120.848V121V121.151V121.302V121.452V121.602V121.751V121.899V122.047V122.194V122.341V122.487V122.633V122.777V122.922V123.065V123.208V123.351V123.493V123.634V123.774V123.914V124.054V124.192V124.33V124.468V124.605V124.741V124.876V125.011V125.145V125.278V125.411V125.543V125.674V125.805V125.935V126.065V126.193V126.321V126.448V126.575V126.701V126.826V126.95V127.074V127.197V127.319V127.441V127.562V127.682V127.801V127.92V128.037V128.154V128.271V128.386V128.501V128.615V128.728V128.841V128.953V129.064V129.174V129.283V129.392V129.499V129.606V129.713V129.818V129.922V130.026V130.129V130.231V130.333V130.433V130.533V130.631V130.729V130.827V130.923V131.018V131.113V131.206V131.299V131.391V131.482V131.573V131.662V131.751V131.838V131.925V132.011V132.096V132.18V132.263V132.345V132.427V132.507V132.587V132.665V132.743V132.82C9.15002 134.231 10.2634 135.35 11.591 135.35L55.3315 52.0384Z" fill="#FFC281" stroke="#3C3C3C" stroke-width="1.3" stroke-miterlimit="1.5"/>
<path d="M34.5 95C49.287 108.333 72.713 108.333 87.5 95" stroke="#3C3C3C" stroke-width="1.3" stroke-miterlimit="1.5"/>
<path d="M19.5 8V10.068C19.5 15.0033 23.4967 19 28.432 19H30.5H28.432C23.4967 19 19.5 23.004 19.5 27.932V30V27.932C19.5 22.9967 15.5033 19 10.568 19H8.5H10.568C15.5033 19 19.5 15.0033 19.5 10.068V8Z" fill="#76B82A" stroke="#3C3C3C" stroke-width="1.3" stroke-miterlimit="1.5" stroke-linejoin="bevel"/>
<path d="M40.5 24V25.128C40.5 27.82 42.68 30 45.372 30H46.5H45.372C42.68 30 40.5 32.184 40.5 34.872V36V34.872C40.5 32.18 38.32 30 35.628 30H34.5H35.628C38.32 30 40.5 27.82 40.5 25.128V24Z" fill="white" stroke="#3C3C3C" stroke-width="1.3" stroke-miterlimit="1.5" stroke-linejoin="bevel"/>
</svg>
