<svg width="80" height="80" viewBox="0 0 80 80" fill="none" xmlns="http://www.w3.org/2000/svg">
<rect x="46.3648" y="23.5072" width="27.2714" height="38.7" fill="#EDEDED" stroke="#3C3C3C" stroke-width="1.3" stroke-miterlimit="1.5" stroke-linecap="square"/>
<path d="M67.9223 14.3545L67.9223 51.7025L34.9366 51.7025L34.9366 6.36433L59.8954 6.36433L67.9223 14.3545Z" fill="white" stroke="#3C3C3C" stroke-width="1.3" stroke-miterlimit="1.5" stroke-linecap="square"/>
<path d="M60.2402 6.50867V13.9306H67.7147" stroke="#3C3C3C" stroke-width="1.3"/>
<path d="M41.3604 20.1512H57.3826" stroke="#3C3C3C" stroke-width="1.3"/>
<path d="M41.3604 25.1932H52.3406" stroke="#3C3C3C" stroke-width="1.3"/>
<path d="M41.3604 30.2352H56.1221" stroke="#3C3C3C" stroke-width="1.3"/>
<path d="M34.4283 35.7143L33.845 36.0012L34.0237 36.3643H34.4283V35.7143ZM34.4283 35.7143C34.4283 36.3643 34.4283 36.3643 34.4285 36.3643H34.4292H34.4304H34.432H34.4341H34.4367H34.4398H34.4433H34.4472H34.4517H34.4566H34.4619H34.4677H34.4739H34.4806H34.4878H34.4954H34.5034H34.5119H34.5208H34.5302H34.54H34.5503H34.561H34.5721H34.5836H34.5956H34.6081H34.6209H34.6342H34.6479H34.662H34.6766H34.6915H34.7069H34.7227H34.739H34.7556H34.7727H34.7901H34.808H34.8263H34.845H34.8641H34.8836H34.9035H34.9238H34.9445H34.9656H34.9871H35.009H35.0313H35.054H35.0771H35.1005H35.1244H35.1486H35.1732H35.1982H35.2236H35.2493H35.2754H35.3019H35.3288H35.3561H35.3837H35.4117H35.4401H35.4688H35.4979H35.5273H35.5571H35.5873H35.6178H35.6487H35.68H35.7116H35.7435H35.7758H35.8085H35.8415H35.8748H35.9085H35.9425H35.9769H36.0116H36.0467H36.082H36.1178H36.1538H36.1902H36.2269H36.2639H36.3013H36.339H36.377H36.4154H36.454H36.493H36.5323H36.5719H36.6118H36.652H36.6926H36.7334H36.7746H36.8161H36.8579H36.8999H36.9423H36.985H37.028H37.0712H37.1148H37.1587H37.2028H37.2473H37.292H37.337H37.3823H37.4279H37.4738H37.52H37.5664H37.6131H37.6601H37.7074H37.7549H37.8027H37.8508H37.8991H37.9477H37.9966H38.0458H38.0952H38.1448H38.1947H38.2449H38.2954H38.3461H38.397H38.4482H38.4996H38.5513H38.6033H38.6554H38.7079H38.7605H38.8134H38.8666H38.92H38.9736H39.0274H39.0815H39.1358H39.1904H39.2451H39.3001H39.3553H39.4108H39.4665H39.5223H39.5784H39.6348H39.6913H39.748H39.805H39.8621H39.9195H39.9771H40.0349H40.0929H40.1511H40.2095H40.2681H40.3268H40.3858H40.445H40.5044H40.5639H40.6237H40.6836H40.7438H40.8041H40.8646H40.9252H40.9861H41.0471H41.1083H41.1697H41.2313H41.293H41.3549H41.417H41.4792H41.5416H41.6042H41.6669H41.7298H41.7929H41.8561H41.9195H41.983H42.0467H42.1105H42.1745H42.2386H42.3029H42.3673H42.4318H42.4965H42.5614H42.6264H42.6915H42.7567H42.8221H42.8877H42.9533H43.0191H43.085H43.151H43.2172H43.2835H43.3499H43.4164H43.4831H43.5498H43.6167H43.6837H43.7508H43.818H43.8854H43.9528H44.0203H44.088H44.1557H44.2236H44.2915H44.3596H44.4277H44.4959H44.5643H44.6327H44.7012H44.7698H44.8385H44.9072H44.9761H45.045H45.1141H45.1831H45.2523H45.3216H45.3909H45.4603H45.5298H45.5993H45.6689H45.7386H45.8083H45.8781H45.948H46.0179H46.0879H46.1579H46.228H46.2982H46.3684H46.4386H46.5089H46.5793H46.6497H46.7201H46.7906H46.8611H46.9317H47.0023H47.0729H47.1436H47.2143H47.285H47.3558H47.4266H47.4974H47.5682H47.6391H47.71H47.7809H47.8519H47.9228H47.9938H48.0648H48.1357H48.2067H48.2778H48.3488H48.4198H48.4909H48.5619H48.6329H48.704H48.775H48.846H48.9171H48.9881H49.0591H49.1301H49.2011H49.2721H49.3431H49.414H49.485H49.5559H49.6268H49.6977H49.7685H49.8394H49.9102H49.9809H50.0517H50.1224H50.1931H50.2637H50.3343H50.4049H50.4754H50.5459H50.6164H50.6868H50.7572H50.8275H50.8977H50.9679H51.0381H51.1082H51.1783H51.2483H51.3182H51.3881H51.4579H51.5277H51.5974H51.667H51.7365H51.806H51.8755H51.9448H52.0141H52.0833H52.1524H52.2214H52.2904H52.3593H52.4281H52.4968H52.5654H52.6339H52.7024H52.7707H52.839H52.9072H52.9752H53.0432H53.1111H53.1789H53.2465H53.3141H53.3816H53.4489H53.5162H53.5833H53.6503H53.7172H53.784H53.8507H53.9173H53.9837H54.05H54.1162H54.1823H54.2483H54.3141H54.3798H54.4453H54.5108H54.5761H54.6412H54.7062H54.7711H54.8359H54.9005H54.9649H55.0293H55.0934H55.1574H55.2213H55.285H55.3486H55.412H55.4753H55.5384H55.6013H55.6641H55.7267H55.7892H55.8514H55.9136H55.9755H56.0373H56.0989H56.1603H56.2216H56.2827H56.3436H56.4043H56.4649H56.5252H56.5854H56.6454H56.7052H56.7648H56.8243H56.8835H56.9425H57.0014H57.06H57.1185H57.1767H57.2348H57.2926H57.3503H57.4077H57.4649H57.5219H57.5788H57.6353H57.6917H57.7479H57.8038H57.8596H57.9151H57.9703H58.0254H58.0802H58.1348H58.1892H58.2434H58.2973H58.351H58.4044H58.4576H58.5106H58.5634H58.6158H58.6681H58.7201H58.7719H58.8234H58.8747H58.9257H58.9764H59.0269H59.0772H59.1272H59.1769H59.2264H59.2756H59.3246H59.3733H59.4217H59.4698H59.5177H59.5653H59.6127H59.6598H59.7066H59.7531H59.7993H59.8453H59.8909H59.9363H59.9814H60.0262H60.0708H60.115H60.159H60.2026H60.246H60.289H60.3318H60.3743H60.4164H60.4583H60.4999H60.5411H60.5821H60.6227H60.663H60.703H60.7427H60.7821H60.8212H60.8599H60.8984H60.9365H60.9743H61.0117H61.0489H61.0857H61.1221H61.1583H61.1941C61.4485 36.3643 61.707 36.4734 61.9088 36.6738C62.0957 36.8594 62.2072 37.1255 62.2072 37.4042V37.4399V37.476V37.5125V37.5494V37.5867V37.6244V37.6624V37.7008V37.7396V37.7787V37.8182V37.8581V37.8984V37.939V37.98V38.0214V38.0631V38.1052V38.1476V38.1904V38.2336V38.2771V38.321V38.3652V38.4098V38.4547V38.4999V38.5456V38.5915V38.6378V38.6844V38.7314V38.7787V38.8264V38.8744V38.9227V38.9714V39.0204V39.0697V39.1193V39.1693V39.2196V39.2702V39.3212V39.3724V39.424V39.4759V39.5281V39.5807V39.6335V39.6867V39.7401V39.7939V39.848V39.9024V39.957V40.012V40.0673V40.1229V40.1788V40.235V40.2915V40.3482V40.4053V40.4627V40.5203V40.5782V40.6364V40.6949V40.7537V40.8128V40.8721V40.9317V40.9916V41.0518V41.1123V41.173V41.234V41.2952V41.3567V41.4185V41.4806V41.5429V41.6055V41.6683V41.7314V41.7948V41.8584V41.9222V41.9864V42.0507V42.1153V42.1802V42.2453V42.3107V42.3763V42.4421V42.5082V42.5745V42.6411V42.7078V42.7749V42.8421V42.9096V42.9773V43.0453V43.1135V43.1819V43.2505V43.3193V43.3884V43.4577V43.5272V43.5969V43.6668V43.737V43.8073V43.8779V43.9487V44.0197V44.0908V44.1622V44.2338V44.3056V44.3776V44.4498V44.5222V44.5948V44.6676V44.7405V44.8137V44.887V44.9606V45.0343V45.1082V45.1823V45.2566V45.331V45.4056V45.4804V45.5554V45.6306V45.7059V45.7814V45.8571V45.9329V46.0089V46.0851V46.1614V46.2379V46.3145V46.3913V46.4683V46.5454V46.6227V46.7001V46.7777V46.8554V46.9333V47.0113V47.0895V47.1678V47.2463V47.3249V47.4036V47.4825V47.5615V47.6406V47.7199V47.7993V47.8788V47.9585V48.0383V48.1182V48.1982V48.2784V48.3587V48.4391V48.5196V48.6002V48.681V48.7619V48.8428V48.9239V49.0051V49.0864V49.1678V49.2493V49.3309V49.4127V49.4945V49.5764V49.6584V49.7405V49.8227V49.905V49.9874V50.0699V50.1524V50.2351V50.3178V50.4006V50.4835V50.5665V50.6495V50.7326V50.8159V50.8991V50.9825V51.0659V51.1494V51.233V51.3166V51.4003V51.484V51.5678V51.6517V51.7357V51.8197V51.9037V51.9878V52.072V52.1562V52.2404V52.3247V52.4091V52.4935V52.5779V52.6624V52.7469V52.8315V52.9161V53.0007V53.0854V53.1701V53.2548V53.3396V53.4244V53.5092V53.5941V53.6789V53.7638V53.8488V53.9337V54.0186V54.1036V54.1886V54.2736V54.3586V54.4436V54.5287V54.6137V54.6987V54.7838V54.8688V54.9539V55.0389V55.124V55.209V55.2941V55.3791V55.4642V55.5492V55.6342V55.7192V55.8042V55.8891V55.9741V56.059V56.1439V56.2288V56.3137V56.3985V56.4834V56.5682V56.6529V56.7376V56.8224V56.907V56.9917V57.0762V57.1608V57.2453V57.3298V57.4142V57.4986V57.583V57.6673V57.7515V57.8357V57.9199V58.004V58.088V58.172V58.2559V58.3398V58.4236V58.5074V58.5911V58.6747V58.7582V58.8417V58.9251V59.0085V59.0917V59.1749V59.2581V59.3411V59.4241V59.5069V59.5898V59.6725V59.7551V59.8377V59.9201V60.0025V60.0848V60.167V60.2491V60.3311V60.413V60.4948V60.5765V60.6581V60.7396V60.821V60.9023V60.9834V61.0645V61.1455V61.2263V61.3071V61.3877V61.4682V61.5486V61.6289V61.709V61.789V61.8689V61.9487V62.0284V62.1079V62.1873V62.2665V62.3457V62.4247V62.5035V62.5822V62.6608V62.7392V62.8175V62.8957V62.9737V63.0516V63.1293V63.2068V63.2842V63.3615V63.4386V63.5155V63.5923V63.669V63.7454V63.8218V63.8979V63.9739V64.0497V64.1253V64.2008V64.2761V64.3513V64.4262V64.501V64.5756V64.6501V64.7243V64.7984V64.8723V64.946V65.0195V65.0928V65.1659V65.2389V65.3116V65.3842V65.4566V65.5288V65.6007V65.6725V65.7441V65.8154V65.8866V65.9576V66.0283V66.0989V66.1692V66.2393V66.3092V66.3789V66.4484V66.5177V66.5867V66.6555V66.7241V66.7925V66.8606V66.9286V66.9963V67.0637V67.131V67.198V67.2647V67.3312V67.3975V67.4636V67.5294V67.595V67.6603V67.7254V67.7902V67.8548V67.9192V67.9832V68.0471V68.1107V68.174V68.2371V68.2999V68.3624V68.4247V68.4867V68.5485V68.61V68.6712V68.7322V68.7929V68.8533V68.9134V68.9733V69.0329V69.0922V69.1512V69.21V69.2684V69.3266V69.3845V69.4421V69.4994V69.5565V69.6132V69.6697V69.7258V69.7817V69.8372V69.8925V69.9474V70.0021V70.0564V70.1105V70.1642V70.2177V70.2708V70.3236V70.3761V70.4283V70.4801V70.5317V70.5829V70.6338V70.6844V70.7347V70.7846V70.8342V70.8835V70.9324V70.9811V71.0294V71.0773V71.1249V71.1722V71.2192V71.2658V71.312V71.3579V71.4035V71.4487V71.4936V71.5382V71.5823V71.6262V71.6696V71.7128V71.7555V71.7979V71.84V71.8817V71.923V71.9639V72.0045V72.0447V72.0846V72.1241V72.1632V72.2019V72.2403V72.2783V72.3159V72.3531V72.39V72.4264V72.4625V72.4982C62.2072 72.7755 62.0965 73.045 61.9035 73.2411C61.7195 73.4281 61.4597 73.5381 61.1941 73.5381M34.4283 35.7143L33.845 36.0012L33.8449 36.001L33.8447 36.0005L33.8435 35.9981L33.8389 35.9887L33.8209 35.9521L33.7515 35.8112L33.4969 35.2936L32.6589 33.5899C32.0064 32.2629 31.2339 30.6912 30.7539 29.7121C30.5766 29.3579 30.2235 29.1424 29.8512 29.1424L19.0082 29.1424L7.4883 29.1424C6.94021 29.1424 6.47521 29.5999 6.47521 30.1823V30.2231V30.2644V30.3062V30.3484V30.3912V30.4344V30.4781V30.5223V30.5669V30.6121V30.6577V30.7038V30.7503V30.7974V30.8448V30.8928V30.9412V30.9901V31.0394V31.0892V31.1395V31.1902V31.2413V31.2929V31.345V31.3975V31.4504V31.5038V31.5576V31.6119V31.6666V31.7217V31.7773V31.8332V31.8897V31.9465V32.0038V32.0615V32.1196V32.1781V32.237V32.2964V32.3562V32.4163V32.4769V32.5379V32.5993V32.6611V32.7233V32.7859V32.8489V32.9123V32.9761V33.0403V33.1049V33.1698V33.2352V33.3009V33.367V33.4335V33.5004V33.5676V33.6352V33.7032V33.7716V33.8403V33.9094V33.9788V34.0487V34.1188V34.1894V34.2603V34.3315V34.4031V34.4751V34.5474V34.62V34.693V34.7663V34.84V34.914V34.9884V35.0631V35.1381V35.2135V35.2892V35.3652V35.4415V35.5182V35.5951V35.6725V35.7501V35.828V35.9063V35.9848V36.0637V36.1429V36.2224V36.3022V36.3823V36.4627V36.5434V36.6244V36.7056V36.7872V36.8691V36.9513V37.0337V37.1164V37.1995V37.2828V37.3663V37.4502V37.5343V37.6187V37.7034V37.7884V37.8736V37.959V38.0448V38.1308V38.2171V38.3036V38.3904V38.4774V38.5647V38.6522V38.74V38.8281V38.9163V39.0049V39.0936V39.1826V39.2719V39.3613V39.4511V39.541V39.6312V39.7216V39.8122V39.903V39.9941V40.0854V40.1769V40.2686V40.3605V40.4527V40.545V40.6376V40.7304V40.8234V40.9165V41.0099V41.1035V41.1973V41.2912V41.3854V41.4797V41.5743V41.669V41.7639V41.859V41.9543V42.0498V42.1454V42.2412V42.3372V42.4333V42.5297V42.6261V42.7228V42.8196V42.9166V43.0138V43.1111V43.2085V43.3061V43.4039V43.5018V43.5999V43.6981V43.7964V43.8949V43.9936V44.0923V44.1912V44.2903V44.3895V44.4888V44.5882V44.6878V44.7875V44.8873V44.9872V45.0873V45.1875V45.2878V45.3882V45.4887V45.5893V45.69V45.7909V45.8918V45.9929V46.094V46.1953V46.2966V46.3981V46.4996V46.6012V46.7029V46.8047V46.9066V47.0085V47.1106V47.2127V47.3149V47.4172V47.5195V47.6219V47.7244V47.827V47.9296V48.0323V48.135V48.2379V48.3407V48.4436V48.5466V48.6496V48.7527V48.8558V48.959V49.0622V49.1655V49.2688V49.3721V49.4755V49.5789V49.6823V49.7858V49.8893V49.9928V50.0964V50.2V50.3036V50.4072V50.5108V50.6145V50.7181V50.8218V50.9255V51.0292V51.1329V51.2366V51.3403V51.444V51.5477V51.6514V51.7551V51.8587V51.9624V52.0661V52.1697V52.2734V52.377V52.4806V52.5842V52.6877V52.7912V52.8947V52.9982V53.1016V53.2051V53.3084V53.4118V53.5151V53.6183V53.7215V53.8247V53.9278V54.0309V54.1339V54.2369V54.3398V54.4427V54.5455V54.6482V54.7509V54.8536V54.9561V55.0586V55.161V55.2634V55.3656V55.4678V55.57V55.672V55.774V55.8758V55.9776V56.0793V56.181V56.2825V56.3839V56.4853V56.5865V56.6877V56.7887V56.8897V56.9905V57.0912V57.1919V57.2924V57.3928V57.4931V57.5932V57.6933V57.7932V57.8931V57.9927V58.0923V58.1918V58.2911V58.3902V58.4893V58.5882V58.687V58.7856V58.8841V58.9825V59.0807V59.1787V59.2767V59.3744V59.472V59.5695V59.6668V59.7639V59.8609V59.9577V60.0544V60.1509V60.2472V60.3434V60.4393V60.5352V60.6308V60.7262V60.8215V60.9166V61.0115V61.1063V61.2008V61.2952V61.3893V61.4833V61.5771V61.6706V61.764V61.8572V61.9502V62.0429V62.1355V62.2279V62.32V62.4119V62.5037V62.5952V62.6865V62.7775V62.8684V62.959V63.0494V63.1395V63.2295V63.3192V63.4087V63.4979V63.5869V63.6757V63.7642V63.8525V63.9405V64.0283V64.1158V64.2031V64.2902V64.3769V64.4635V64.5497V64.6357V64.7215V64.807V64.8922V64.9771V65.0618V65.1462V65.2304V65.3142V65.3978V65.4811V65.5641V65.6468V65.7293V65.8114V65.8933V65.9749V66.0562V66.1372V66.2179V66.2983V66.3784V66.4582V66.5377V66.6168V66.6957V66.7743V66.8525V66.9305V67.0081V67.0854V67.1624V67.239V67.3154V67.3914V67.4671V67.5424V67.6175V67.6921V67.7665V67.8405V67.9142V67.9875V68.0605V68.1332V68.2055V68.2774V68.349V68.4203V68.4912V68.5617V68.6319V68.7017V68.7712V68.8403V68.909V68.9773V69.0453V69.1129V69.1802V69.247V69.3135V69.3796V69.4454V69.5107V69.5757V69.6402V69.7044V69.7682V69.8316V69.8946V69.9572V70.0194V70.0812V70.1426V70.2036V70.2642V70.3244V70.3842V70.4435V70.5025V70.561V70.6191V70.6768V70.734V70.7909V70.8473V70.9033V70.9588V71.014V71.0687V71.1229V71.1767V71.2301V71.2831V71.3356V71.3876V71.4392V71.4904V71.5411V71.5913V71.6411V71.6904V71.7393V71.7877V71.8357V71.8832V71.9302V71.9768V72.0229V72.0685V72.1136V72.1583V72.2025V72.2462V72.2894V72.3321V72.3744V72.4161V72.4574V72.4982C6.47521 73.0807 6.94021 73.5381 7.4883 73.5381H61.1941M61.1941 73.5381H61.1451M61.1941 73.5381H61.1451M61.1451 73.5381H61.0954M61.1451 73.5381H61.0954M61.0954 73.5381H61.0451M61.0954 73.5381H61.0451M61.0451 73.5381H60.9941M61.0451 73.5381H60.9941M60.9941 73.5381H60.9425M60.9941 73.5381H60.9425M60.9425 73.5381H60.8902M60.9425 73.5381H60.8902M60.8902 73.5381H60.8373M60.8902 73.5381H60.8373M60.8373 73.5381H60.7838M60.8373 73.5381H60.7838M60.7838 73.5381H60.7296M60.7838 73.5381H60.7296M60.7296 73.5381H60.6748M60.7296 73.5381H60.6748M60.6748 73.5381H60.6193M60.6748 73.5381H60.6193M60.6193 73.5381H60.5632M60.6193 73.5381H60.5632M60.5632 73.5381H60.5065M60.5632 73.5381H60.5065M60.5065 73.5381H60.4492M60.5065 73.5381H60.4492M60.4492 73.5381H60.3912M60.4492 73.5381H60.3912M60.3912 73.5381H60.3326M60.3912 73.5381H60.3326M60.3326 73.5381H60.2734M60.3326 73.5381H60.2734M60.2734 73.5381H60.2136M60.2734 73.5381H60.2136M60.2136 73.5381H60.1532M60.2136 73.5381H60.1532M60.1532 73.5381H60.0921M60.1532 73.5381H60.0921M60.0921 73.5381H60.0305M60.0921 73.5381H60.0305M60.0305 73.5381H59.9682M60.0305 73.5381H59.9682M59.9682 73.5381H59.9054M59.9682 73.5381H59.9054M59.9054 73.5381H59.8419M59.9054 73.5381H59.8419M59.8419 73.5381H59.7779M59.8419 73.5381H59.7779M59.7779 73.5381H59.7132M59.7779 73.5381H59.7132M59.7132 73.5381H59.648M59.7132 73.5381H59.648M59.648 73.5381H59.5821M59.648 73.5381H59.5821M59.5821 73.5381H59.5157M59.5821 73.5381H59.5157M59.5157 73.5381H59.4487M59.5157 73.5381H59.4487M59.4487 73.5381H59.3811M59.4487 73.5381H59.3811M59.3811 73.5381H59.313M59.3811 73.5381H59.313M59.313 73.5381H59.2443M59.313 73.5381H59.2443M59.2443 73.5381H59.1749M59.2443 73.5381H59.1749M59.1749 73.5381H59.1051M59.1749 73.5381H59.1051M59.1051 73.5381H59.0346M59.1051 73.5381H59.0346M59.0346 73.5381H58.9636M59.0346 73.5381H58.9636M58.9636 73.5381H58.892M58.9636 73.5381H58.892M58.892 73.5381H58.8199M58.892 73.5381H58.8199M58.8199 73.5381H58.7472M58.8199 73.5381H58.7472M58.7472 73.5381H58.6739M58.7472 73.5381H58.6739M58.6739 73.5381H58.6001M58.6739 73.5381H58.6001M58.6001 73.5381H58.5257M58.6001 73.5381H58.5257M58.5257 73.5381H58.4508M58.5257 73.5381H58.4508M58.4508 73.5381H58.3754M58.4508 73.5381H58.3754M58.3754 73.5381H58.2994M58.3754 73.5381H58.2994M58.2994 73.5381H58.2228M58.2994 73.5381H58.2228M58.2228 73.5381H58.1458M58.2228 73.5381H58.1458M58.1458 73.5381H58.0682M58.1458 73.5381H58.0682M58.0682 73.5381H57.99M58.0682 73.5381H57.99M57.99 73.5381H57.9113M57.99 73.5381H57.9113M57.9113 73.5381H57.8321M57.9113 73.5381H57.8321M57.8321 73.5381H57.7524M57.8321 73.5381H57.7524M57.7524 73.5381H57.6722M57.7524 73.5381H57.6722M57.6722 73.5381H57.5914M57.6722 73.5381H57.5914M57.5914 73.5381H57.5101M57.5914 73.5381H57.5101M57.5101 73.5381H57.4283M57.5101 73.5381H57.4283M57.4283 73.5381H57.346M57.4283 73.5381H57.346M57.346 73.5381H57.2632M57.346 73.5381H57.2632M57.2632 73.5381H57.1798M57.2632 73.5381H57.1798M57.1798 73.5381H57.096M57.1798 73.5381H57.096M57.096 73.5381H57.0117M57.096 73.5381H57.0117M57.0117 73.5381H56.9268M57.0117 73.5381H56.9268M56.9268 73.5381H56.8415M56.9268 73.5381H56.8415M56.8415 73.5381H56.7557M56.8415 73.5381H56.7557M56.7557 73.5381H56.6694M56.7557 73.5381H56.6694M56.6694 73.5381H56.5826M56.6694 73.5381H56.5826M56.5826 73.5381H56.4953M56.5826 73.5381H56.4953M56.4953 73.5381H56.4075M56.4953 73.5381H56.4075M56.4075 73.5381H56.3192M56.4075 73.5381H56.3192M56.3192 73.5381H56.2305M56.3192 73.5381H56.2305M56.2305 73.5381H56.1413M56.2305 73.5381H56.1413M56.1413 73.5381H56.0516M56.1413 73.5381H56.0516M56.0516 73.5381H55.9614M56.0516 73.5381H55.9614M55.9614 73.5381H55.8708M55.9614 73.5381H55.8708M55.8708 73.5381H55.7797M55.8708 73.5381H55.7797M55.7797 73.5381H55.6882M55.7797 73.5381H55.6882M55.6882 73.5381H55.5961M55.6882 73.5381H55.5961M55.5961 73.5381H55.5037M55.5961 73.5381H55.5037M55.5037 73.5381H55.4107M55.5037 73.5381H55.4107M55.4107 73.5381H55.3174M55.4107 73.5381H55.3174M55.3174 73.5381H55.2235M55.3174 73.5381H55.2235M55.2235 73.5381H55.1292M55.2235 73.5381H55.1292M55.1292 73.5381H55.0345M55.1292 73.5381H55.0345M55.0345 73.5381H54.9393M55.0345 73.5381H54.9393M54.9393 73.5381H54.8437M54.9393 73.5381H54.8437M54.8437 73.5381H54.7477M54.8437 73.5381H54.7477M54.7477 73.5381H54.6512M54.7477 73.5381H54.6512M54.6512 73.5381H54.5543M54.6512 73.5381H54.5543M54.5543 73.5381H54.457M54.5543 73.5381H54.457M54.457 73.5381H54.3592M54.457 73.5381H54.3592M54.3592 73.5381H54.261M54.3592 73.5381H54.261M54.261 73.5381H54.1624M54.261 73.5381H54.1624M54.1624 73.5381H54.0633M54.1624 73.5381H54.0633M54.0633 73.5381H53.9639M54.0633 73.5381H53.9639M53.9639 73.5381H53.864M53.9639 73.5381H53.864M53.864 73.5381H53.7637M53.864 73.5381H53.7637M53.7637 73.5381H53.663M53.7637 73.5381H53.663M53.663 73.5381H53.5619M53.663 73.5381H53.5619M53.5619 73.5381H53.4604M53.5619 73.5381H53.4604M53.4604 73.5381H53.3585M53.4604 73.5381H53.3585M53.3585 73.5381H53.2562M53.3585 73.5381H53.2562M53.2562 73.5381H53.1535M53.2562 73.5381H53.1535M53.1535 73.5381H53.0505M53.1535 73.5381H53.0505M53.0505 73.5381H52.947M53.0505 73.5381H52.947M52.947 73.5381H52.8431M52.947 73.5381H52.8431M52.8431 73.5381H52.7388M52.8431 73.5381H52.7388M52.7388 73.5381H52.6342M52.7388 73.5381H52.6342M52.6342 73.5381H52.5292M52.6342 73.5381H52.5292M52.5292 73.5381H52.4238M52.5292 73.5381H52.4238M52.4238 73.5381H52.318M52.4238 73.5381H52.318M52.318 73.5381H52.2119M52.318 73.5381H52.2119M52.2119 73.5381H52.1053M52.2119 73.5381H52.1053M52.1053 73.5381H51.9985M52.1053 73.5381H51.9985M51.9985 73.5381H51.8912M51.9985 73.5381H51.8912M51.8912 73.5381H51.7836M51.8912 73.5381H51.7836M51.7836 73.5381H51.6756M51.7836 73.5381H51.6756M51.6756 73.5381H51.5673M51.6756 73.5381H51.5673M51.5673 73.5381H51.4586M51.5673 73.5381H51.4586M51.4586 73.5381H51.3496M51.4586 73.5381H51.3496M51.3496 73.5381H51.2402M51.3496 73.5381H51.2402M51.2402 73.5381H51.1304M51.2402 73.5381H51.1304M51.1304 73.5381H51.0203M51.1304 73.5381H51.0203M51.0203 73.5381H50.9099M51.0203 73.5381H50.9099M50.9099 73.5381H50.7992M50.9099 73.5381H50.7992M50.7992 73.5381H50.6881M50.7992 73.5381H50.6881M50.6881 73.5381H50.5766M50.6881 73.5381H50.5766M50.5766 73.5381H50.4648M50.5766 73.5381H50.4648M50.4648 73.5381H50.3527M50.4648 73.5381H50.3527M50.3527 73.5381H50.2403M50.3527 73.5381H50.2403M50.2403 73.5381H50.1276M50.2403 73.5381H50.1276M50.1276 73.5381H50.0145M50.1276 73.5381H50.0145M50.0145 73.5381H49.9011M50.0145 73.5381H49.9011M49.9011 73.5381H49.7874M49.9011 73.5381H49.7874M49.7874 73.5381H49.6734M49.7874 73.5381H49.6734M49.6734 73.5381H49.5591M49.6734 73.5381H49.5591M49.5591 73.5381H49.4444M49.5591 73.5381H49.4444M49.4444 73.5381H49.3295M49.4444 73.5381H49.3295M49.3295 73.5381H49.2142M49.3295 73.5381H49.2142M49.2142 73.5381H49.0987M49.2142 73.5381H49.0987M49.0987 73.5381H48.9828M49.0987 73.5381H48.9828M48.9828 73.5381H48.8667M48.9828 73.5381H48.8667M48.8667 73.5381H48.7502M48.8667 73.5381H48.7502M48.7502 73.5381H48.6335M48.7502 73.5381H48.6335M48.6335 73.5381H48.5165M48.6335 73.5381H48.5165M48.5165 73.5381H48.3992M48.5165 73.5381H48.3992M48.3992 73.5381H48.2816M48.3992 73.5381H48.2816M48.2816 73.5381H48.1637M48.2816 73.5381H48.1637M48.1637 73.5381H48.0456M48.1637 73.5381H48.0456M48.0456 73.5381H47.9272M48.0456 73.5381H47.9272M47.9272 73.5381H47.8085M47.9272 73.5381H47.8085M47.8085 73.5381H47.6895M47.8085 73.5381H47.6895M47.6895 73.5381H47.5703M47.6895 73.5381H47.5703M47.5703 73.5381H47.4508M47.5703 73.5381H47.4508M47.4508 73.5381H47.331M47.4508 73.5381H47.331M47.331 73.5381H47.211M47.331 73.5381H47.211M47.211 73.5381H47.0907M47.211 73.5381H47.0907M47.0907 73.5381H46.9702M47.0907 73.5381H46.9702M46.9702 73.5381H46.8494M46.9702 73.5381H46.8494M46.8494 73.5381H46.7284M46.8494 73.5381H46.7284M46.7284 73.5381H46.6071M46.7284 73.5381H46.6071M46.6071 73.5381H46.4856M46.6071 73.5381H46.4856M46.4856 73.5381H46.3638M46.4856 73.5381H46.3638M46.3638 73.5381H46.2418M46.3638 73.5381H46.2418M46.2418 73.5381H46.1195M46.2418 73.5381H46.1195M46.1195 73.5381H45.9971M46.1195 73.5381H45.9971M45.9971 73.5381H45.8744M45.9971 73.5381H45.8744M45.8744 73.5381H45.7514M45.8744 73.5381H45.7514M45.7514 73.5381H45.6283M45.7514 73.5381H45.6283M45.6283 73.5381H45.5049M45.6283 73.5381H45.5049M45.5049 73.5381H45.3813M45.5049 73.5381H45.3813M45.3813 73.5381H45.2574M45.3813 73.5381H45.2574M45.2574 73.5381H45.1334M45.2574 73.5381H45.1334M45.1334 73.5381H45.0091M45.1334 73.5381H45.0091M45.0091 73.5381H44.8847M45.0091 73.5381H44.8847M44.8847 73.5381H44.76M44.8847 73.5381H44.76M44.76 73.5381H44.6351M44.76 73.5381H44.6351M44.6351 73.5381H44.51M44.6351 73.5381H44.51M44.51 73.5381H44.3847M44.51 73.5381H44.3847M44.3847 73.5381H44.2593M44.3847 73.5381H44.2593M44.2593 73.5381H44.1336M44.2593 73.5381H44.1336M44.1336 73.5381H44.0077M44.1336 73.5381H44.0077M44.0077 73.5381H43.8816M44.0077 73.5381H43.8816M43.8816 73.5381H43.7554M43.8816 73.5381H43.7554M43.7554 73.5381H43.629M43.7554 73.5381H43.629M43.629 73.5381H43.5023M43.629 73.5381H43.5023M43.5023 73.5381H43.3755M43.5023 73.5381H43.3755M43.3755 73.5381H43.2486M43.3755 73.5381H43.2486M43.2486 73.5381H43.1214M43.2486 73.5381H43.1214M43.1214 73.5381H42.9941M43.1214 73.5381H42.9941M42.9941 73.5381H42.8666M42.9941 73.5381H42.8666M42.8666 73.5381H42.7389M42.8666 73.5381H42.7389M42.7389 73.5381H42.6111M42.7389 73.5381H42.6111M42.6111 73.5381H42.4831M42.6111 73.5381H42.4831M42.4831 73.5381H42.355M42.4831 73.5381H42.355M42.355 73.5381H42.2267M42.355 73.5381H42.2267M42.2267 73.5381H42.0982M42.2267 73.5381H42.0982M42.0982 73.5381H41.9696M42.0982 73.5381H41.9696M41.9696 73.5381H41.8408M41.9696 73.5381H41.8408M41.8408 73.5381H41.7119M41.8408 73.5381H41.7119M41.7119 73.5381H41.5829M41.7119 73.5381H41.5829M41.5829 73.5381H41.4537M41.5829 73.5381H41.4537M41.4537 73.5381H41.3243M41.4537 73.5381H41.3243M41.3243 73.5381H41.1949M41.3243 73.5381H41.1949M41.1949 73.5381H41.0653M41.1949 73.5381H41.0653M41.0653 73.5381H40.9355M41.0653 73.5381H40.9355M40.9355 73.5381H40.8057M40.9355 73.5381H40.8057M40.8057 73.5381H40.6757M40.8057 73.5381H40.6757M40.6757 73.5381H40.5456M40.6757 73.5381H40.5456M40.5456 73.5381H40.4154M40.5456 73.5381H40.4154M40.4154 73.5381H40.285M40.4154 73.5381H40.285M40.285 73.5381H40.1545M40.285 73.5381H40.1545M40.1545 73.5381H40.024M40.1545 73.5381H40.024M40.024 73.5381H39.8933M40.024 73.5381H39.8933M39.8933 73.5381H39.7625M39.8933 73.5381H39.7625M39.7625 73.5381H39.6316M39.7625 73.5381H39.6316M39.6316 73.5381H39.5006M39.6316 73.5381H39.5006M39.5006 73.5381H39.3695M39.5006 73.5381H39.3695M39.3695 73.5381H39.2383M39.3695 73.5381H39.2383M39.2383 73.5381H39.107M39.2383 73.5381H39.107M39.107 73.5381H38.9756M39.107 73.5381H38.9756M38.9756 73.5381H38.8441M38.9756 73.5381H38.8441M38.8441 73.5381H38.7125M38.8441 73.5381H38.7125M38.7125 73.5381H38.5809M38.7125 73.5381H38.5809M38.5809 73.5381H38.4491M38.5809 73.5381H38.4491M38.4491 73.5381H38.3173M38.4491 73.5381H38.3173M38.3173 73.5381H38.1854M38.3173 73.5381H38.1854M38.1854 73.5381H38.0534M38.1854 73.5381H38.0534M38.0534 73.5381H37.9214M38.0534 73.5381H37.9214M37.9214 73.5381H37.7893M37.9214 73.5381H37.7893M37.7893 73.5381H37.6571M37.7893 73.5381H37.6571M37.6571 73.5381H37.5249M37.6571 73.5381H37.5249M37.5249 73.5381H37.3926M37.5249 73.5381H37.3926M37.3926 73.5381H37.2602M37.3926 73.5381H37.2602M37.2602 73.5381H37.1278M37.2602 73.5381H37.1278M37.1278 73.5381H36.9953M37.1278 73.5381H36.9953M36.9953 73.5381H36.8628M36.9953 73.5381H36.8628M36.8628 73.5381H36.7302M36.8628 73.5381H36.7302M36.7302 73.5381H36.5976M36.7302 73.5381H36.5976M36.5976 73.5381H36.465M36.5976 73.5381H36.465M36.465 73.5381H36.3323M36.465 73.5381H36.3323M36.3323 73.5381H36.1995M36.3323 73.5381H36.1995M36.1995 73.5381H36.0667M36.1995 73.5381H36.0667M36.0667 73.5381H35.9339M36.0667 73.5381H35.9339M35.9339 73.5381H35.8011M35.9339 73.5381H35.8011M35.8011 73.5381H35.6682M35.8011 73.5381H35.6682M35.6682 73.5381H35.5353M35.6682 73.5381H35.5353M35.5353 73.5381H35.4024M35.5353 73.5381H35.4024M35.4024 73.5381H35.2695M35.4024 73.5381H35.2695M35.2695 73.5381H35.1365M35.2695 73.5381H35.1365M35.1365 73.5381H35.0035M35.1365 73.5381H35.0035M35.0035 73.5381H34.8706M35.0035 73.5381H34.8706M34.8706 73.5381H34.7376M34.8706 73.5381H34.7376M34.7376 73.5381H34.6046M34.7376 73.5381H34.6046M34.6046 73.5381H34.4715M34.6046 73.5381H34.4715M34.4715 73.5381H34.3385M34.4715 73.5381H34.3385M34.3385 73.5381H34.2055M34.3385 73.5381H34.2055M34.2055 73.5381H34.0725M34.2055 73.5381H34.0725M34.0725 73.5381H33.9395M34.0725 73.5381H33.9395M33.9395 73.5381H33.8065M33.9395 73.5381H33.8065M33.8065 73.5381H33.6735M33.8065 73.5381H33.6735M33.6735 73.5381H33.5406M33.6735 73.5381H33.5406M33.5406 73.5381H33.4076M33.5406 73.5381H33.4076M33.4076 73.5381H33.2747M33.4076 73.5381H33.2747M33.2747 73.5381H33.1418M33.2747 73.5381H33.1418M33.1418 73.5381H33.0089M33.1418 73.5381H33.0089M33.0089 73.5381H32.876M33.0089 73.5381H32.876M32.876 73.5381H32.7432M32.876 73.5381H32.7432M32.7432 73.5381H32.6103M32.7432 73.5381H32.6103M32.6103 73.5381H32.4776M32.6103 73.5381H32.4776M32.4776 73.5381H32.3448M32.4776 73.5381H32.3448M32.3448 73.5381H32.2121M32.3448 73.5381H32.2121M32.2121 73.5381H32.0795M32.2121 73.5381H32.0795M32.0795 73.5381H31.9469M32.0795 73.5381H31.9469M31.9469 73.5381H31.8143M31.9469 73.5381H31.8143M31.8143 73.5381H31.6818M31.8143 73.5381H31.6818M31.6818 73.5381H31.5493M31.6818 73.5381H31.5493M31.5493 73.5381H31.4169M31.5493 73.5381H31.4169M31.4169 73.5381H31.2845M31.4169 73.5381H31.2845M31.2845 73.5381H31.1522M31.2845 73.5381H31.1522M31.1522 73.5381H31.02M31.1522 73.5381H31.02M31.02 73.5381H30.8878M31.02 73.5381H30.8878M30.8878 73.5381H30.7557M30.8878 73.5381H30.7557M30.7557 73.5381H30.6237M30.7557 73.5381H30.6237M30.6237 73.5381H30.4917M30.6237 73.5381H30.4917M30.4917 73.5381H30.3598M30.4917 73.5381H30.3598M30.3598 73.5381H30.228M30.3598 73.5381H30.228M30.228 73.5381H30.0963M30.228 73.5381H30.0963M30.0963 73.5381H29.9646M30.0963 73.5381H29.9646M29.9646 73.5381H29.8331M29.9646 73.5381H29.8331M29.8331 73.5381H29.7016M29.8331 73.5381H29.7016M29.7016 73.5381H29.5702M29.7016 73.5381H29.5702M29.5702 73.5381H29.4389M29.5702 73.5381H29.4389M29.4389 73.5381H29.3077M29.4389 73.5381H29.3077M29.3077 73.5381H29.1766M29.3077 73.5381H29.1766M29.1766 73.5381H29.0456M29.1766 73.5381H29.0456M29.0456 73.5381H28.9147M29.0456 73.5381H28.9147M28.9147 73.5381H28.7839M28.9147 73.5381H28.7839M28.7839 73.5381H28.6533M28.7839 73.5381H28.6533M28.6533 73.5381H28.5227M28.6533 73.5381H28.5227M28.5227 73.5381H28.3922M28.5227 73.5381H28.3922M28.3922 73.5381H28.2619M28.3922 73.5381H28.2619M28.2619 73.5381H28.1317M28.2619 73.5381H28.1317M28.1317 73.5381H28.0016M28.1317 73.5381H28.0016M28.0016 73.5381H27.8716M28.0016 73.5381H27.8716M27.8716 73.5381H27.7417M27.8716 73.5381H27.7417M27.7417 73.5381H27.612M27.7417 73.5381H27.612M27.612 73.5381H27.4824M27.612 73.5381H27.4824M27.4824 73.5381H27.3529M27.4824 73.5381H27.3529M27.3529 73.5381H27.2236M27.3529 73.5381H27.2236M27.2236 73.5381H27.0944M27.2236 73.5381H27.0944M27.0944 73.5381H26.9654M27.0944 73.5381H26.9654M26.9654 73.5381H26.8365M26.9654 73.5381H26.8365M26.8365 73.5381H26.7078M26.8365 73.5381H26.7078M26.7078 73.5381H26.5792M26.7078 73.5381H26.5792M26.5792 73.5381H26.4507M26.5792 73.5381H26.4507M26.4507 73.5381H26.3224M26.4507 73.5381H26.3224M26.3224 73.5381H26.1943M26.3224 73.5381H26.1943M26.1943 73.5381H26.0663M26.1943 73.5381H26.0663M26.0663 73.5381H25.9385M26.0663 73.5381H25.9385M25.9385 73.5381H25.8108M25.9385 73.5381H25.8108M25.8108 73.5381H25.6833M25.8108 73.5381H25.6833M25.6833 73.5381H25.556M25.6833 73.5381H25.556M25.556 73.5381H25.4289M25.556 73.5381H25.4289M25.4289 73.5381H25.3019M25.4289 73.5381H25.3019M25.3019 73.5381H25.1751M25.3019 73.5381H25.1751M25.1751 73.5381H25.0485M25.1751 73.5381H25.0485M25.0485 73.5381H24.9221M25.0485 73.5381H24.9221M24.9221 73.5381H24.7959M24.9221 73.5381H24.7959M24.7959 73.5381H24.6698M24.7959 73.5381H24.6698M24.6698 73.5381H24.5439M24.6698 73.5381H24.5439M24.5439 73.5381H24.4183M24.5439 73.5381H24.4183M24.4183 73.5381H24.2928M24.4183 73.5381H24.2928M24.2928 73.5381H24.1675M24.2928 73.5381H24.1675M24.1675 73.5381H24.0425M24.1675 73.5381H24.0425M24.0425 73.5381H23.9176M24.0425 73.5381H23.9176M23.9176 73.5381H23.7929M23.9176 73.5381H23.7929M23.7929 73.5381H23.6685M23.7929 73.5381H23.6685M23.6685 73.5381H23.5442M23.6685 73.5381H23.5442M23.5442 73.5381H23.4202M23.5442 73.5381H23.4202M23.4202 73.5381H23.2964M23.4202 73.5381H23.2964M23.2964 73.5381H23.1728M23.2964 73.5381H23.1728M23.1728 73.5381H23.0494M23.1728 73.5381H23.0494M23.0494 73.5381H22.9263M23.0494 73.5381H22.9263M22.9263 73.5381H22.8033M22.9263 73.5381H22.8033M22.8033 73.5381H22.6807M22.8033 73.5381H22.6807M22.6807 73.5381H22.5582M22.6807 73.5381H22.5582M22.5582 73.5381H22.436M22.5582 73.5381H22.436M22.436 73.5381H22.314M22.436 73.5381H22.314M22.314 73.5381H22.1922M22.314 73.5381H22.1922M22.1922 73.5381H22.0707M22.1922 73.5381H22.0707M22.0707 73.5381H21.9494M22.0707 73.5381H21.9494M21.9494 73.5381H21.8284M21.9494 73.5381H21.8284M21.8284 73.5381H21.7077M21.8284 73.5381H21.7077M21.7077 73.5381H21.5871M21.7077 73.5381H21.5871M21.5871 73.5381H21.4669M21.5871 73.5381H21.4669M21.4669 73.5381H21.3469M21.4669 73.5381H21.3469M21.3469 73.5381H21.2271M21.3469 73.5381H21.2271M21.2271 73.5381H21.1077M21.2271 73.5381H21.1077M21.1077 73.5381H20.9884M21.1077 73.5381H20.9884M20.9884 73.5381H20.8695M20.9884 73.5381H20.8695M20.8695 73.5381H20.7508M20.8695 73.5381H20.7508M20.7508 73.5381H20.6324M20.7508 73.5381H20.6324M20.6324 73.5381H20.5143M20.6324 73.5381H20.5143M20.5143 73.5381H20.3964M20.5143 73.5381H20.3964M20.3964 73.5381H20.2789M20.3964 73.5381H20.2789M20.2789 73.5381H20.1616M20.2789 73.5381H20.1616M20.1616 73.5381H20.0446M20.1616 73.5381H20.0446M20.0446 73.5381H19.9279M20.0446 73.5381H19.9279M19.9279 73.5381H19.8115M19.9279 73.5381H19.8115M19.8115 73.5381H19.6953M19.8115 73.5381H19.6953M19.6953 73.5381H19.5795M19.6953 73.5381H19.5795M19.5795 73.5381H19.464M19.5795 73.5381H19.464M19.464 73.5381H19.3487M19.464 73.5381H19.3487M19.3487 73.5381H19.2338M19.3487 73.5381H19.2338M19.2338 73.5381H19.1192M19.2338 73.5381H19.1192M19.1192 73.5381H19.0049M19.1192 73.5381H19.0049M19.0049 73.5381H18.8909M19.0049 73.5381H18.8909M18.8909 73.5381H18.7772M18.8909 73.5381H18.7772M18.7772 73.5381H18.6638M18.7772 73.5381H18.6638M18.6638 73.5381H18.5508M18.6638 73.5381H18.5508M18.5508 73.5381H18.438M18.5508 73.5381H18.438M18.438 73.5381H18.3256M18.438 73.5381H18.3256M18.3256 73.5381H18.2136M18.3256 73.5381H18.2136M18.2136 73.5381H18.1018M18.2136 73.5381H18.1018M18.1018 73.5381H17.9904M18.1018 73.5381H17.9904M17.9904 73.5381H17.8793M17.9904 73.5381H17.8793M17.8793 73.5381H17.7686M17.8793 73.5381H17.7686M17.7686 73.5381H17.6582M17.7686 73.5381H17.6582M17.6582 73.5381H17.5481M17.6582 73.5381H17.5481M17.5481 73.5381H17.4384M17.5481 73.5381H17.4384M17.4384 73.5381H17.329M17.4384 73.5381H17.329M17.329 73.5381H17.22M17.329 73.5381H17.22M17.22 73.5381H17.1113M17.22 73.5381H17.1113M17.1113 73.5381H17.003M17.1113 73.5381H17.003M17.003 73.5381H16.8951M17.003 73.5381H16.8951M16.8951 73.5381H16.7875M16.8951 73.5381H16.7875M16.7875 73.5381H16.6802M16.7875 73.5381H16.6802M16.6802 73.5381H16.5734M16.6802 73.5381H16.5734M16.5734 73.5381H16.4669M16.5734 73.5381H16.4669M16.4669 73.5381H16.3608M16.4669 73.5381H16.3608M16.3608 73.5381H16.255M16.3608 73.5381H16.255M16.255 73.5381H16.1496M16.255 73.5381H16.1496M16.1496 73.5381H16.0446M16.1496 73.5381H16.0446M16.0446 73.5381H15.94M16.0446 73.5381H15.94M15.94 73.5381H15.8358M15.94 73.5381H15.8358M15.8358 73.5381H15.7319M15.8358 73.5381H15.7319M15.7319 73.5381H15.6285M15.7319 73.5381H15.6285M15.6285 73.5381H15.5254M15.6285 73.5381H15.5254M15.5254 73.5381H15.4228M15.5254 73.5381H15.4228M15.4228 73.5381H15.3205M15.4228 73.5381H15.3205M15.3205 73.5381H15.2186M15.3205 73.5381H15.2186M15.2186 73.5381H15.1171M15.2186 73.5381H15.1171M15.1171 73.5381H15.0161M15.1171 73.5381H15.0161M15.0161 73.5381H14.9154M15.0161 73.5381H14.9154M14.9154 73.5381H14.8151M14.9154 73.5381H14.8151M14.8151 73.5381H14.7153M14.8151 73.5381H14.7153M14.7153 73.5381H14.6159M14.7153 73.5381H14.6159M14.6159 73.5381H14.5169M14.6159 73.5381H14.5169M14.5169 73.5381H14.4183M14.5169 73.5381H14.4183M14.4183 73.5381H14.3201M14.4183 73.5381H14.3201M14.3201 73.5381H14.2224M14.3201 73.5381H14.2224M14.2224 73.5381H14.125M14.2224 73.5381H14.125M14.125 73.5381H14.0282M14.125 73.5381H14.0282M14.0282 73.5381H13.9317M14.0282 73.5381H13.9317M13.9317 73.5381H13.8357M13.9317 73.5381H13.8357M13.8357 73.5381H13.7401M13.8357 73.5381H13.7401M13.7401 73.5381H13.645M13.7401 73.5381H13.645M13.645 73.5381H13.5503M13.645 73.5381H13.5503M13.5503 73.5381H13.456M13.5503 73.5381H13.456M13.456 73.5381H13.3622M13.456 73.5381H13.3622M13.3622 73.5381H13.2688M13.3622 73.5381H13.2688M13.2688 73.5381H13.1759M13.2688 73.5381H13.1759M13.1759 73.5381H13.0835M13.1759 73.5381H13.0835M13.0835 73.5381H12.9915M13.0835 73.5381H12.9915M12.9915 73.5381H12.9M12.9915 73.5381H12.9M12.9 73.5381H12.8089M12.9 73.5381H12.8089M12.8089 73.5381H12.7183M12.8089 73.5381H12.7183M12.7183 73.5381H12.6282M12.7183 73.5381H12.6282M12.6282 73.5381H12.5385M12.6282 73.5381H12.5385M12.5385 73.5381H12.4494H12.5385Z" fill="#FFC382" stroke="#3C3C3C" stroke-width="1.3" stroke-miterlimit="1.5" stroke-linecap="square"/>
<path d="M20.2188 52.5226C28.1494 60.2259 40.7134 60.2259 48.6441 52.5226" stroke="#3C3C3C" stroke-width="1.3" stroke-miterlimit="1.5" stroke-linecap="round"/>
<path d="M11.4282 5.71423V6.78852C11.4282 9.35233 13.5043 11.4285 16.0682 11.4285H17.1424H16.0682C13.5043 11.4285 11.4282 13.5085 11.4282 16.0685V17.1428V16.0685C11.4282 13.5047 9.35197 11.4285 6.78816 11.4285H5.71387H6.78816C9.35197 11.4285 11.4282 9.35233 11.4282 6.78852V5.71423Z" fill="#76B82A" stroke="#3C3C3C" stroke-width="1.3" stroke-miterlimit="1.5" stroke-linejoin="bevel"/>
<path d="M22.8571 14.2858V14.8229C22.8571 16.1048 23.8952 17.1429 25.1771 17.1429H25.7143H25.1771C23.8952 17.1429 22.8571 18.1829 22.8571 19.4629V20.0001V19.4629C22.8571 18.181 21.819 17.1429 20.5371 17.1429H20H20.5371C21.819 17.1429 22.8571 16.1048 22.8571 14.8229V14.2858Z" stroke="#3C3C3C" stroke-width="1.3" stroke-miterlimit="1.5" stroke-linejoin="bevel"/>
</svg>
