<svg width="78" height="10" viewBox="0 0 78 10" xmlns="http://www.w3.org/2000/svg"><g fill="none"><path d="M73.767 0a4.222 4.222 0 0 0-3.174 1.433 4.233 4.233 0 0 0-7.407 2.8v5.442h2.116V4.232l.002-.073a2.116 2.116 0 0 1 4.23.073v5.441h2.117v-5.44l.001-.073a2.116 2.116 0 0 1 4.232.073v5.441H78V4.233A4.233 4.233 0 0 0 73.767 0M56.233 7.558a2.72 2.72 0 1 1 0-5.441 2.72 2.72 0 0 1 0 5.441m0-7.558a4.837 4.837 0 1 0 0 9.674 4.837 4.837 0 0 0 0-9.674M45.958 2.116a2.71 2.71 0 0 1 1.971.85l1.497-1.497A4.82 4.82 0 0 0 45.958 0a4.837 4.837 0 0 0 0 9.674 4.82 4.82 0 0 0 3.468-1.469l-1.497-1.497a2.71 2.71 0 0 1-1.971.85 2.72 2.72 0 1 1 0-5.442" fill="#3C3C3C"/><path d="M37.186 6.047a1.814 1.814 0 1 1 0 3.628 1.814 1.814 0 0 1 0-3.628" fill="#76B82A"/><path d="M25.852 3.93a2.722 2.722 0 0 1 5.133 0h-5.133zm7.404.907a4.837 4.837 0 1 0-.416 1.965H30.3a2.722 2.722 0 0 1-4.496-1.21l7.393.001a4.87 4.87 0 0 0 .059-.756zM16.628 0a4.837 4.837 0 0 0-4.837 4.837v4.837h2.116V4.837l.001-.08a2.72 2.72 0 0 1 5.44.08v4h.001v.837h2.116V4.742A4.837 4.837 0 0 0 16.627 0M4.837 7.558a2.72 2.72 0 1 1 0-5.441 2.72 2.72 0 0 1 0 5.441m0-7.558a4.837 4.837 0 1 0 0 9.675 4.837 4.837 0 0 0 0-9.675" fill="#3C3C3C"/></g></svg>