<svg width="446" height="450" viewBox="0 0 446 450" fill="none" xmlns="http://www.w3.org/2000/svg">
<g clip-path="url(#clip0_663_2115)">
<rect x="1.15" y="77.65" width="260.7" height="282.7" fill="white" stroke="#3C3C3C" stroke-width="1.3"/>
<path d="M34.868 111.6H38.288C39.176 111.6 39.96 111.78 40.64 112.14C41.32 112.492 41.848 112.988 42.224 113.628C42.6 114.26 42.788 114.984 42.788 115.8C42.788 116.616 42.6 117.344 42.224 117.984C41.848 118.616 41.32 119.112 40.64 119.472C39.96 119.824 39.176 120 38.288 120H34.868V111.6ZM38.24 119.232C38.976 119.232 39.62 119.088 40.172 118.8C40.724 118.504 41.152 118.1 41.456 117.588C41.76 117.068 41.912 116.472 41.912 115.8C41.912 115.128 41.76 114.536 41.456 114.024C41.152 113.504 40.724 113.1 40.172 112.812C39.62 112.516 38.976 112.368 38.24 112.368H35.756V119.232H38.24ZM50.2981 117.108H45.0181C45.0661 117.764 45.3181 118.296 45.7741 118.704C46.2301 119.104 46.8061 119.304 47.5021 119.304C47.8941 119.304 48.2541 119.236 48.5821 119.1C48.9101 118.956 49.1941 118.748 49.4341 118.476L49.9141 119.028C49.6341 119.364 49.2821 119.62 48.8581 119.796C48.4421 119.972 47.9821 120.06 47.4781 120.06C46.8301 120.06 46.2541 119.924 45.7501 119.652C45.2541 119.372 44.8661 118.988 44.5861 118.5C44.3061 118.012 44.1661 117.46 44.1661 116.844C44.1661 116.228 44.2981 115.676 44.5621 115.188C44.8341 114.7 45.2021 114.32 45.6661 114.048C46.1381 113.776 46.6661 113.64 47.2501 113.64C47.8341 113.64 48.3581 113.776 48.8221 114.048C49.2861 114.32 49.6501 114.7 49.9141 115.188C50.1781 115.668 50.3101 116.22 50.3101 116.844L50.2981 117.108ZM47.2501 114.372C46.6421 114.372 46.1301 114.568 45.7141 114.96C45.3061 115.344 45.0741 115.848 45.0181 116.472H49.4941C49.4381 115.848 49.2021 115.344 48.7861 114.96C48.3781 114.568 47.8661 114.372 47.2501 114.372ZM52.2442 111.096H53.0962V120H52.2442V111.096ZM55.6669 113.688H56.5189V120H55.6669V113.688ZM56.0989 112.308C55.9229 112.308 55.7749 112.248 55.6549 112.128C55.5349 112.008 55.4749 111.864 55.4749 111.696C55.4749 111.536 55.5349 111.396 55.6549 111.276C55.7749 111.156 55.9229 111.096 56.0989 111.096C56.2749 111.096 56.4229 111.156 56.5429 111.276C56.6629 111.388 56.7229 111.524 56.7229 111.684C56.7229 111.86 56.6629 112.008 56.5429 112.128C56.4229 112.248 56.2749 112.308 56.0989 112.308ZM64.3936 113.688L61.5856 120H60.7096L57.9136 113.688H58.8016L61.1656 119.064L63.5536 113.688H64.3936ZM71.1137 117.108H65.8337C65.8817 117.764 66.1337 118.296 66.5897 118.704C67.0457 119.104 67.6217 119.304 68.3177 119.304C68.7097 119.304 69.0697 119.236 69.3977 119.1C69.7257 118.956 70.0097 118.748 70.2497 118.476L70.7297 119.028C70.4497 119.364 70.0977 119.62 69.6737 119.796C69.2577 119.972 68.7977 120.06 68.2937 120.06C67.6457 120.06 67.0697 119.924 66.5657 119.652C66.0697 119.372 65.6817 118.988 65.4017 118.5C65.1217 118.012 64.9817 117.46 64.9817 116.844C64.9817 116.228 65.1137 115.676 65.3777 115.188C65.6497 114.7 66.0177 114.32 66.4817 114.048C66.9537 113.776 67.4817 113.64 68.0657 113.64C68.6497 113.64 69.1737 113.776 69.6377 114.048C70.1017 114.32 70.4657 114.7 70.7297 115.188C70.9937 115.668 71.1257 116.22 71.1257 116.844L71.1137 117.108ZM68.0657 114.372C67.4577 114.372 66.9457 114.568 66.5297 114.96C66.1217 115.344 65.8897 115.848 65.8337 116.472H70.3097C70.2537 115.848 70.0177 115.344 69.6017 114.96C69.1937 114.568 68.6817 114.372 68.0657 114.372ZM73.8759 114.924C74.0759 114.5 74.3719 114.18 74.7639 113.964C75.1639 113.748 75.6559 113.64 76.2399 113.64V114.468L76.0359 114.456C75.3719 114.456 74.8519 114.66 74.4759 115.068C74.0999 115.476 73.9119 116.048 73.9119 116.784V120H73.0599V113.688H73.8759V114.924ZM83.5561 113.688L80.4001 120.756C80.1441 121.348 79.8481 121.768 79.5121 122.016C79.1761 122.264 78.7721 122.388 78.3001 122.388C77.9961 122.388 77.7121 122.34 77.4481 122.244C77.1841 122.148 76.9561 122.004 76.7641 121.812L77.1601 121.176C77.4801 121.496 77.8641 121.656 78.3121 121.656C78.6001 121.656 78.8441 121.576 79.0441 121.416C79.2521 121.256 79.4441 120.984 79.6201 120.6L79.8961 119.988L77.0761 113.688H77.9641L80.3401 119.052L82.7161 113.688H83.5561ZM96.1686 113.64C96.9606 113.64 97.5806 113.868 98.0286 114.324C98.4846 114.78 98.7126 115.452 98.7126 116.34V120H97.8606V116.424C97.8606 115.768 97.7006 115.268 97.3806 114.924C97.0686 114.58 96.6246 114.408 96.0486 114.408C95.3926 114.408 94.8766 114.612 94.5006 115.02C94.1246 115.42 93.9366 115.976 93.9366 116.688V120H93.0846V116.424C93.0846 115.768 92.9246 115.268 92.6046 114.924C92.2926 114.58 91.8446 114.408 91.2606 114.408C90.6126 114.408 90.0966 114.612 89.7126 115.02C89.3366 115.42 89.1486 115.976 89.1486 116.688V120H88.2966V113.688H89.1126V114.84C89.3366 114.456 89.6486 114.16 90.0486 113.952C90.4486 113.744 90.9086 113.64 91.4286 113.64C91.9566 113.64 92.4126 113.752 92.7966 113.976C93.1886 114.2 93.4806 114.532 93.6726 114.972C93.9046 114.556 94.2366 114.232 94.6686 114C95.1086 113.76 95.6086 113.64 96.1686 113.64ZM106.743 117.108H101.463C101.511 117.764 101.763 118.296 102.219 118.704C102.675 119.104 103.251 119.304 103.947 119.304C104.339 119.304 104.699 119.236 105.027 119.1C105.355 118.956 105.639 118.748 105.879 118.476L106.359 119.028C106.079 119.364 105.727 119.62 105.303 119.796C104.887 119.972 104.427 120.06 103.923 120.06C103.275 120.06 102.699 119.924 102.195 119.652C101.699 119.372 101.311 118.988 101.031 118.5C100.751 118.012 100.611 117.46 100.611 116.844C100.611 116.228 100.743 115.676 101.007 115.188C101.279 114.7 101.647 114.32 102.111 114.048C102.583 113.776 103.111 113.64 103.695 113.64C104.279 113.64 104.803 113.776 105.267 114.048C105.731 114.32 106.095 114.7 106.359 115.188C106.623 115.668 106.755 116.22 106.755 116.844L106.743 117.108ZM103.695 114.372C103.087 114.372 102.575 114.568 102.159 114.96C101.751 115.344 101.519 115.848 101.463 116.472H105.939C105.883 115.848 105.647 115.344 105.231 114.96C104.823 114.568 104.311 114.372 103.695 114.372ZM112.013 119.616C111.853 119.76 111.653 119.872 111.413 119.952C111.181 120.024 110.937 120.06 110.681 120.06C110.089 120.06 109.633 119.9 109.313 119.58C108.993 119.26 108.833 118.808 108.833 118.224V114.408H107.705V113.688H108.833V112.308H109.685V113.688H111.605V114.408H109.685V118.176C109.685 118.552 109.777 118.84 109.961 119.04C110.153 119.232 110.425 119.328 110.777 119.328C110.953 119.328 111.121 119.3 111.281 119.244C111.449 119.188 111.593 119.108 111.713 119.004L112.013 119.616ZM116.98 113.64C117.772 113.64 118.4 113.872 118.864 114.336C119.336 114.792 119.572 115.46 119.572 116.34V120H118.72V116.424C118.72 115.768 118.556 115.268 118.228 114.924C117.9 114.58 117.432 114.408 116.824 114.408C116.144 114.408 115.604 114.612 115.204 115.02C114.812 115.42 114.616 115.976 114.616 116.688V120H113.764V111.096H114.616V114.792C114.848 114.424 115.168 114.14 115.576 113.94C115.984 113.74 116.452 113.64 116.98 113.64ZM124.688 120.06C124.08 120.06 123.532 119.924 123.044 119.652C122.556 119.372 122.172 118.988 121.892 118.5C121.612 118.012 121.472 117.46 121.472 116.844C121.472 116.228 121.612 115.676 121.892 115.188C122.172 114.7 122.556 114.32 123.044 114.048C123.532 113.776 124.08 113.64 124.688 113.64C125.296 113.64 125.844 113.776 126.332 114.048C126.82 114.32 127.2 114.7 127.472 115.188C127.752 115.676 127.892 116.228 127.892 116.844C127.892 117.46 127.752 118.012 127.472 118.5C127.2 118.988 126.82 119.372 126.332 119.652C125.844 119.924 125.296 120.06 124.688 120.06ZM124.688 119.304C125.136 119.304 125.536 119.204 125.888 119.004C126.248 118.796 126.528 118.504 126.728 118.128C126.928 117.752 127.028 117.324 127.028 116.844C127.028 116.364 126.928 115.936 126.728 115.56C126.528 115.184 126.248 114.896 125.888 114.696C125.536 114.488 125.136 114.384 124.688 114.384C124.24 114.384 123.836 114.488 123.476 114.696C123.124 114.896 122.844 115.184 122.636 115.56C122.436 115.936 122.336 116.364 122.336 116.844C122.336 117.324 122.436 117.752 122.636 118.128C122.844 118.504 123.124 118.796 123.476 119.004C123.836 119.204 124.24 119.304 124.688 119.304ZM135.592 111.096V120H134.776V118.752C134.52 119.176 134.18 119.5 133.756 119.724C133.34 119.948 132.868 120.06 132.34 120.06C131.748 120.06 131.212 119.924 130.732 119.652C130.252 119.38 129.876 119 129.604 118.512C129.332 118.024 129.196 117.468 129.196 116.844C129.196 116.22 129.332 115.664 129.604 115.176C129.876 114.688 130.252 114.312 130.732 114.048C131.212 113.776 131.748 113.64 132.34 113.64C132.852 113.64 133.312 113.748 133.72 113.964C134.136 114.172 134.476 114.48 134.74 114.888V111.096H135.592ZM132.412 119.304C132.852 119.304 133.248 119.204 133.6 119.004C133.96 118.796 134.24 118.504 134.44 118.128C134.648 117.752 134.752 117.324 134.752 116.844C134.752 116.364 134.648 115.936 134.44 115.56C134.24 115.184 133.96 114.896 133.6 114.696C133.248 114.488 132.852 114.384 132.412 114.384C131.964 114.384 131.56 114.488 131.2 114.696C130.848 114.896 130.568 115.184 130.36 115.56C130.16 115.936 130.06 116.364 130.06 116.844C130.06 117.324 130.16 117.752 130.36 118.128C130.568 118.504 130.848 118.796 131.2 119.004C131.56 119.204 131.964 119.304 132.412 119.304Z" fill="#3C3C3C"/>
<path d="M59.61 183.1C59.07 183.1 58.5467 183.023 58.04 182.87C57.54 182.717 57.1433 182.513 56.85 182.26L57.3 181.25C57.5867 181.477 57.9367 181.663 58.35 181.81C58.77 181.95 59.19 182.02 59.61 182.02C60.13 182.02 60.5167 181.937 60.77 181.77C61.03 181.603 61.16 181.383 61.16 181.11C61.16 180.91 61.0867 180.747 60.94 180.62C60.8 180.487 60.62 180.383 60.4 180.31C60.18 180.237 59.88 180.153 59.5 180.06C58.9667 179.933 58.5333 179.807 58.2 179.68C57.8733 179.553 57.59 179.357 57.35 179.09C57.1167 178.817 57 178.45 57 177.99C57 177.603 57.1033 177.253 57.31 176.94C57.5233 176.62 57.84 176.367 58.26 176.18C58.6867 175.993 59.2067 175.9 59.82 175.9C60.2467 175.9 60.6667 175.953 61.08 176.06C61.4933 176.167 61.85 176.32 62.15 176.52L61.74 177.53C61.4333 177.35 61.1133 177.213 60.78 177.12C60.4467 177.027 60.1233 176.98 59.81 176.98C59.2967 176.98 58.9133 177.067 58.66 177.24C58.4133 177.413 58.29 177.643 58.29 177.93C58.29 178.13 58.36 178.293 58.5 178.42C58.6467 178.547 58.83 178.647 59.05 178.72C59.27 178.793 59.57 178.877 59.95 178.97C60.47 179.09 60.8967 179.217 61.23 179.35C61.5633 179.477 61.8467 179.673 62.08 179.94C62.32 180.207 62.44 180.567 62.44 181.02C62.44 181.407 62.3333 181.757 62.12 182.07C61.9133 182.383 61.5967 182.633 61.17 182.82C60.7433 183.007 60.2233 183.1 59.61 183.1ZM67.0191 182.71C66.8724 182.83 66.6924 182.92 66.4791 182.98C66.2724 183.04 66.0524 183.07 65.8191 183.07C65.2324 183.07 64.7791 182.917 64.4591 182.61C64.1391 182.303 63.9791 181.857 63.9791 181.27V178.7H63.0991V177.7H63.9791V176.48H65.2291V177.7H66.6591V178.7H65.2291V181.24C65.2291 181.5 65.2924 181.7 65.4191 181.84C65.5457 181.973 65.7291 182.04 65.9691 182.04C66.2491 182.04 66.4824 181.967 66.6691 181.82L67.0191 182.71ZM70.2873 177.6C71.074 177.6 71.674 177.79 72.0873 178.17C72.5073 178.543 72.7173 179.11 72.7173 179.87V183H71.5373V182.35C71.384 182.583 71.164 182.763 70.8773 182.89C70.5973 183.01 70.2573 183.07 69.8573 183.07C69.4573 183.07 69.1073 183.003 68.8073 182.87C68.5073 182.73 68.274 182.54 68.1073 182.3C67.9473 182.053 67.8673 181.777 67.8673 181.47C67.8673 180.99 68.044 180.607 68.3973 180.32C68.7573 180.027 69.3207 179.88 70.0873 179.88H71.4673V179.8C71.4673 179.427 71.354 179.14 71.1273 178.94C70.9073 178.74 70.5773 178.64 70.1373 178.64C69.8373 178.64 69.5407 178.687 69.2473 178.78C68.9607 178.873 68.7173 179.003 68.5173 179.17L68.0273 178.26C68.3073 178.047 68.644 177.883 69.0373 177.77C69.4307 177.657 69.8473 177.6 70.2873 177.6ZM70.1173 182.16C70.4307 182.16 70.7073 182.09 70.9473 181.95C71.194 181.803 71.3673 181.597 71.4673 181.33V180.71H70.1773C69.4573 180.71 69.0973 180.947 69.0973 181.42C69.0973 181.647 69.1873 181.827 69.3673 181.96C69.5473 182.093 69.7973 182.16 70.1173 182.16ZM77.5516 177.6C78.2249 177.6 78.7649 177.797 79.1716 178.19C79.5782 178.583 79.7816 179.167 79.7816 179.94V183H78.5316V180.1C78.5316 179.633 78.4216 179.283 78.2016 179.05C77.9816 178.81 77.6682 178.69 77.2616 178.69C76.8016 178.69 76.4382 178.83 76.1716 179.11C75.9049 179.383 75.7716 179.78 75.7716 180.3V183H74.5216V177.66H75.7116V178.35C75.9182 178.103 76.1782 177.917 76.4916 177.79C76.8049 177.663 77.1582 177.6 77.5516 177.6ZM86.8461 175.58V183H85.6461V182.31C85.4394 182.563 85.1828 182.753 84.8761 182.88C84.5761 183.007 84.2428 183.07 83.8761 183.07C83.3628 183.07 82.8994 182.957 82.4861 182.73C82.0794 182.503 81.7594 182.183 81.5261 181.77C81.2928 181.35 81.1761 180.87 81.1761 180.33C81.1761 179.79 81.2928 179.313 81.5261 178.9C81.7594 178.487 82.0794 178.167 82.4861 177.94C82.8994 177.713 83.3628 177.6 83.8761 177.6C84.2294 177.6 84.5528 177.66 84.8461 177.78C85.1394 177.9 85.3894 178.08 85.5961 178.32V175.58H86.8461ZM84.0261 182C84.3261 182 84.5961 181.933 84.8361 181.8C85.0761 181.66 85.2661 181.463 85.4061 181.21C85.5461 180.957 85.6161 180.663 85.6161 180.33C85.6161 179.997 85.5461 179.703 85.4061 179.45C85.2661 179.197 85.0761 179.003 84.8361 178.87C84.5961 178.73 84.3261 178.66 84.0261 178.66C83.7261 178.66 83.4561 178.73 83.2161 178.87C82.9761 179.003 82.7861 179.197 82.6461 179.45C82.5061 179.703 82.4361 179.997 82.4361 180.33C82.4361 180.663 82.5061 180.957 82.6461 181.21C82.7861 181.463 82.9761 181.66 83.2161 181.8C83.4561 181.933 83.7261 182 84.0261 182ZM90.7213 177.6C91.508 177.6 92.108 177.79 92.5213 178.17C92.9413 178.543 93.1513 179.11 93.1513 179.87V183H91.9713V182.35C91.818 182.583 91.598 182.763 91.3113 182.89C91.0313 183.01 90.6913 183.07 90.2913 183.07C89.8913 183.07 89.5413 183.003 89.2413 182.87C88.9413 182.73 88.708 182.54 88.5413 182.3C88.3813 182.053 88.3013 181.777 88.3013 181.47C88.3013 180.99 88.478 180.607 88.8313 180.32C89.1913 180.027 89.7547 179.88 90.5213 179.88H91.9013V179.8C91.9013 179.427 91.788 179.14 91.5613 178.94C91.3413 178.74 91.0113 178.64 90.5713 178.64C90.2713 178.64 89.9747 178.687 89.6813 178.78C89.3947 178.873 89.1513 179.003 88.9513 179.17L88.4613 178.26C88.7413 178.047 89.078 177.883 89.4713 177.77C89.8647 177.657 90.2813 177.6 90.7213 177.6ZM90.5513 182.16C90.8647 182.16 91.1413 182.09 91.3813 181.95C91.628 181.803 91.8013 181.597 91.9013 181.33V180.71H90.6113C89.8913 180.71 89.5313 180.947 89.5313 181.42C89.5313 181.647 89.6213 181.827 89.8013 181.96C89.9813 182.093 90.2313 182.16 90.5513 182.16ZM96.1455 178.44C96.5055 177.88 97.1389 177.6 98.0455 177.6V178.79C97.9389 178.77 97.8422 178.76 97.7555 178.76C97.2689 178.76 96.8889 178.903 96.6155 179.19C96.3422 179.47 96.2055 179.877 96.2055 180.41V183H94.9555V177.66H96.1455V178.44ZM104.487 175.58V183H103.287V182.31C103.08 182.563 102.824 182.753 102.517 182.88C102.217 183.007 101.884 183.07 101.517 183.07C101.004 183.07 100.54 182.957 100.127 182.73C99.7204 182.503 99.4004 182.183 99.1671 181.77C98.9338 181.35 98.8171 180.87 98.8171 180.33C98.8171 179.79 98.9338 179.313 99.1671 178.9C99.4004 178.487 99.7204 178.167 100.127 177.94C100.54 177.713 101.004 177.6 101.517 177.6C101.87 177.6 102.194 177.66 102.487 177.78C102.78 177.9 103.03 178.08 103.237 178.32V175.58H104.487ZM101.667 182C101.967 182 102.237 181.933 102.477 181.8C102.717 181.66 102.907 181.463 103.047 181.21C103.187 180.957 103.257 180.663 103.257 180.33C103.257 179.997 103.187 179.703 103.047 179.45C102.907 179.197 102.717 179.003 102.477 178.87C102.237 178.73 101.967 178.66 101.667 178.66C101.367 178.66 101.097 178.73 100.857 178.87C100.617 179.003 100.427 179.197 100.287 179.45C100.147 179.703 100.077 179.997 100.077 180.33C100.077 180.663 100.147 180.957 100.287 181.21C100.427 181.463 100.617 181.66 100.857 181.8C101.097 181.933 101.367 182 101.667 182ZM114.516 175.58V183H113.316V182.31C113.109 182.563 112.853 182.753 112.546 182.88C112.246 183.007 111.913 183.07 111.546 183.07C111.033 183.07 110.569 182.957 110.156 182.73C109.749 182.503 109.429 182.183 109.196 181.77C108.963 181.35 108.846 180.87 108.846 180.33C108.846 179.79 108.963 179.313 109.196 178.9C109.429 178.487 109.749 178.167 110.156 177.94C110.569 177.713 111.033 177.6 111.546 177.6C111.899 177.6 112.223 177.66 112.516 177.78C112.809 177.9 113.059 178.08 113.266 178.32V175.58H114.516ZM111.696 182C111.996 182 112.266 181.933 112.506 181.8C112.746 181.66 112.936 181.463 113.076 181.21C113.216 180.957 113.286 180.663 113.286 180.33C113.286 179.997 113.216 179.703 113.076 179.45C112.936 179.197 112.746 179.003 112.506 178.87C112.266 178.73 111.996 178.66 111.696 178.66C111.396 178.66 111.126 178.73 110.886 178.87C110.646 179.003 110.456 179.197 110.316 179.45C110.176 179.703 110.106 179.997 110.106 180.33C110.106 180.663 110.176 180.957 110.316 181.21C110.456 181.463 110.646 181.66 110.886 181.8C111.126 181.933 111.396 182 111.696 182ZM121.371 180.36C121.371 180.447 121.365 180.57 121.351 180.73H117.161C117.235 181.123 117.425 181.437 117.731 181.67C118.045 181.897 118.431 182.01 118.891 182.01C119.478 182.01 119.961 181.817 120.341 181.43L121.011 182.2C120.771 182.487 120.468 182.703 120.101 182.85C119.735 182.997 119.321 183.07 118.861 183.07C118.275 183.07 117.758 182.953 117.311 182.72C116.865 182.487 116.518 182.163 116.271 181.75C116.031 181.33 115.911 180.857 115.911 180.33C115.911 179.81 116.028 179.343 116.261 178.93C116.501 178.51 116.831 178.183 117.251 177.95C117.671 177.717 118.145 177.6 118.671 177.6C119.191 177.6 119.655 177.717 120.061 177.95C120.475 178.177 120.795 178.5 121.021 178.92C121.255 179.333 121.371 179.813 121.371 180.36ZM118.671 178.6C118.271 178.6 117.931 178.72 117.651 178.96C117.378 179.193 117.211 179.507 117.151 179.9H120.181C120.128 179.513 119.965 179.2 119.691 178.96C119.418 178.72 119.078 178.6 118.671 178.6ZM122.772 175.58H124.022V183H122.772V175.58ZM125.863 177.66H127.113V183H125.863V177.66ZM126.493 176.78C126.266 176.78 126.076 176.71 125.923 176.57C125.769 176.423 125.693 176.243 125.693 176.03C125.693 175.817 125.769 175.64 125.923 175.5C126.076 175.353 126.266 175.28 126.493 175.28C126.719 175.28 126.909 175.35 127.063 175.49C127.216 175.623 127.293 175.793 127.293 176C127.293 176.22 127.216 176.407 127.063 176.56C126.916 176.707 126.726 176.78 126.493 176.78ZM133.953 177.66L131.663 183H130.373L128.083 177.66H129.383L131.043 181.62L132.753 177.66H133.953ZM139.808 180.36C139.808 180.447 139.801 180.57 139.788 180.73H135.598C135.671 181.123 135.861 181.437 136.168 181.67C136.481 181.897 136.868 182.01 137.328 182.01C137.915 182.01 138.398 181.817 138.778 181.43L139.448 182.2C139.208 182.487 138.905 182.703 138.538 182.85C138.171 182.997 137.758 183.07 137.298 183.07C136.711 183.07 136.195 182.953 135.748 182.72C135.301 182.487 134.955 182.163 134.708 181.75C134.468 181.33 134.348 180.857 134.348 180.33C134.348 179.81 134.465 179.343 134.698 178.93C134.938 178.51 135.268 178.183 135.688 177.95C136.108 177.717 136.581 177.6 137.108 177.6C137.628 177.6 138.091 177.717 138.498 177.95C138.911 178.177 139.231 178.5 139.458 178.92C139.691 179.333 139.808 179.813 139.808 180.36ZM137.108 178.6C136.708 178.6 136.368 178.72 136.088 178.96C135.815 179.193 135.648 179.507 135.588 179.9H138.618C138.565 179.513 138.401 179.2 138.128 178.96C137.855 178.72 137.515 178.6 137.108 178.6ZM142.399 178.44C142.759 177.88 143.392 177.6 144.299 177.6V178.79C144.192 178.77 144.095 178.76 144.009 178.76C143.522 178.76 143.142 178.903 142.869 179.19C142.595 179.47 142.459 179.877 142.459 180.41V183H141.209V177.66H142.399V178.44ZM150.754 177.66L148.254 183.43C148.021 184.01 147.738 184.417 147.404 184.65C147.071 184.89 146.668 185.01 146.194 185.01C145.928 185.01 145.664 184.967 145.404 184.88C145.144 184.793 144.931 184.673 144.764 184.52L145.264 183.6C145.384 183.713 145.524 183.803 145.684 183.87C145.851 183.937 146.018 183.97 146.184 183.97C146.404 183.97 146.584 183.913 146.724 183.8C146.871 183.687 147.004 183.497 147.124 183.23L147.214 183.02L144.884 177.66H146.184L147.864 181.61L149.554 177.66H150.754Z" fill="#3C3C3C"/>
<path d="M63.66 205V212H62.59L58.73 207.26V212H57.44V205H58.51L62.37 209.74V205H63.66ZM70.6357 209.36C70.6357 209.447 70.629 209.57 70.6157 209.73H66.4257C66.499 210.123 66.689 210.437 66.9957 210.67C67.309 210.897 67.6957 211.01 68.1557 211.01C68.7424 211.01 69.2257 210.817 69.6057 210.43L70.2757 211.2C70.0357 211.487 69.7324 211.703 69.3657 211.85C68.999 211.997 68.5857 212.07 68.1257 212.07C67.539 212.07 67.0224 211.953 66.5757 211.72C66.129 211.487 65.7824 211.163 65.5357 210.75C65.2957 210.33 65.1757 209.857 65.1757 209.33C65.1757 208.81 65.2924 208.343 65.5257 207.93C65.7657 207.51 66.0957 207.183 66.5157 206.95C66.9357 206.717 67.409 206.6 67.9357 206.6C68.4557 206.6 68.919 206.717 69.3257 206.95C69.739 207.177 70.059 207.5 70.2857 207.92C70.519 208.333 70.6357 208.813 70.6357 209.36ZM67.9357 207.6C67.5357 207.6 67.1957 207.72 66.9157 207.96C66.6424 208.193 66.4757 208.507 66.4157 208.9H69.4457C69.3924 208.513 69.229 208.2 68.9557 207.96C68.6824 207.72 68.3424 207.6 67.9357 207.6ZM75.2899 212L73.9199 210.15L72.5399 212H71.1599L73.2399 209.29L71.2499 206.66H72.6399L73.9499 208.41L75.2599 206.66H76.6099L74.6099 209.27L76.6999 212H75.2899ZM81.0323 211.71C80.8857 211.83 80.7057 211.92 80.4923 211.98C80.2857 212.04 80.0657 212.07 79.8323 212.07C79.2457 212.07 78.7923 211.917 78.4723 211.61C78.1523 211.303 77.9923 210.857 77.9923 210.27V207.7H77.1123V206.7H77.9923V205.48H79.2423V206.7H80.6723V207.7H79.2423V210.24C79.2423 210.5 79.3057 210.7 79.4323 210.84C79.559 210.973 79.7423 211.04 79.9823 211.04C80.2623 211.04 80.4957 210.967 80.6823 210.82L81.0323 211.71ZM81.893 208.7H84.643V209.74H81.893V208.7ZM91.5383 204.58V212H90.3383V211.31C90.1316 211.563 89.8749 211.753 89.5683 211.88C89.2683 212.007 88.9349 212.07 88.5683 212.07C88.0549 212.07 87.5916 211.957 87.1783 211.73C86.7716 211.503 86.4516 211.183 86.2183 210.77C85.9849 210.35 85.8683 209.87 85.8683 209.33C85.8683 208.79 85.9849 208.313 86.2183 207.9C86.4516 207.487 86.7716 207.167 87.1783 206.94C87.5916 206.713 88.0549 206.6 88.5683 206.6C88.9216 206.6 89.2449 206.66 89.5383 206.78C89.8316 206.9 90.0816 207.08 90.2883 207.32V204.58H91.5383ZM88.7183 211C89.0183 211 89.2883 210.933 89.5283 210.8C89.7683 210.66 89.9583 210.463 90.0983 210.21C90.2383 209.957 90.3083 209.663 90.3083 209.33C90.3083 208.997 90.2383 208.703 90.0983 208.45C89.9583 208.197 89.7683 208.003 89.5283 207.87C89.2883 207.73 89.0183 207.66 88.7183 207.66C88.4183 207.66 88.1483 207.73 87.9083 207.87C87.6683 208.003 87.4783 208.197 87.3383 208.45C87.1983 208.703 87.1283 208.997 87.1283 209.33C87.1283 209.663 87.1983 209.957 87.3383 210.21C87.4783 210.463 87.6683 210.66 87.9083 210.8C88.1483 210.933 88.4183 211 88.7183 211ZM95.4135 206.6C96.2002 206.6 96.8002 206.79 97.2135 207.17C97.6335 207.543 97.8435 208.11 97.8435 208.87V212H96.6635V211.35C96.5102 211.583 96.2902 211.763 96.0035 211.89C95.7235 212.01 95.3835 212.07 94.9835 212.07C94.5835 212.07 94.2335 212.003 93.9335 211.87C93.6335 211.73 93.4002 211.54 93.2335 211.3C93.0735 211.053 92.9935 210.777 92.9935 210.47C92.9935 209.99 93.1702 209.607 93.5235 209.32C93.8835 209.027 94.4468 208.88 95.2135 208.88H96.5935V208.8C96.5935 208.427 96.4802 208.14 96.2535 207.94C96.0335 207.74 95.7035 207.64 95.2635 207.64C94.9635 207.64 94.6668 207.687 94.3735 207.78C94.0868 207.873 93.8435 208.003 93.6435 208.17L93.1535 207.26C93.4335 207.047 93.7702 206.883 94.1635 206.77C94.5568 206.657 94.9735 206.6 95.4135 206.6ZM95.2435 211.16C95.5568 211.16 95.8335 211.09 96.0735 210.95C96.3202 210.803 96.4935 210.597 96.5935 210.33V209.71H95.3035C94.5835 209.71 94.2235 209.947 94.2235 210.42C94.2235 210.647 94.3135 210.827 94.4935 210.96C94.6735 211.093 94.9235 211.16 95.2435 211.16ZM104.55 206.66L102.05 212.43C101.817 213.01 101.533 213.417 101.2 213.65C100.867 213.89 100.463 214.01 99.9901 214.01C99.7234 214.01 99.4601 213.967 99.2001 213.88C98.9401 213.793 98.7267 213.673 98.5601 213.52L99.0601 212.6C99.1801 212.713 99.3201 212.803 99.4801 212.87C99.6467 212.937 99.8134 212.97 99.9801 212.97C100.2 212.97 100.38 212.913 100.52 212.8C100.667 212.687 100.8 212.497 100.92 212.23L101.01 212.02L98.6801 206.66H99.9801L101.66 210.61L103.35 206.66H104.55ZM113.725 204.58V212H112.525V211.31C112.318 211.563 112.062 211.753 111.755 211.88C111.455 212.007 111.122 212.07 110.755 212.07C110.242 212.07 109.778 211.957 109.365 211.73C108.958 211.503 108.638 211.183 108.405 210.77C108.172 210.35 108.055 209.87 108.055 209.33C108.055 208.79 108.172 208.313 108.405 207.9C108.638 207.487 108.958 207.167 109.365 206.94C109.778 206.713 110.242 206.6 110.755 206.6C111.108 206.6 111.432 206.66 111.725 206.78C112.018 206.9 112.268 207.08 112.475 207.32V204.58H113.725ZM110.905 211C111.205 211 111.475 210.933 111.715 210.8C111.955 210.66 112.145 210.463 112.285 210.21C112.425 209.957 112.495 209.663 112.495 209.33C112.495 208.997 112.425 208.703 112.285 208.45C112.145 208.197 111.955 208.003 111.715 207.87C111.475 207.73 111.205 207.66 110.905 207.66C110.605 207.66 110.335 207.73 110.095 207.87C109.855 208.003 109.665 208.197 109.525 208.45C109.385 208.703 109.315 208.997 109.315 209.33C109.315 209.663 109.385 209.957 109.525 210.21C109.665 210.463 109.855 210.66 110.095 210.8C110.335 210.933 110.605 211 110.905 211ZM120.58 209.36C120.58 209.447 120.574 209.57 120.56 209.73H116.37C116.444 210.123 116.634 210.437 116.94 210.67C117.254 210.897 117.64 211.01 118.1 211.01C118.687 211.01 119.17 210.817 119.55 210.43L120.22 211.2C119.98 211.487 119.677 211.703 119.31 211.85C118.944 211.997 118.53 212.07 118.07 212.07C117.484 212.07 116.967 211.953 116.52 211.72C116.074 211.487 115.727 211.163 115.48 210.75C115.24 210.33 115.12 209.857 115.12 209.33C115.12 208.81 115.237 208.343 115.47 207.93C115.71 207.51 116.04 207.183 116.46 206.95C116.88 206.717 117.354 206.6 117.88 206.6C118.4 206.6 118.864 206.717 119.27 206.95C119.684 207.177 120.004 207.5 120.23 207.92C120.464 208.333 120.58 208.813 120.58 209.36ZM117.88 207.6C117.48 207.6 117.14 207.72 116.86 207.96C116.587 208.193 116.42 208.507 116.36 208.9H119.39C119.337 208.513 119.174 208.2 118.9 207.96C118.627 207.72 118.287 207.6 117.88 207.6ZM121.981 204.58H123.231V212H121.981V204.58ZM125.072 206.66H126.322V212H125.072V206.66ZM125.702 205.78C125.475 205.78 125.285 205.71 125.132 205.57C124.978 205.423 124.902 205.243 124.902 205.03C124.902 204.817 124.978 204.64 125.132 204.5C125.285 204.353 125.475 204.28 125.702 204.28C125.928 204.28 126.118 204.35 126.272 204.49C126.425 204.623 126.502 204.793 126.502 205C126.502 205.22 126.425 205.407 126.272 205.56C126.125 205.707 125.935 205.78 125.702 205.78ZM133.162 206.66L130.872 212H129.582L127.292 206.66H128.592L130.252 210.62L131.962 206.66H133.162ZM139.017 209.36C139.017 209.447 139.01 209.57 138.997 209.73H134.807C134.88 210.123 135.07 210.437 135.377 210.67C135.69 210.897 136.077 211.01 136.537 211.01C137.124 211.01 137.607 210.817 137.987 210.43L138.657 211.2C138.417 211.487 138.114 211.703 137.747 211.85C137.38 211.997 136.967 212.07 136.507 212.07C135.92 212.07 135.404 211.953 134.957 211.72C134.51 211.487 134.164 211.163 133.917 210.75C133.677 210.33 133.557 209.857 133.557 209.33C133.557 208.81 133.674 208.343 133.907 207.93C134.147 207.51 134.477 207.183 134.897 206.95C135.317 206.717 135.79 206.6 136.317 206.6C136.837 206.6 137.3 206.717 137.707 206.95C138.12 207.177 138.44 207.5 138.667 207.92C138.9 208.333 139.017 208.813 139.017 209.36ZM136.317 207.6C135.917 207.6 135.577 207.72 135.297 207.96C135.024 208.193 134.857 208.507 134.797 208.9H137.827C137.774 208.513 137.61 208.2 137.337 207.96C137.064 207.72 136.724 207.6 136.317 207.6ZM141.608 207.44C141.968 206.88 142.601 206.6 143.508 206.6V207.79C143.401 207.77 143.304 207.76 143.218 207.76C142.731 207.76 142.351 207.903 142.078 208.19C141.804 208.47 141.668 208.877 141.668 209.41V212H140.418V206.66H141.608V207.44ZM149.963 206.66L147.463 212.43C147.23 213.01 146.947 213.417 146.613 213.65C146.28 213.89 145.877 214.01 145.403 214.01C145.137 214.01 144.873 213.967 144.613 213.88C144.353 213.793 144.14 213.673 143.973 213.52L144.473 212.6C144.593 212.713 144.733 212.803 144.893 212.87C145.06 212.937 145.227 212.97 145.393 212.97C145.613 212.97 145.793 212.913 145.933 212.8C146.08 212.687 146.213 212.497 146.333 212.23L146.423 212.02L144.093 206.66H145.393L147.073 210.61L148.763 206.66H149.963Z" fill="#3C3C3C"/>
<path d="M57.44 235H58.74V240.9H62.4V242H57.44V235ZM65.8575 242.07C65.3175 242.07 64.8308 241.953 64.3975 241.72C63.9642 241.487 63.6242 241.163 63.3775 240.75C63.1375 240.33 63.0175 239.857 63.0175 239.33C63.0175 238.803 63.1375 238.333 63.3775 237.92C63.6242 237.507 63.9642 237.183 64.3975 236.95C64.8308 236.717 65.3175 236.6 65.8575 236.6C66.4042 236.6 66.8942 236.717 67.3275 236.95C67.7608 237.183 68.0975 237.507 68.3375 237.92C68.5842 238.333 68.7075 238.803 68.7075 239.33C68.7075 239.857 68.5842 240.33 68.3375 240.75C68.0975 241.163 67.7608 241.487 67.3275 241.72C66.8942 241.953 66.4042 242.07 65.8575 242.07ZM65.8575 241C66.3175 241 66.6975 240.847 66.9975 240.54C67.2975 240.233 67.4475 239.83 67.4475 239.33C67.4475 238.83 67.2975 238.427 66.9975 238.12C66.6975 237.813 66.3175 237.66 65.8575 237.66C65.3975 237.66 65.0175 237.813 64.7175 238.12C64.4242 238.427 64.2775 238.83 64.2775 239.33C64.2775 239.83 64.4242 240.233 64.7175 240.54C65.0175 240.847 65.3975 241 65.8575 241ZM72.5528 242.07C71.9995 242.07 71.5028 241.953 71.0628 241.72C70.6228 241.487 70.2795 241.163 70.0328 240.75C69.7861 240.33 69.6628 239.857 69.6628 239.33C69.6628 238.803 69.7861 238.333 70.0328 237.92C70.2795 237.507 70.6195 237.183 71.0528 236.95C71.4928 236.717 71.9928 236.6 72.5528 236.6C73.0795 236.6 73.5395 236.707 73.9328 236.92C74.3328 237.133 74.6328 237.44 74.8328 237.84L73.8728 238.4C73.7195 238.153 73.5261 237.97 73.2928 237.85C73.0661 237.723 72.8161 237.66 72.5428 237.66C72.0761 237.66 71.6895 237.813 71.3828 238.12C71.0761 238.42 70.9228 238.823 70.9228 239.33C70.9228 239.837 71.0728 240.243 71.3728 240.55C71.6795 240.85 72.0695 241 72.5428 241C72.8161 241 73.0661 240.94 73.2928 240.82C73.5261 240.693 73.7195 240.507 73.8728 240.26L74.8328 240.82C74.6261 241.22 74.3228 241.53 73.9228 241.75C73.5295 241.963 73.0728 242.07 72.5528 242.07ZM78.1534 236.6C78.94 236.6 79.54 236.79 79.9534 237.17C80.3734 237.543 80.5834 238.11 80.5834 238.87V242H79.4034V241.35C79.25 241.583 79.03 241.763 78.7434 241.89C78.4634 242.01 78.1234 242.07 77.7234 242.07C77.3234 242.07 76.9734 242.003 76.6734 241.87C76.3734 241.73 76.14 241.54 75.9734 241.3C75.8134 241.053 75.7334 240.777 75.7334 240.47C75.7334 239.99 75.91 239.607 76.2634 239.32C76.6234 239.027 77.1867 238.88 77.9534 238.88H79.3334V238.8C79.3334 238.427 79.22 238.14 78.9934 237.94C78.7734 237.74 78.4434 237.64 78.0034 237.64C77.7034 237.64 77.4067 237.687 77.1134 237.78C76.8267 237.873 76.5834 238.003 76.3834 238.17L75.8934 237.26C76.1734 237.047 76.51 236.883 76.9034 236.77C77.2967 236.657 77.7134 236.6 78.1534 236.6ZM77.9834 241.16C78.2967 241.16 78.5734 241.09 78.8134 240.95C79.06 240.803 79.2334 240.597 79.3334 240.33V239.71H78.0434C77.3234 239.71 76.9634 239.947 76.9634 240.42C76.9634 240.647 77.0534 240.827 77.2334 240.96C77.4134 241.093 77.6634 241.16 77.9834 241.16ZM82.3876 234.58H83.6376V242H82.3876V234.58ZM91.4019 236.6C91.9219 236.6 92.3852 236.713 92.7919 236.94C93.2052 237.167 93.5285 237.487 93.7619 237.9C93.9952 238.313 94.1119 238.79 94.1119 239.33C94.1119 239.87 93.9952 240.35 93.7619 240.77C93.5285 241.183 93.2052 241.503 92.7919 241.73C92.3852 241.957 91.9219 242.07 91.4019 242.07C90.6819 242.07 90.1119 241.83 89.6919 241.35V243.94H88.4419V236.66H89.6319V237.36C89.8385 237.107 90.0919 236.917 90.3919 236.79C90.6985 236.663 91.0352 236.6 91.4019 236.6ZM91.2619 241C91.7219 241 92.0985 240.847 92.3919 240.54C92.6919 240.233 92.8419 239.83 92.8419 239.33C92.8419 238.83 92.6919 238.427 92.3919 238.12C92.0985 237.813 91.7219 237.66 91.2619 237.66C90.9619 237.66 90.6919 237.73 90.4519 237.87C90.2119 238.003 90.0219 238.197 89.8819 238.45C89.7419 238.703 89.6719 238.997 89.6719 239.33C89.6719 239.663 89.7419 239.957 89.8819 240.21C90.0219 240.463 90.2119 240.66 90.4519 240.8C90.6919 240.933 90.9619 241 91.2619 241ZM95.4973 236.66H96.7473V242H95.4973V236.66ZM96.1273 235.78C95.9007 235.78 95.7107 235.71 95.5573 235.57C95.404 235.423 95.3273 235.243 95.3273 235.03C95.3273 234.817 95.404 234.64 95.5573 234.5C95.7107 234.353 95.9007 234.28 96.1273 234.28C96.354 234.28 96.544 234.35 96.6973 234.49C96.8507 234.623 96.9273 234.793 96.9273 235C96.9273 235.22 96.8507 235.407 96.6973 235.56C96.5507 235.707 96.3607 235.78 96.1273 235.78ZM101.038 242.07C100.485 242.07 99.988 241.953 99.548 241.72C99.108 241.487 98.7646 241.163 98.518 240.75C98.2713 240.33 98.148 239.857 98.148 239.33C98.148 238.803 98.2713 238.333 98.518 237.92C98.7646 237.507 99.1046 237.183 99.538 236.95C99.978 236.717 100.478 236.6 101.038 236.6C101.565 236.6 102.025 236.707 102.418 236.92C102.818 237.133 103.118 237.44 103.318 237.84L102.358 238.4C102.205 238.153 102.011 237.97 101.778 237.85C101.551 237.723 101.301 237.66 101.028 237.66C100.561 237.66 100.175 237.813 99.868 238.12C99.5613 238.42 99.408 238.823 99.408 239.33C99.408 239.837 99.558 240.243 99.858 240.55C100.165 240.85 100.555 241 101.028 241C101.301 241 101.551 240.94 101.778 240.82C102.011 240.693 102.205 240.507 102.358 240.26L103.318 240.82C103.111 241.22 102.808 241.53 102.408 241.75C102.015 241.963 101.558 242.07 101.038 242.07ZM106.73 239.71L105.8 240.59V242H104.55V234.58H105.8V239.06L108.39 236.66H109.89L107.66 238.9L110.1 242H108.58L106.73 239.71ZM116.179 236.66V242H114.989V241.32C114.789 241.56 114.539 241.747 114.239 241.88C113.939 242.007 113.616 242.07 113.269 242.07C112.556 242.07 111.993 241.873 111.579 241.48C111.173 241.08 110.969 240.49 110.969 239.71V236.66H112.219V239.54C112.219 240.02 112.326 240.38 112.539 240.62C112.759 240.853 113.069 240.97 113.469 240.97C113.916 240.97 114.269 240.833 114.529 240.56C114.796 240.28 114.929 239.88 114.929 239.36V236.66H116.179ZM120.976 236.6C121.496 236.6 121.959 236.713 122.366 236.94C122.779 237.167 123.103 237.487 123.336 237.9C123.569 238.313 123.686 238.79 123.686 239.33C123.686 239.87 123.569 240.35 123.336 240.77C123.103 241.183 122.779 241.503 122.366 241.73C121.959 241.957 121.496 242.07 120.976 242.07C120.256 242.07 119.686 241.83 119.266 241.35V243.94H118.016V236.66H119.206V237.36C119.413 237.107 119.666 236.917 119.966 236.79C120.273 236.663 120.609 236.6 120.976 236.6ZM120.836 241C121.296 241 121.673 240.847 121.966 240.54C122.266 240.233 122.416 239.83 122.416 239.33C122.416 238.83 122.266 238.427 121.966 238.12C121.673 237.813 121.296 237.66 120.836 237.66C120.536 237.66 120.266 237.73 120.026 237.87C119.786 238.003 119.596 238.197 119.456 238.45C119.316 238.703 119.246 238.997 119.246 239.33C119.246 239.663 119.316 239.957 119.456 240.21C119.596 240.463 119.786 240.66 120.026 240.8C120.266 240.933 120.536 241 120.836 241ZM127.765 238.7H130.515V239.74H127.765V238.7ZM136.467 236.09V238.22H139.847V239.32H136.467V242H135.167V235H140.277V236.09H136.467ZM146.314 242L144.884 239.95C144.824 239.957 144.734 239.96 144.614 239.96H143.034V242H141.734V235H144.614C145.22 235 145.747 235.1 146.194 235.3C146.647 235.5 146.994 235.787 147.234 236.16C147.474 236.533 147.594 236.977 147.594 237.49C147.594 238.017 147.464 238.47 147.204 238.85C146.95 239.23 146.584 239.513 146.104 239.7L147.714 242H146.314ZM146.284 237.49C146.284 237.043 146.137 236.7 145.844 236.46C145.55 236.22 145.12 236.1 144.554 236.1H143.034V238.89H144.554C145.12 238.89 145.55 238.77 145.844 238.53C146.137 238.283 146.284 237.937 146.284 237.49ZM154.498 240.91V242H149.248V235H154.358V236.09H150.548V237.91H153.928V238.98H150.548V240.91H154.498ZM161.397 240.91V242H156.147V235H161.257V236.09H157.447V237.91H160.827V238.98H157.447V240.91H161.397Z" fill="#3C3C3C"/>
<g clip-path="url(#clip1_663_2115)">
<path d="M227.157 378.051H140.712C140.111 378.051 139.534 378.288 139.109 378.71C138.684 379.133 138.445 379.706 138.445 380.303V396.326C138.445 396.924 138.684 397.496 139.109 397.919C139.534 398.341 140.111 398.578 140.712 398.578H227.157C227.802 398.578 228.42 398.324 228.876 397.871C229.331 397.418 229.588 396.804 229.588 396.163V380.466C229.588 379.825 229.331 379.211 228.876 378.758C228.42 378.305 227.802 378.051 227.157 378.051V378.051ZM228.98 396.163C228.98 396.644 228.788 397.104 228.446 397.444C228.104 397.784 227.641 397.975 227.157 397.975H140.712C140.272 397.973 139.851 397.799 139.541 397.49C139.23 397.181 139.055 396.763 139.053 396.326V380.303C139.055 379.866 139.23 379.448 139.541 379.139C139.851 378.83 140.272 378.656 140.712 378.655H227.157C227.641 378.655 228.104 378.845 228.446 379.185C228.788 379.525 228.98 379.985 228.98 380.466V396.163Z" fill="#3C3C3C"/>
<path d="M148.817 384.837H146.205V391.333H147.371V388.822H148.817C150.276 388.822 151.187 388.121 151.187 386.829C151.187 385.537 150.276 384.837 148.817 384.837ZM148.757 387.856H147.371V385.863H148.775C149.613 385.863 150.057 386.22 150.057 386.859C150.057 387.499 149.595 387.825 148.775 387.825L148.757 387.856Z" fill="#3C3C3C"/>
<path d="M153.696 386.503C153.377 386.5 153.06 386.562 152.767 386.688C152.473 386.813 152.209 386.998 151.992 387.23C151.774 387.463 151.608 387.738 151.504 388.038C151.4 388.338 151.36 388.656 151.388 388.973C151.359 389.291 151.398 389.611 151.5 389.914C151.603 390.216 151.769 390.494 151.985 390.729C152.202 390.965 152.466 391.153 152.76 391.282C153.054 391.41 153.372 391.477 153.693 391.477C154.015 391.477 154.333 391.41 154.627 391.282C154.921 391.153 155.185 390.965 155.401 390.729C155.618 390.494 155.783 390.216 155.886 389.914C155.989 389.611 156.028 389.291 155.999 388.973C156.027 388.657 155.988 388.338 155.885 388.038C155.782 387.738 155.616 387.463 155.399 387.23C155.182 386.998 154.919 386.813 154.625 386.688C154.332 386.562 154.016 386.5 153.696 386.503ZM153.696 390.53C152.955 390.53 152.481 389.927 152.481 388.973C152.481 388.019 152.943 387.415 153.696 387.415C154.45 387.415 154.912 388.019 154.912 388.973C154.912 389.927 154.432 390.524 153.696 390.524V390.53Z" fill="#3C3C3C"/>
<path d="M160.793 389.733L159.937 386.582H159.037L158.187 389.733L157.324 386.582H156.2L157.64 391.339H158.588L159.463 388.224L160.338 391.339H161.285L162.725 386.582H161.644L160.793 389.733Z" fill="#3C3C3C"/>
<path d="M165.18 386.503C164.865 386.509 164.554 386.579 164.267 386.707C163.979 386.836 163.721 387.022 163.508 387.253C163.295 387.483 163.132 387.755 163.027 388.051C162.923 388.346 162.88 388.66 162.902 388.973C162.876 389.29 162.918 389.609 163.024 389.91C163.13 390.21 163.297 390.486 163.516 390.718C163.736 390.95 164.001 391.135 164.296 391.26C164.591 391.384 164.909 391.446 165.229 391.442C165.669 391.466 166.106 391.351 166.478 391.115C166.85 390.879 167.138 390.533 167.301 390.126L166.396 389.751C166.325 389.985 166.176 390.187 165.974 390.325C165.772 390.464 165.528 390.529 165.284 390.512C165.109 390.516 164.936 390.485 164.774 390.421C164.612 390.357 164.465 390.26 164.342 390.138C164.219 390.015 164.122 389.869 164.057 389.708C163.992 389.547 163.961 389.375 163.965 389.202H167.319V388.84C167.331 387.536 166.59 386.503 165.18 386.503ZM164.008 388.393C164.05 388.116 164.193 387.863 164.408 387.682C164.624 387.501 164.898 387.404 165.18 387.409C165.314 387.398 165.449 387.415 165.576 387.459C165.703 387.504 165.819 387.575 165.916 387.668C166.013 387.76 166.089 387.872 166.14 387.996C166.19 388.12 166.213 388.253 166.207 388.387L164.008 388.393Z" fill="#3C3C3C"/>
<path d="M169.245 387.288V386.582H168.151V391.333H169.245V388.84C169.235 388.679 169.26 388.517 169.318 388.366C169.375 388.215 169.465 388.078 169.579 387.964C169.694 387.85 169.832 387.762 169.984 387.704C170.136 387.647 170.298 387.622 170.46 387.632C170.594 387.623 170.728 387.623 170.861 387.632V386.545C170.776 386.545 170.679 386.545 170.551 386.545C170.285 386.532 170.02 386.594 169.788 386.726C169.557 386.858 169.368 387.053 169.245 387.288Z" fill="#3C3C3C"/>
<path d="M173.371 386.503C173.056 386.509 172.745 386.579 172.457 386.707C172.17 386.836 171.912 387.022 171.699 387.253C171.486 387.483 171.322 387.755 171.218 388.051C171.113 388.346 171.071 388.66 171.092 388.973C171.067 389.29 171.108 389.609 171.214 389.91C171.32 390.21 171.488 390.486 171.707 390.718C171.926 390.95 172.191 391.135 172.486 391.26C172.781 391.384 173.099 391.446 173.419 391.442C173.856 391.46 174.287 391.344 174.654 391.108C175.021 390.872 175.305 390.529 175.467 390.126L174.531 389.77C174.46 390.003 174.312 390.205 174.109 390.343C173.907 390.482 173.664 390.548 173.419 390.53C173.249 390.529 173.08 390.493 172.923 390.427C172.766 390.36 172.624 390.262 172.506 390.141C172.387 390.019 172.294 389.874 172.231 389.716C172.169 389.558 172.139 389.39 172.143 389.22H175.51V388.858C175.51 387.536 174.756 386.503 173.371 386.503ZM172.198 388.393C172.242 388.118 172.384 387.868 172.598 387.688C172.812 387.509 173.084 387.412 173.365 387.415C173.499 387.404 173.634 387.421 173.761 387.466C173.887 387.51 174.003 387.581 174.1 387.674C174.198 387.766 174.274 387.878 174.324 388.002C174.374 388.126 174.397 388.259 174.392 388.393H172.198Z" fill="#3C3C3C"/>
<path d="M179.496 387.107C179.327 386.91 179.116 386.754 178.878 386.65C178.641 386.545 178.382 386.495 178.123 386.503C176.78 386.503 176.014 387.62 176.014 388.973C176.014 390.325 176.78 391.442 178.123 391.442C178.383 391.452 178.641 391.402 178.879 391.298C179.117 391.193 179.328 391.036 179.496 390.838V391.333H180.59V384.837H179.496V387.107ZM179.496 389.13C179.52 389.302 179.507 389.477 179.457 389.644C179.407 389.81 179.321 389.964 179.206 390.095C179.091 390.226 178.948 390.33 178.789 390.401C178.629 390.472 178.456 390.508 178.281 390.506C177.485 390.506 177.065 389.902 177.065 388.985C177.065 388.067 177.491 387.463 178.281 387.463C178.955 387.463 179.496 387.952 179.496 388.846V389.13Z" fill="#3C3C3C"/>
<path d="M186.635 386.503C186.371 386.492 186.107 386.54 185.864 386.645C185.621 386.749 185.405 386.907 185.232 387.107V384.837H184.138V391.333H185.232V390.832C185.401 391.029 185.613 391.186 185.852 391.29C186.091 391.395 186.35 391.445 186.611 391.436C187.948 391.436 188.714 390.313 188.714 388.967C188.714 387.62 187.972 386.503 186.635 386.503ZM186.447 390.488C186.272 390.49 186.099 390.454 185.939 390.383C185.779 390.312 185.637 390.208 185.522 390.077C185.406 389.946 185.321 389.792 185.271 389.626C185.221 389.459 185.207 389.284 185.232 389.111V388.828C185.232 387.934 185.742 387.445 186.447 387.445C187.237 387.445 187.662 388.049 187.662 388.967C187.662 389.884 187.207 390.488 186.447 390.488Z" fill="#3C3C3C"/>
<path d="M191.265 389.921L190.092 386.582H188.938L190.7 391.164L190.518 391.611C190.487 391.764 190.397 391.899 190.268 391.988C190.139 392.077 189.98 392.113 189.825 392.088C189.704 392.097 189.582 392.097 189.461 392.088V393C189.607 393.021 189.756 393.031 189.904 393.03C190.283 393.057 190.66 392.951 190.969 392.731C191.278 392.51 191.499 392.188 191.593 391.822L193.562 386.618H192.414L191.265 389.921Z" fill="#3C3C3C"/>
<path d="M214.397 385.555C214.157 385.554 213.919 385.6 213.697 385.69C213.475 385.78 213.273 385.913 213.103 386.081L213.018 385.664H211.565V393.465L213.218 393.108V391.219C213.547 391.492 213.962 391.642 214.391 391.641C215.57 391.641 216.651 390.681 216.651 388.556C216.651 386.612 215.557 385.555 214.397 385.555ZM214.002 390.162C213.857 390.17 213.712 390.147 213.577 390.092C213.443 390.038 213.322 389.955 213.224 389.848V387.367C213.323 387.256 213.445 387.169 213.581 387.112C213.718 387.054 213.866 387.028 214.014 387.035C214.622 387.035 215.035 387.717 215.035 388.592C215.035 389.468 214.616 390.162 214.002 390.162Z" fill="#3C3C3C"/>
<path d="M219.702 385.555C218.11 385.555 217.144 386.92 217.144 388.641C217.144 390.675 218.286 391.708 219.914 391.708C220.55 391.718 221.177 391.566 221.737 391.267V389.908C221.229 390.163 220.666 390.292 220.097 390.283C219.44 390.283 218.881 390.047 218.796 389.256H222.065C222.065 389.166 222.065 388.81 222.065 388.653C222.12 386.92 221.294 385.555 219.702 385.555ZM218.808 388.013C218.808 387.252 219.276 386.932 219.689 386.932C220.103 386.932 220.54 387.252 220.54 388.013H218.808Z" fill="#3C3C3C"/>
<path d="M207.106 386.117L207.002 385.622H205.593V391.484H207.221V387.512C207.368 387.334 207.566 387.206 207.789 387.143C208.011 387.08 208.248 387.087 208.467 387.161V385.622C208.218 385.525 207.943 385.522 207.692 385.613C207.441 385.704 207.233 385.884 207.106 386.117Z" fill="#3C3C3C"/>
<path d="M198.878 387.385C198.878 387.119 199.097 387.017 199.444 387.017C200.018 387.029 200.58 387.178 201.084 387.451V385.863C200.563 385.654 200.005 385.549 199.444 385.555C198.101 385.555 197.208 386.268 197.208 387.463C197.208 389.335 199.723 389.033 199.723 389.836C199.723 390.15 199.456 390.253 199.115 390.253C198.473 390.215 197.849 390.029 197.293 389.709V391.333C197.866 391.588 198.487 391.719 199.115 391.72C200.489 391.72 201.437 391.025 201.437 389.812C201.406 387.783 198.878 388.146 198.878 387.385Z" fill="#3C3C3C"/>
<path d="M203.63 384.233L202.02 384.583V389.975C202.012 390.202 202.05 390.429 202.133 390.641C202.216 390.852 202.341 391.045 202.502 391.208C202.662 391.37 202.854 391.498 203.066 391.584C203.278 391.67 203.505 391.712 203.734 391.708C204.133 391.725 204.531 391.649 204.894 391.484V390.126C204.682 390.216 203.642 390.524 203.642 389.522V387.107H204.894V385.694H203.642L203.63 384.233Z" fill="#3C3C3C"/>
<path d="M209.081 385.115L210.739 384.771V383.466L209.081 383.811V385.115Z" fill="#3C3C3C"/>
<path d="M210.739 385.664H209.081V391.484H210.739V385.664Z" fill="#3C3C3C"/>
</g>
<line x1="33.5" y1="149.5" x2="246.5" y2="149.5" stroke="#3C3C3C"/>
<line x1="33.5" y1="281.5" x2="246.5" y2="281.5" stroke="#3C3C3C"/>
<rect x="56.5" y="251" width="77" height="7" fill="#F7F7F7"/>
<rect x="142.5" y="251" width="57" height="7" fill="#F7F7F7"/>
<rect x="247.15" y="57.65" width="196.7" height="356.7" fill="white" stroke="#3C3C3C" stroke-width="1.3"/>
<path d="M276.86 89.232V90H270.968V89.388L274.46 85.968C274.9 85.536 275.196 85.164 275.348 84.852C275.508 84.532 275.588 84.212 275.588 83.892C275.588 83.396 275.416 83.012 275.072 82.74C274.736 82.46 274.252 82.32 273.62 82.32C272.636 82.32 271.872 82.632 271.328 83.256L270.716 82.728C271.044 82.344 271.46 82.048 271.964 81.84C272.476 81.632 273.052 81.528 273.692 81.528C274.548 81.528 275.224 81.732 275.72 82.14C276.224 82.54 276.476 83.092 276.476 83.796C276.476 84.228 276.38 84.644 276.188 85.044C275.996 85.444 275.632 85.904 275.096 86.424L272.24 89.232H276.86ZM282.049 83.688H282.901V90H282.049V83.688ZM282.481 82.308C282.305 82.308 282.157 82.248 282.037 82.128C281.917 82.008 281.857 81.864 281.857 81.696C281.857 81.536 281.917 81.396 282.037 81.276C282.157 81.156 282.305 81.096 282.481 81.096C282.657 81.096 282.805 81.156 282.925 81.276C283.045 81.388 283.105 81.524 283.105 81.684C283.105 81.86 283.045 82.008 282.925 82.128C282.805 82.248 282.657 82.308 282.481 82.308ZM288.796 89.616C288.636 89.76 288.436 89.872 288.196 89.952C287.964 90.024 287.72 90.06 287.464 90.06C286.872 90.06 286.416 89.9 286.096 89.58C285.776 89.26 285.616 88.808 285.616 88.224V84.408H284.488V83.688H285.616V82.308H286.468V83.688H288.388V84.408H286.468V88.176C286.468 88.552 286.56 88.84 286.744 89.04C286.936 89.232 287.208 89.328 287.56 89.328C287.736 89.328 287.904 89.3 288.064 89.244C288.232 89.188 288.376 89.108 288.496 89.004L288.796 89.616ZM295.82 87.108H290.54C290.588 87.764 290.84 88.296 291.296 88.704C291.752 89.104 292.328 89.304 293.024 89.304C293.416 89.304 293.776 89.236 294.104 89.1C294.432 88.956 294.716 88.748 294.956 88.476L295.436 89.028C295.156 89.364 294.804 89.62 294.38 89.796C293.964 89.972 293.504 90.06 293 90.06C292.352 90.06 291.776 89.924 291.272 89.652C290.776 89.372 290.388 88.988 290.108 88.5C289.828 88.012 289.688 87.46 289.688 86.844C289.688 86.228 289.82 85.676 290.084 85.188C290.356 84.7 290.724 84.32 291.188 84.048C291.66 83.776 292.188 83.64 292.772 83.64C293.356 83.64 293.88 83.776 294.344 84.048C294.808 84.32 295.172 84.7 295.436 85.188C295.7 85.668 295.832 86.22 295.832 86.844L295.82 87.108ZM292.772 84.372C292.164 84.372 291.652 84.568 291.236 84.96C290.828 85.344 290.596 85.848 290.54 86.472H295.016C294.96 85.848 294.724 85.344 294.308 84.96C293.9 84.568 293.388 84.372 292.772 84.372ZM305.638 83.64C306.43 83.64 307.05 83.868 307.498 84.324C307.954 84.78 308.182 85.452 308.182 86.34V90H307.33V86.424C307.33 85.768 307.17 85.268 306.85 84.924C306.538 84.58 306.094 84.408 305.518 84.408C304.862 84.408 304.346 84.612 303.97 85.02C303.594 85.42 303.406 85.976 303.406 86.688V90H302.554V86.424C302.554 85.768 302.394 85.268 302.074 84.924C301.762 84.58 301.314 84.408 300.73 84.408C300.082 84.408 299.566 84.612 299.182 85.02C298.806 85.42 298.618 85.976 298.618 86.688V90H297.766V83.688H298.582V84.84C298.806 84.456 299.118 84.16 299.518 83.952C299.918 83.744 300.378 83.64 300.898 83.64C301.426 83.64 301.882 83.752 302.266 83.976C302.658 84.2 302.95 84.532 303.142 84.972C303.374 84.556 303.706 84.232 304.138 84C304.578 83.76 305.078 83.64 305.638 83.64ZM312.385 90.06C311.873 90.06 311.381 89.988 310.909 89.844C310.445 89.692 310.081 89.504 309.817 89.28L310.201 88.608C310.465 88.816 310.797 88.988 311.197 89.124C311.597 89.252 312.013 89.316 312.445 89.316C313.021 89.316 313.445 89.228 313.717 89.052C313.997 88.868 314.137 88.612 314.137 88.284C314.137 88.052 314.061 87.872 313.909 87.744C313.757 87.608 313.565 87.508 313.333 87.444C313.101 87.372 312.793 87.304 312.409 87.24C311.897 87.144 311.485 87.048 311.173 86.952C310.861 86.848 310.593 86.676 310.369 86.436C310.153 86.196 310.045 85.864 310.045 85.44C310.045 84.912 310.265 84.48 310.705 84.144C311.145 83.808 311.757 83.64 312.541 83.64C312.949 83.64 313.357 83.696 313.765 83.808C314.173 83.912 314.509 84.052 314.773 84.228L314.401 84.912C313.881 84.552 313.261 84.372 312.541 84.372C311.997 84.372 311.585 84.468 311.305 84.66C311.033 84.852 310.897 85.104 310.897 85.416C310.897 85.656 310.973 85.848 311.125 85.992C311.285 86.136 311.481 86.244 311.713 86.316C311.945 86.38 312.265 86.448 312.673 86.52C313.177 86.616 313.581 86.712 313.885 86.808C314.189 86.904 314.449 87.068 314.665 87.3C314.881 87.532 314.989 87.852 314.989 88.26C314.989 88.812 314.757 89.252 314.293 89.58C313.837 89.9 313.201 90.06 312.385 90.06Z" fill="#3C3C3C"/>
<path d="M343.66 137V144H342.59L338.73 139.26V144H337.44V137H338.51L342.37 141.74V137H343.66ZM350.636 141.36C350.636 141.447 350.629 141.57 350.616 141.73H346.426C346.499 142.123 346.689 142.437 346.996 142.67C347.309 142.897 347.696 143.01 348.156 143.01C348.742 143.01 349.226 142.817 349.606 142.43L350.276 143.2C350.036 143.487 349.732 143.703 349.366 143.85C348.999 143.997 348.586 144.07 348.126 144.07C347.539 144.07 347.022 143.953 346.576 143.72C346.129 143.487 345.782 143.163 345.536 142.75C345.296 142.33 345.176 141.857 345.176 141.33C345.176 140.81 345.292 140.343 345.526 139.93C345.766 139.51 346.096 139.183 346.516 138.95C346.936 138.717 347.409 138.6 347.936 138.6C348.456 138.6 348.919 138.717 349.326 138.95C349.739 139.177 350.059 139.5 350.286 139.92C350.519 140.333 350.636 140.813 350.636 141.36ZM347.936 139.6C347.536 139.6 347.196 139.72 346.916 139.96C346.642 140.193 346.476 140.507 346.416 140.9H349.446C349.392 140.513 349.229 140.2 348.956 139.96C348.682 139.72 348.342 139.6 347.936 139.6ZM360.269 138.66L358.299 144H357.099L355.719 140.32L354.319 144H353.119L351.159 138.66H352.339L353.749 142.6L355.219 138.66H356.269L357.709 142.62L359.159 138.66H360.269ZM369.372 140.36C369.759 140.487 370.065 140.7 370.292 141C370.519 141.293 370.632 141.66 370.632 142.1C370.632 142.707 370.399 143.177 369.932 143.51C369.465 143.837 368.785 144 367.892 144H364.412V137H367.692C368.519 137 369.155 137.163 369.602 137.49C370.049 137.81 370.272 138.253 370.272 138.82C370.272 139.167 370.192 139.473 370.032 139.74C369.872 140.007 369.652 140.213 369.372 140.36ZM365.712 138.02V139.95H367.552C368.005 139.95 368.352 139.87 368.592 139.71C368.839 139.543 368.962 139.303 368.962 138.99C368.962 138.67 368.839 138.43 368.592 138.27C368.352 138.103 368.005 138.02 367.552 138.02H365.712ZM367.812 142.98C368.819 142.98 369.322 142.643 369.322 141.97C369.322 141.297 368.819 140.96 367.812 140.96H365.712V142.98H367.812ZM372.099 138.66H373.349V144H372.099V138.66ZM372.729 137.78C372.503 137.78 372.313 137.71 372.159 137.57C372.006 137.423 371.929 137.243 371.929 137.03C371.929 136.817 372.006 136.64 372.159 136.5C372.313 136.353 372.503 136.28 372.729 136.28C372.956 136.28 373.146 136.35 373.299 136.49C373.453 136.623 373.529 136.793 373.529 137C373.529 137.22 373.453 137.407 373.299 137.56C373.153 137.707 372.963 137.78 372.729 137.78ZM377.37 141.71L376.44 142.59V144H375.19V136.58H376.44V141.06L379.03 138.66H380.53L378.3 140.9L380.74 144H379.22L377.37 141.71ZM386.543 141.36C386.543 141.447 386.536 141.57 386.523 141.73H382.333C382.406 142.123 382.596 142.437 382.903 142.67C383.216 142.897 383.603 143.01 384.063 143.01C384.649 143.01 385.133 142.817 385.513 142.43L386.183 143.2C385.943 143.487 385.639 143.703 385.273 143.85C384.906 143.997 384.493 144.07 384.033 144.07C383.446 144.07 382.929 143.953 382.483 143.72C382.036 143.487 381.689 143.163 381.443 142.75C381.203 142.33 381.083 141.857 381.083 141.33C381.083 140.81 381.199 140.343 381.433 139.93C381.673 139.51 382.003 139.183 382.423 138.95C382.843 138.717 383.316 138.6 383.843 138.6C384.363 138.6 384.826 138.717 385.233 138.95C385.646 139.177 385.966 139.5 386.193 139.92C386.426 140.333 386.543 140.813 386.543 141.36ZM383.843 139.6C383.443 139.6 383.103 139.72 382.823 139.96C382.549 140.193 382.383 140.507 382.323 140.9H385.353C385.299 140.513 385.136 140.2 384.863 139.96C384.589 139.72 384.249 139.6 383.843 139.6Z" fill="#3C3C3C"/>
<path d="M272.988 267.08C272.556 267.08 272.137 267.019 271.732 266.896C271.332 266.773 271.015 266.611 270.78 266.408L271.14 265.6C271.369 265.781 271.649 265.931 271.98 266.048C272.316 266.16 272.652 266.216 272.988 266.216C273.404 266.216 273.713 266.149 273.916 266.016C274.124 265.883 274.228 265.707 274.228 265.488C274.228 265.328 274.169 265.197 274.052 265.096C273.94 264.989 273.796 264.907 273.62 264.848C273.444 264.789 273.204 264.723 272.9 264.648C272.473 264.547 272.127 264.445 271.86 264.344C271.599 264.243 271.372 264.085 271.18 263.872C270.993 263.653 270.9 263.36 270.9 262.992C270.9 262.683 270.983 262.403 271.148 262.152C271.319 261.896 271.572 261.693 271.908 261.544C272.249 261.395 272.665 261.32 273.156 261.32C273.497 261.32 273.833 261.363 274.164 261.448C274.495 261.533 274.78 261.656 275.02 261.816L274.692 262.624C274.447 262.48 274.191 262.371 273.924 262.296C273.657 262.221 273.399 262.184 273.148 262.184C272.737 262.184 272.431 262.253 272.228 262.392C272.031 262.531 271.932 262.715 271.932 262.944C271.932 263.104 271.988 263.235 272.1 263.336C272.217 263.437 272.364 263.517 272.54 263.576C272.716 263.635 272.956 263.701 273.26 263.776C273.676 263.872 274.017 263.973 274.284 264.08C274.551 264.181 274.777 264.339 274.964 264.552C275.156 264.765 275.252 265.053 275.252 265.416C275.252 265.725 275.167 266.005 274.996 266.256C274.831 266.507 274.577 266.707 274.236 266.856C273.895 267.005 273.479 267.08 272.988 267.08ZM280.523 262.728V267H279.571V266.456C279.411 266.648 279.211 266.797 278.971 266.904C278.731 267.005 278.473 267.056 278.195 267.056C277.625 267.056 277.174 266.899 276.843 266.584C276.518 266.264 276.355 265.792 276.355 265.168V262.728H277.355V265.032C277.355 265.416 277.441 265.704 277.611 265.896C277.787 266.083 278.035 266.176 278.355 266.176C278.713 266.176 278.995 266.067 279.203 265.848C279.417 265.624 279.523 265.304 279.523 264.888V262.728H280.523ZM284.401 262.68C284.817 262.68 285.187 262.771 285.513 262.952C285.843 263.133 286.102 263.389 286.289 263.72C286.475 264.051 286.569 264.432 286.569 264.864C286.569 265.296 286.475 265.68 286.289 266.016C286.102 266.347 285.843 266.603 285.513 266.784C285.187 266.965 284.817 267.056 284.401 267.056C284.107 267.056 283.838 267.005 283.593 266.904C283.353 266.803 283.15 266.651 282.985 266.448V267H282.033V261.064H283.033V263.248C283.203 263.061 283.403 262.92 283.633 262.824C283.867 262.728 284.123 262.68 284.401 262.68ZM284.289 266.2C284.657 266.2 284.958 266.077 285.193 265.832C285.433 265.587 285.553 265.264 285.553 264.864C285.553 264.464 285.433 264.141 285.193 263.896C284.958 263.651 284.657 263.528 284.289 263.528C284.049 263.528 283.833 263.584 283.641 263.696C283.449 263.803 283.297 263.957 283.185 264.16C283.073 264.363 283.017 264.597 283.017 264.864C283.017 265.131 283.073 265.365 283.185 265.568C283.297 265.771 283.449 265.928 283.641 266.04C283.833 266.147 284.049 266.2 284.289 266.2ZM292.696 266.768C292.579 266.864 292.435 266.936 292.264 266.984C292.099 267.032 291.923 267.056 291.736 267.056C291.267 267.056 290.904 266.933 290.648 266.688C290.392 266.443 290.264 266.085 290.264 265.616V263.56H289.56V262.76H290.264V261.784H291.264V262.76H292.408V263.56H291.264V265.592C291.264 265.8 291.315 265.96 291.416 266.072C291.517 266.179 291.664 266.232 291.856 266.232C292.08 266.232 292.267 266.173 292.416 266.056L292.696 266.768ZM295.498 267.056C295.066 267.056 294.677 266.963 294.33 266.776C293.983 266.589 293.711 266.331 293.514 266C293.322 265.664 293.226 265.285 293.226 264.864C293.226 264.443 293.322 264.067 293.514 263.736C293.711 263.405 293.983 263.147 294.33 262.96C294.677 262.773 295.066 262.68 295.498 262.68C295.935 262.68 296.327 262.773 296.674 262.96C297.021 263.147 297.29 263.405 297.482 263.736C297.679 264.067 297.778 264.443 297.778 264.864C297.778 265.285 297.679 265.664 297.482 266C297.29 266.331 297.021 266.589 296.674 266.776C296.327 266.963 295.935 267.056 295.498 267.056ZM295.498 266.2C295.866 266.2 296.17 266.077 296.41 265.832C296.65 265.587 296.77 265.264 296.77 264.864C296.77 264.464 296.65 264.141 296.41 263.896C296.17 263.651 295.866 263.528 295.498 263.528C295.13 263.528 294.826 263.651 294.586 263.896C294.351 264.141 294.234 264.464 294.234 264.864C294.234 265.264 294.351 265.587 294.586 265.832C294.826 266.077 295.13 266.2 295.498 266.2ZM301.502 266.768C301.385 266.864 301.241 266.936 301.07 266.984C300.905 267.032 300.729 267.056 300.542 267.056C300.073 267.056 299.71 266.933 299.454 266.688C299.198 266.443 299.07 266.085 299.07 265.616V263.56H298.366V262.76H299.07V261.784H300.07V262.76H301.214V263.56H300.07V265.592C300.07 265.8 300.121 265.96 300.222 266.072C300.323 266.179 300.47 266.232 300.662 266.232C300.886 266.232 301.073 266.173 301.222 266.056L301.502 266.768ZM304.157 262.68C304.786 262.68 305.266 262.832 305.597 263.136C305.933 263.435 306.101 263.888 306.101 264.496V267H305.157V266.48C305.034 266.667 304.858 266.811 304.629 266.912C304.405 267.008 304.133 267.056 303.813 267.056C303.493 267.056 303.213 267.003 302.973 266.896C302.733 266.784 302.546 266.632 302.413 266.44C302.285 266.243 302.221 266.021 302.221 265.776C302.221 265.392 302.362 265.085 302.645 264.856C302.933 264.621 303.383 264.504 303.997 264.504H305.101V264.44C305.101 264.141 305.01 263.912 304.829 263.752C304.653 263.592 304.389 263.512 304.037 263.512C303.797 263.512 303.559 263.549 303.325 263.624C303.095 263.699 302.901 263.803 302.741 263.936L302.349 263.208C302.573 263.037 302.842 262.907 303.157 262.816C303.471 262.725 303.805 262.68 304.157 262.68ZM304.021 266.328C304.271 266.328 304.493 266.272 304.685 266.16C304.882 266.043 305.021 265.877 305.101 265.664V265.168H304.069C303.493 265.168 303.205 265.357 303.205 265.736C303.205 265.917 303.277 266.061 303.421 266.168C303.565 266.275 303.765 266.328 304.021 266.328ZM307.584 261.064H308.584V267H307.584V261.064Z" fill="#3C3C3C"/>
<path d="M276.372 278.4L273.932 284H272.908L270.46 278.4H271.588L273.452 282.72L275.332 278.4H276.372ZM280.615 282.704H277.815L277.263 284H276.191L278.711 278.4H279.735L282.263 284H281.175L280.615 282.704ZM280.271 281.888L279.215 279.44L278.167 281.888H280.271ZM284.03 279.28H282.174V278.4H286.926V279.28H285.07V284H284.03V279.28Z" fill="#3C3C3C"/>
<path d="M272.988 302.08C272.556 302.08 272.137 302.019 271.732 301.896C271.332 301.773 271.015 301.611 270.78 301.408L271.14 300.6C271.369 300.781 271.649 300.931 271.98 301.048C272.316 301.16 272.652 301.216 272.988 301.216C273.404 301.216 273.713 301.149 273.916 301.016C274.124 300.883 274.228 300.707 274.228 300.488C274.228 300.328 274.169 300.197 274.052 300.096C273.94 299.989 273.796 299.907 273.62 299.848C273.444 299.789 273.204 299.723 272.9 299.648C272.473 299.547 272.127 299.445 271.86 299.344C271.599 299.243 271.372 299.085 271.18 298.872C270.993 298.653 270.9 298.36 270.9 297.992C270.9 297.683 270.983 297.403 271.148 297.152C271.319 296.896 271.572 296.693 271.908 296.544C272.249 296.395 272.665 296.32 273.156 296.32C273.497 296.32 273.833 296.363 274.164 296.448C274.495 296.533 274.78 296.656 275.02 296.816L274.692 297.624C274.447 297.48 274.191 297.371 273.924 297.296C273.657 297.221 273.399 297.184 273.148 297.184C272.737 297.184 272.431 297.253 272.228 297.392C272.031 297.531 271.932 297.715 271.932 297.944C271.932 298.104 271.988 298.235 272.1 298.336C272.217 298.437 272.364 298.517 272.54 298.576C272.716 298.635 272.956 298.701 273.26 298.776C273.676 298.872 274.017 298.973 274.284 299.08C274.551 299.181 274.777 299.339 274.964 299.552C275.156 299.765 275.252 300.053 275.252 300.416C275.252 300.725 275.167 301.005 274.996 301.256C274.831 301.507 274.577 301.707 274.236 301.856C273.895 302.005 273.479 302.08 272.988 302.08ZM278.811 297.68C279.35 297.68 279.782 297.837 280.107 298.152C280.433 298.467 280.595 298.933 280.595 299.552V302H279.595V299.68C279.595 299.307 279.507 299.027 279.331 298.84C279.155 298.648 278.905 298.552 278.579 298.552C278.211 298.552 277.921 298.664 277.707 298.888C277.494 299.107 277.387 299.424 277.387 299.84V302H276.387V296.064H277.387V298.224C277.553 298.048 277.755 297.915 277.995 297.824C278.241 297.728 278.513 297.68 278.811 297.68ZM282.064 297.728H283.064V302H282.064V297.728ZM282.568 297.024C282.386 297.024 282.234 296.968 282.112 296.856C281.989 296.739 281.928 296.595 281.928 296.424C281.928 296.253 281.989 296.112 282.112 296C282.234 295.883 282.386 295.824 282.568 295.824C282.749 295.824 282.901 295.88 283.024 295.992C283.146 296.099 283.208 296.235 283.208 296.4C283.208 296.576 283.146 296.725 283.024 296.848C282.906 296.965 282.754 297.024 282.568 297.024ZM286.944 297.68C287.36 297.68 287.731 297.771 288.056 297.952C288.387 298.133 288.646 298.389 288.832 298.72C289.019 299.051 289.112 299.432 289.112 299.864C289.112 300.296 289.019 300.68 288.832 301.016C288.646 301.347 288.387 301.603 288.056 301.784C287.731 301.965 287.36 302.056 286.944 302.056C286.368 302.056 285.912 301.864 285.576 301.48V303.552H284.576V297.728H285.528V298.288C285.694 298.085 285.896 297.933 286.136 297.832C286.382 297.731 286.651 297.68 286.944 297.68ZM286.832 301.2C287.2 301.2 287.502 301.077 287.736 300.832C287.976 300.587 288.096 300.264 288.096 299.864C288.096 299.464 287.976 299.141 287.736 298.896C287.502 298.651 287.2 298.528 286.832 298.528C286.592 298.528 286.376 298.584 286.184 298.696C285.992 298.803 285.84 298.957 285.728 299.16C285.616 299.363 285.56 299.597 285.56 299.864C285.56 300.131 285.616 300.365 285.728 300.568C285.84 300.771 285.992 300.928 286.184 301.04C286.376 301.147 286.592 301.2 286.832 301.2ZM292.629 297.68C293.045 297.68 293.415 297.771 293.741 297.952C294.071 298.133 294.33 298.389 294.517 298.72C294.703 299.051 294.797 299.432 294.797 299.864C294.797 300.296 294.703 300.68 294.517 301.016C294.33 301.347 294.071 301.603 293.741 301.784C293.415 301.965 293.045 302.056 292.629 302.056C292.053 302.056 291.597 301.864 291.261 301.48V303.552H290.261V297.728H291.213V298.288C291.378 298.085 291.581 297.933 291.821 297.832C292.066 297.731 292.335 297.68 292.629 297.68ZM292.517 301.2C292.885 301.2 293.186 301.077 293.421 300.832C293.661 300.587 293.781 300.264 293.781 299.864C293.781 299.464 293.661 299.141 293.421 298.896C293.186 298.651 292.885 298.528 292.517 298.528C292.277 298.528 292.061 298.584 291.869 298.696C291.677 298.803 291.525 298.957 291.413 299.16C291.301 299.363 291.245 299.597 291.245 299.864C291.245 300.131 291.301 300.365 291.413 300.568C291.525 300.771 291.677 300.928 291.869 301.04C292.061 301.147 292.277 301.2 292.517 301.2ZM295.945 297.728H296.945V302H295.945V297.728ZM296.449 297.024C296.268 297.024 296.116 296.968 295.993 296.856C295.87 296.739 295.809 296.595 295.809 296.424C295.809 296.253 295.87 296.112 295.993 296C296.116 295.883 296.268 295.824 296.449 295.824C296.63 295.824 296.782 295.88 296.905 295.992C297.028 296.099 297.089 296.235 297.089 296.4C297.089 296.576 297.028 296.725 296.905 296.848C296.788 296.965 296.636 297.024 296.449 297.024ZM300.882 297.68C301.42 297.68 301.852 297.837 302.178 298.152C302.503 298.467 302.666 298.933 302.666 299.552V302H301.666V299.68C301.666 299.307 301.578 299.027 301.402 298.84C301.226 298.648 300.975 298.552 300.65 298.552C300.282 298.552 299.991 298.664 299.778 298.888C299.564 299.107 299.458 299.424 299.458 299.84V302H298.458V297.728H299.41V298.28C299.575 298.083 299.783 297.933 300.034 297.832C300.284 297.731 300.567 297.68 300.882 297.68ZM308.413 297.728V301.352C308.413 302.856 307.645 303.608 306.109 303.608C305.699 303.608 305.309 303.555 304.941 303.448C304.573 303.347 304.269 303.197 304.029 303L304.477 302.248C304.664 302.403 304.899 302.525 305.181 302.616C305.469 302.712 305.76 302.76 306.053 302.76C306.523 302.76 306.867 302.653 307.085 302.44C307.304 302.227 307.413 301.901 307.413 301.464V301.24C307.243 301.427 307.035 301.568 306.789 301.664C306.544 301.76 306.275 301.808 305.981 301.808C305.576 301.808 305.208 301.723 304.877 301.552C304.552 301.376 304.293 301.131 304.101 300.816C303.915 300.501 303.821 300.141 303.821 299.736C303.821 299.331 303.915 298.973 304.101 298.664C304.293 298.349 304.552 298.107 304.877 297.936C305.208 297.765 305.576 297.68 305.981 297.68C306.291 297.68 306.571 297.731 306.821 297.832C307.077 297.933 307.291 298.088 307.461 298.296V297.728H308.413ZM306.133 300.96C306.512 300.96 306.821 300.848 307.061 300.624C307.307 300.395 307.429 300.099 307.429 299.736C307.429 299.379 307.307 299.088 307.061 298.864C306.821 298.64 306.512 298.528 306.133 298.528C305.749 298.528 305.435 298.64 305.189 298.864C304.949 299.088 304.829 299.379 304.829 299.736C304.829 300.099 304.949 300.395 305.189 300.624C305.435 300.848 305.749 300.96 306.133 300.96Z" fill="#3C3C3C"/>
<path d="M272.388 342.28H270.532V341.4H275.284V342.28H273.428V347H272.388V342.28ZM277.651 347.056C277.219 347.056 276.83 346.963 276.483 346.776C276.136 346.589 275.864 346.331 275.667 346C275.475 345.664 275.379 345.285 275.379 344.864C275.379 344.443 275.475 344.067 275.667 343.736C275.864 343.405 276.136 343.147 276.483 342.96C276.83 342.773 277.219 342.68 277.651 342.68C278.088 342.68 278.48 342.773 278.827 342.96C279.174 343.147 279.443 343.405 279.635 343.736C279.832 344.067 279.931 344.443 279.931 344.864C279.931 345.285 279.832 345.664 279.635 346C279.443 346.331 279.174 346.589 278.827 346.776C278.48 346.963 278.088 347.056 277.651 347.056ZM277.651 346.2C278.019 346.2 278.323 346.077 278.563 345.832C278.803 345.587 278.923 345.264 278.923 344.864C278.923 344.464 278.803 344.141 278.563 343.896C278.323 343.651 278.019 343.528 277.651 343.528C277.283 343.528 276.979 343.651 276.739 343.896C276.504 344.141 276.387 344.464 276.387 344.864C276.387 345.264 276.504 345.587 276.739 345.832C276.979 346.077 277.283 346.2 277.651 346.2ZM283.655 346.768C283.538 346.864 283.394 346.936 283.223 346.984C283.058 347.032 282.882 347.056 282.695 347.056C282.226 347.056 281.863 346.933 281.607 346.688C281.351 346.443 281.223 346.085 281.223 345.616V343.56H280.519V342.76H281.223V341.784H282.223V342.76H283.367V343.56H282.223V345.592C282.223 345.8 282.274 345.96 282.375 346.072C282.477 346.179 282.623 346.232 282.815 346.232C283.039 346.232 283.226 346.173 283.375 346.056L283.655 346.768ZM286.31 342.68C286.939 342.68 287.419 342.832 287.75 343.136C288.086 343.435 288.254 343.888 288.254 344.496V347H287.31V346.48C287.187 346.667 287.011 346.811 286.782 346.912C286.558 347.008 286.286 347.056 285.966 347.056C285.646 347.056 285.366 347.003 285.126 346.896C284.886 346.784 284.699 346.632 284.566 346.44C284.438 346.243 284.374 346.021 284.374 345.776C284.374 345.392 284.515 345.085 284.798 344.856C285.086 344.621 285.537 344.504 286.15 344.504H287.254V344.44C287.254 344.141 287.163 343.912 286.982 343.752C286.806 343.592 286.542 343.512 286.19 343.512C285.95 343.512 285.713 343.549 285.478 343.624C285.249 343.699 285.054 343.803 284.894 343.936L284.502 343.208C284.726 343.037 284.995 342.907 285.31 342.816C285.625 342.725 285.958 342.68 286.31 342.68ZM286.174 346.328C286.425 346.328 286.646 346.272 286.838 346.16C287.035 346.043 287.174 345.877 287.254 345.664V345.168H286.222C285.646 345.168 285.358 345.357 285.358 345.736C285.358 345.917 285.43 346.061 285.574 346.168C285.718 346.275 285.918 346.328 286.174 346.328ZM289.737 341.064H290.737V347H289.737V341.064ZM296.621 347.056C296.178 347.056 295.781 346.963 295.429 346.776C295.077 346.589 294.802 346.331 294.605 346C294.407 345.664 294.309 345.285 294.309 344.864C294.309 344.443 294.407 344.067 294.605 343.736C294.802 343.405 295.074 343.147 295.421 342.96C295.773 342.773 296.173 342.68 296.621 342.68C297.042 342.68 297.41 342.765 297.725 342.936C298.045 343.107 298.285 343.352 298.445 343.672L297.677 344.12C297.554 343.923 297.399 343.776 297.213 343.68C297.031 343.579 296.831 343.528 296.613 343.528C296.239 343.528 295.93 343.651 295.685 343.896C295.439 344.136 295.317 344.459 295.317 344.864C295.317 345.269 295.437 345.595 295.677 345.84C295.922 346.08 296.234 346.2 296.613 346.2C296.831 346.2 297.031 346.152 297.213 346.056C297.399 345.955 297.554 345.805 297.677 345.608L298.445 346.056C298.279 346.376 298.037 346.624 297.717 346.8C297.402 346.971 297.037 347.056 296.621 347.056ZM301.367 347.056C300.935 347.056 300.545 346.963 300.199 346.776C299.852 346.589 299.58 346.331 299.383 346C299.191 345.664 299.095 345.285 299.095 344.864C299.095 344.443 299.191 344.067 299.383 343.736C299.58 343.405 299.852 343.147 300.199 342.96C300.545 342.773 300.935 342.68 301.367 342.68C301.804 342.68 302.196 342.773 302.543 342.96C302.889 343.147 303.159 343.405 303.351 343.736C303.548 344.067 303.647 344.443 303.647 344.864C303.647 345.285 303.548 345.664 303.351 346C303.159 346.331 302.889 346.589 302.543 346.776C302.196 346.963 301.804 347.056 301.367 347.056ZM301.367 346.2C301.735 346.2 302.039 346.077 302.279 345.832C302.519 345.587 302.639 345.264 302.639 344.864C302.639 344.464 302.519 344.141 302.279 343.896C302.039 343.651 301.735 343.528 301.367 343.528C300.999 343.528 300.695 343.651 300.455 343.896C300.22 344.141 300.103 344.464 300.103 344.864C300.103 345.264 300.22 345.587 300.455 345.832C300.695 346.077 300.999 346.2 301.367 346.2ZM306.123 347.056C305.776 347.056 305.438 347.011 305.107 346.92C304.776 346.829 304.512 346.715 304.315 346.576L304.699 345.816C304.891 345.944 305.12 346.048 305.387 346.128C305.659 346.203 305.926 346.24 306.187 346.24C306.784 346.24 307.083 346.083 307.083 345.768C307.083 345.619 307.006 345.515 306.851 345.456C306.702 345.397 306.459 345.341 306.123 345.288C305.771 345.235 305.483 345.173 305.259 345.104C305.04 345.035 304.848 344.915 304.683 344.744C304.523 344.568 304.443 344.325 304.443 344.016C304.443 343.611 304.611 343.288 304.947 343.048C305.288 342.803 305.747 342.68 306.323 342.68C306.616 342.68 306.91 342.715 307.203 342.784C307.496 342.848 307.736 342.936 307.923 343.048L307.539 343.808C307.176 343.595 306.768 343.488 306.315 343.488C306.022 343.488 305.798 343.533 305.643 343.624C305.494 343.709 305.419 343.824 305.419 343.968C305.419 344.128 305.499 344.243 305.659 344.312C305.824 344.376 306.078 344.437 306.419 344.496C306.76 344.549 307.04 344.611 307.259 344.68C307.478 344.749 307.664 344.867 307.819 345.032C307.979 345.197 308.059 345.432 308.059 345.736C308.059 346.136 307.886 346.456 307.539 346.696C307.192 346.936 306.72 347.056 306.123 347.056ZM311.688 346.768C311.571 346.864 311.427 346.936 311.256 346.984C311.091 347.032 310.915 347.056 310.728 347.056C310.259 347.056 309.896 346.933 309.64 346.688C309.384 346.443 309.256 346.085 309.256 345.616V343.56H308.552V342.76H309.256V341.784H310.256V342.76H311.4V343.56H310.256V345.592C310.256 345.8 310.307 345.96 310.408 346.072C310.509 346.179 310.656 346.232 310.848 346.232C311.072 346.232 311.259 346.173 311.408 346.056L311.688 346.768Z" fill="#3C3C3C"/>
<path d="M340.45 193.1C339.483 193.1 338.73 192.83 338.19 192.29C337.65 191.743 337.38 190.963 337.38 189.95V186H338.68V189.9C338.68 191.273 339.273 191.96 340.46 191.96C341.64 191.96 342.23 191.273 342.23 189.9V186H343.51V189.95C343.51 190.963 343.24 191.743 342.7 192.29C342.167 192.83 341.417 193.1 340.45 193.1ZM347.061 193.07C346.627 193.07 346.204 193.013 345.791 192.9C345.377 192.787 345.047 192.643 344.801 192.47L345.281 191.52C345.521 191.68 345.807 191.81 346.141 191.91C346.481 192.003 346.814 192.05 347.141 192.05C347.887 192.05 348.261 191.853 348.261 191.46C348.261 191.273 348.164 191.143 347.971 191.07C347.784 190.997 347.481 190.927 347.061 190.86C346.621 190.793 346.261 190.717 345.981 190.63C345.707 190.543 345.467 190.393 345.261 190.18C345.061 189.96 344.961 189.657 344.961 189.27C344.961 188.763 345.171 188.36 345.591 188.06C346.017 187.753 346.591 187.6 347.311 187.6C347.677 187.6 348.044 187.643 348.411 187.73C348.777 187.81 349.077 187.92 349.311 188.06L348.831 189.01C348.377 188.743 347.867 188.61 347.301 188.61C346.934 188.61 346.654 188.667 346.461 188.78C346.274 188.887 346.181 189.03 346.181 189.21C346.181 189.41 346.281 189.553 346.481 189.64C346.687 189.72 347.004 189.797 347.431 189.87C347.857 189.937 348.207 190.013 348.481 190.1C348.754 190.187 348.987 190.333 349.181 190.54C349.381 190.747 349.481 191.04 349.481 191.42C349.481 191.92 349.264 192.32 348.831 192.62C348.397 192.92 347.807 193.07 347.061 193.07ZM355.777 190.36C355.777 190.447 355.77 190.57 355.757 190.73H351.567C351.64 191.123 351.83 191.437 352.137 191.67C352.45 191.897 352.837 192.01 353.297 192.01C353.884 192.01 354.367 191.817 354.747 191.43L355.417 192.2C355.177 192.487 354.874 192.703 354.507 192.85C354.14 192.997 353.727 193.07 353.267 193.07C352.68 193.07 352.164 192.953 351.717 192.72C351.27 192.487 350.924 192.163 350.677 191.75C350.437 191.33 350.317 190.857 350.317 190.33C350.317 189.81 350.434 189.343 350.667 188.93C350.907 188.51 351.237 188.183 351.657 187.95C352.077 187.717 352.55 187.6 353.077 187.6C353.597 187.6 354.06 187.717 354.467 187.95C354.88 188.177 355.2 188.5 355.427 188.92C355.66 189.333 355.777 189.813 355.777 190.36ZM353.077 188.6C352.677 188.6 352.337 188.72 352.057 188.96C351.784 189.193 351.617 189.507 351.557 189.9H354.587C354.534 189.513 354.37 189.2 354.097 188.96C353.824 188.72 353.484 188.6 353.077 188.6ZM362.408 185.58V193H361.208V192.31C361.001 192.563 360.744 192.753 360.438 192.88C360.138 193.007 359.804 193.07 359.438 193.07C358.924 193.07 358.461 192.957 358.048 192.73C357.641 192.503 357.321 192.183 357.088 191.77C356.854 191.35 356.738 190.87 356.738 190.33C356.738 189.79 356.854 189.313 357.088 188.9C357.321 188.487 357.641 188.167 358.048 187.94C358.461 187.713 358.924 187.6 359.438 187.6C359.791 187.6 360.114 187.66 360.408 187.78C360.701 187.9 360.951 188.08 361.158 188.32V185.58H362.408ZM359.588 192C359.888 192 360.158 191.933 360.398 191.8C360.638 191.66 360.828 191.463 360.968 191.21C361.108 190.957 361.178 190.663 361.178 190.33C361.178 189.997 361.108 189.703 360.968 189.45C360.828 189.197 360.638 189.003 360.398 188.87C360.158 188.73 359.888 188.66 359.588 188.66C359.288 188.66 359.018 188.73 358.778 188.87C358.538 189.003 358.348 189.197 358.208 189.45C358.068 189.703 357.998 189.997 357.998 190.33C357.998 190.663 358.068 190.957 358.208 191.21C358.348 191.463 358.538 191.66 358.778 191.8C359.018 191.933 359.288 192 359.588 192ZM370.167 187.6C370.687 187.6 371.15 187.713 371.557 187.94C371.97 188.167 372.293 188.487 372.527 188.9C372.76 189.313 372.877 189.79 372.877 190.33C372.877 190.87 372.76 191.35 372.527 191.77C372.293 192.183 371.97 192.503 371.557 192.73C371.15 192.957 370.687 193.07 370.167 193.07C369.8 193.07 369.463 193.007 369.157 192.88C368.857 192.753 368.603 192.563 368.397 192.31V193H367.207V185.58H368.457V188.31C368.67 188.077 368.92 187.9 369.207 187.78C369.5 187.66 369.82 187.6 370.167 187.6ZM370.027 192C370.487 192 370.863 191.847 371.157 191.54C371.457 191.233 371.607 190.83 371.607 190.33C371.607 189.83 371.457 189.427 371.157 189.12C370.863 188.813 370.487 188.66 370.027 188.66C369.727 188.66 369.457 188.73 369.217 188.87C368.977 189.003 368.787 189.197 368.647 189.45C368.507 189.703 368.437 189.997 368.437 190.33C368.437 190.663 368.507 190.957 368.647 191.21C368.787 191.463 368.977 191.66 369.217 191.8C369.457 191.933 369.727 192 370.027 192ZM374.262 187.66H375.512V193H374.262V187.66ZM374.892 186.78C374.666 186.78 374.476 186.71 374.322 186.57C374.169 186.423 374.092 186.243 374.092 186.03C374.092 185.817 374.169 185.64 374.322 185.5C374.476 185.353 374.666 185.28 374.892 185.28C375.119 185.28 375.309 185.35 375.462 185.49C375.616 185.623 375.692 185.793 375.692 186C375.692 186.22 375.616 186.407 375.462 186.56C375.316 186.707 375.126 186.78 374.892 186.78ZM379.533 190.71L378.603 191.59V193H377.353V185.58H378.603V190.06L381.193 187.66H382.693L380.463 189.9L382.903 193H381.383L379.533 190.71ZM388.706 190.36C388.706 190.447 388.699 190.57 388.686 190.73H384.496C384.569 191.123 384.759 191.437 385.066 191.67C385.379 191.897 385.766 192.01 386.226 192.01C386.812 192.01 387.296 191.817 387.676 191.43L388.346 192.2C388.106 192.487 387.802 192.703 387.436 192.85C387.069 192.997 386.656 193.07 386.196 193.07C385.609 193.07 385.092 192.953 384.646 192.72C384.199 192.487 383.852 192.163 383.606 191.75C383.366 191.33 383.246 190.857 383.246 190.33C383.246 189.81 383.362 189.343 383.596 188.93C383.836 188.51 384.166 188.183 384.586 187.95C385.006 187.717 385.479 187.6 386.006 187.6C386.526 187.6 386.989 187.717 387.396 187.95C387.809 188.177 388.129 188.5 388.356 188.92C388.589 189.333 388.706 189.813 388.706 190.36ZM386.006 188.6C385.606 188.6 385.266 188.72 384.986 188.96C384.712 189.193 384.546 189.507 384.486 189.9H387.516C387.462 189.513 387.299 189.2 387.026 188.96C386.752 188.72 386.412 188.6 386.006 188.6Z" fill="#3C3C3C"/>
<line x1="271.5" y1="111.5" x2="420.5" y2="111.5" stroke="#3C3C3C"/>
<line x1="270.5" y1="241.5" x2="419.5" y2="241.5" stroke="#EDEDED"/>
<line x1="269.5" y1="320.5" x2="418.5" y2="320.5" stroke="#EDEDED"/>
<rect x="270.5" y="131" width="55" height="42" fill="#FFF3E6"/>
<rect x="270.5" y="181" width="55" height="42" fill="#FCE6F1"/>
<rect x="337.5" y="201" width="34" height="5" fill="#EDEDED"/>
<rect x="378.5" y="261" width="41" height="6" fill="#EDEDED"/>
<rect x="376.5" y="340" width="43" height="8" fill="#EDEDED"/>
<rect x="393.5" y="279" width="26" height="6" fill="#EDEDED"/>
<rect x="385.5" y="295" width="34" height="6" fill="#EDEDED"/>
<rect x="336.5" y="151" width="34" height="5" fill="#EDEDED"/>
<rect x="337.5" y="212" width="24" height="5" fill="#EDEDED"/>
<rect x="336.5" y="162" width="24" height="5" fill="#EDEDED"/>
<rect x="271" y="365.5" width="149" height="24" rx="12" fill="#FFC382" stroke="#3C3C3C"/>
<path d="M323.556 374.4C324.041 374.4 324.463 374.48 324.82 374.64C325.183 374.8 325.46 375.029 325.652 375.328C325.844 375.627 325.94 375.981 325.94 376.392C325.94 376.797 325.844 377.152 325.652 377.456C325.46 377.755 325.183 377.984 324.82 378.144C324.463 378.304 324.041 378.384 323.556 378.384H322.292V380H321.252V374.4H323.556ZM323.508 377.504C323.961 377.504 324.305 377.408 324.54 377.216C324.775 377.024 324.892 376.749 324.892 376.392C324.892 376.035 324.775 375.76 324.54 375.568C324.305 375.376 323.961 375.28 323.508 375.28H322.292V377.504H323.508ZM327.161 374.064H328.161V380H327.161V374.064ZM331.305 375.68C331.935 375.68 332.415 375.832 332.745 376.136C333.081 376.435 333.249 376.888 333.249 377.496V380H332.305V379.48C332.183 379.667 332.007 379.811 331.777 379.912C331.553 380.008 331.281 380.056 330.961 380.056C330.641 380.056 330.361 380.003 330.121 379.896C329.881 379.784 329.695 379.632 329.561 379.44C329.433 379.243 329.369 379.021 329.369 378.776C329.369 378.392 329.511 378.085 329.793 377.856C330.081 377.621 330.532 377.504 331.145 377.504H332.249V377.44C332.249 377.141 332.159 376.912 331.977 376.752C331.801 376.592 331.537 376.512 331.185 376.512C330.945 376.512 330.708 376.549 330.473 376.624C330.244 376.699 330.049 376.803 329.889 376.936L329.497 376.208C329.721 376.037 329.991 375.907 330.305 375.816C330.62 375.725 330.953 375.68 331.305 375.68ZM331.169 379.328C331.42 379.328 331.641 379.272 331.833 379.16C332.031 379.043 332.169 378.877 332.249 378.664V378.168H331.217C330.641 378.168 330.353 378.357 330.353 378.736C330.353 378.917 330.425 379.061 330.569 379.168C330.713 379.275 330.913 379.328 331.169 379.328ZM336.732 380.056C336.289 380.056 335.892 379.963 335.54 379.776C335.188 379.589 334.913 379.331 334.716 379C334.518 378.664 334.42 378.285 334.42 377.864C334.42 377.443 334.518 377.067 334.716 376.736C334.913 376.405 335.185 376.147 335.532 375.96C335.884 375.773 336.284 375.68 336.732 375.68C337.153 375.68 337.521 375.765 337.836 375.936C338.156 376.107 338.396 376.352 338.556 376.672L337.788 377.12C337.665 376.923 337.51 376.776 337.324 376.68C337.142 376.579 336.942 376.528 336.724 376.528C336.35 376.528 336.041 376.651 335.796 376.896C335.55 377.136 335.428 377.459 335.428 377.864C335.428 378.269 335.548 378.595 335.788 378.84C336.033 379.08 336.345 379.2 336.724 379.2C336.942 379.2 337.142 379.152 337.324 379.056C337.51 378.955 337.665 378.805 337.788 378.608L338.556 379.056C338.39 379.376 338.148 379.624 337.828 379.8C337.513 379.971 337.148 380.056 336.732 380.056ZM343.574 377.888C343.574 377.957 343.568 378.056 343.558 378.184H340.206C340.264 378.499 340.416 378.749 340.662 378.936C340.912 379.117 341.222 379.208 341.59 379.208C342.059 379.208 342.446 379.053 342.75 378.744L343.286 379.36C343.094 379.589 342.851 379.763 342.558 379.88C342.264 379.997 341.934 380.056 341.566 380.056C341.096 380.056 340.683 379.963 340.326 379.776C339.968 379.589 339.691 379.331 339.494 379C339.302 378.664 339.206 378.285 339.206 377.864C339.206 377.448 339.299 377.075 339.486 376.744C339.678 376.408 339.942 376.147 340.278 375.96C340.614 375.773 340.992 375.68 341.414 375.68C341.83 375.68 342.2 375.773 342.526 375.96C342.856 376.141 343.112 376.4 343.294 376.736C343.48 377.067 343.574 377.451 343.574 377.888ZM341.414 376.48C341.094 376.48 340.822 376.576 340.598 376.768C340.379 376.955 340.246 377.205 340.198 377.52H342.622C342.579 377.211 342.448 376.96 342.23 376.768C342.011 376.576 341.739 376.48 341.414 376.48ZM349.065 380.056C348.633 380.056 348.244 379.963 347.897 379.776C347.55 379.589 347.278 379.331 347.081 379C346.889 378.664 346.793 378.285 346.793 377.864C346.793 377.443 346.889 377.067 347.081 376.736C347.278 376.405 347.55 376.147 347.897 375.96C348.244 375.773 348.633 375.68 349.065 375.68C349.502 375.68 349.894 375.773 350.241 375.96C350.588 376.147 350.857 376.405 351.049 376.736C351.246 377.067 351.345 377.443 351.345 377.864C351.345 378.285 351.246 378.664 351.049 379C350.857 379.331 350.588 379.589 350.241 379.776C349.894 379.963 349.502 380.056 349.065 380.056ZM349.065 379.2C349.433 379.2 349.737 379.077 349.977 378.832C350.217 378.587 350.337 378.264 350.337 377.864C350.337 377.464 350.217 377.141 349.977 376.896C349.737 376.651 349.433 376.528 349.065 376.528C348.697 376.528 348.393 376.651 348.153 376.896C347.918 377.141 347.801 377.464 347.801 377.864C347.801 378.264 347.918 378.587 348.153 378.832C348.393 379.077 348.697 379.2 349.065 379.2ZM353.453 376.352C353.741 375.904 354.248 375.68 354.973 375.68V376.632C354.888 376.616 354.811 376.608 354.741 376.608C354.352 376.608 354.048 376.723 353.829 376.952C353.611 377.176 353.501 377.501 353.501 377.928V380H352.501V375.728H353.453V376.352ZM360.167 374.064V380H359.207V379.448C359.041 379.651 358.836 379.803 358.591 379.904C358.351 380.005 358.084 380.056 357.791 380.056C357.38 380.056 357.009 379.965 356.679 379.784C356.353 379.603 356.097 379.347 355.911 379.016C355.724 378.68 355.631 378.296 355.631 377.864C355.631 377.432 355.724 377.051 355.911 376.72C356.097 376.389 356.353 376.133 356.679 375.952C357.009 375.771 357.38 375.68 357.791 375.68C358.073 375.68 358.332 375.728 358.567 375.824C358.801 375.92 359.001 376.064 359.167 376.256V374.064H360.167ZM357.911 379.2C358.151 379.2 358.367 379.147 358.559 379.04C358.751 378.928 358.903 378.771 359.015 378.568C359.127 378.365 359.183 378.131 359.183 377.864C359.183 377.597 359.127 377.363 359.015 377.16C358.903 376.957 358.751 376.803 358.559 376.696C358.367 376.584 358.151 376.528 357.911 376.528C357.671 376.528 357.455 376.584 357.263 376.696C357.071 376.803 356.919 376.957 356.807 377.16C356.695 377.363 356.639 377.597 356.639 377.864C356.639 378.131 356.695 378.365 356.807 378.568C356.919 378.771 357.071 378.928 357.263 379.04C357.455 379.147 357.671 379.2 357.911 379.2ZM365.691 377.888C365.691 377.957 365.685 378.056 365.675 378.184H362.323C362.381 378.499 362.533 378.749 362.779 378.936C363.029 379.117 363.339 379.208 363.707 379.208C364.176 379.208 364.563 379.053 364.867 378.744L365.403 379.36C365.211 379.589 364.968 379.763 364.675 379.88C364.381 379.997 364.051 380.056 363.683 380.056C363.213 380.056 362.8 379.963 362.443 379.776C362.085 379.589 361.808 379.331 361.611 379C361.419 378.664 361.323 378.285 361.323 377.864C361.323 377.448 361.416 377.075 361.603 376.744C361.795 376.408 362.059 376.147 362.395 375.96C362.731 375.773 363.109 375.68 363.531 375.68C363.947 375.68 364.317 375.773 364.643 375.96C364.973 376.141 365.229 376.4 365.411 376.736C365.597 377.067 365.691 377.451 365.691 377.888ZM363.531 376.48C363.211 376.48 362.939 376.576 362.715 376.768C362.496 376.955 362.363 377.205 362.315 377.52H364.739C364.696 377.211 364.565 376.96 364.347 376.768C364.128 376.576 363.856 376.48 363.531 376.48ZM367.803 376.352C368.091 375.904 368.598 375.68 369.323 375.68V376.632C369.238 376.616 369.161 376.608 369.091 376.608C368.702 376.608 368.398 376.723 368.179 376.952C367.961 377.176 367.851 377.501 367.851 377.928V380H366.851V375.728H367.803V376.352Z" fill="#3C3C3C"/>
<path d="M312.878 203.931C312.878 209.478 308.381 213.975 302.833 213.975C297.286 213.975 292.789 209.478 292.789 203.931C292.789 198.383 297.286 193.886 302.833 193.886C308.381 193.886 312.878 198.383 312.878 203.931Z" stroke="#3C3C3C" stroke-width="1.3" stroke-miterlimit="1.5" stroke-linecap="round" stroke-linejoin="round"/>
<path d="M287.6 210.25C287.6 212.307 285.932 213.975 283.875 213.975C281.818 213.975 280.15 212.307 280.15 210.25C280.15 208.193 281.818 206.525 283.875 206.525C285.932 206.525 287.6 208.193 287.6 210.25Z" stroke="#3C3C3C" stroke-width="1.3" stroke-miterlimit="1.5" stroke-linecap="round" stroke-linejoin="round"/>
<path d="M290.194 191.778L294.083 191.778" stroke="#3C3C3C" stroke-width="1.3" stroke-miterlimit="1.5" stroke-linecap="round" stroke-linejoin="round"/>
<path d="M292.139 191.778L293.597 193.722" stroke="#3C3C3C" stroke-width="1.3" stroke-miterlimit="1.5" stroke-linecap="round" stroke-linejoin="round"/>
<path d="M283.875 210.007C283.875 210.007 285.091 202.958 289.952 197.368C294.813 191.778 300.16 191.292 303.563 191.292" stroke="#3C3C3C" stroke-width="1.3" stroke-linecap="round"/>
<path d="M302.833 204.174V191.292H305.352C306.11 191.292 306.722 191.903 306.722 192.655" stroke="#3C3C3C" stroke-width="1.3" stroke-miterlimit="1.5" stroke-linecap="round" stroke-linejoin="round"/>
<path d="M302.834 202.958C303.37 202.958 303.806 203.393 303.806 203.929C303.806 204.466 303.37 204.901 302.834 204.901C302.297 204.901 301.861 204.466 301.861 203.929C301.861 203.393 302.297 202.958 302.834 202.958Z" fill="white" stroke="#3C3C3C" stroke-width="1.3" stroke-miterlimit="1.5" stroke-linecap="round" stroke-linejoin="round"/>
<path d="M283.875 209.278C284.412 209.278 284.847 209.713 284.847 210.249C284.847 210.785 284.412 211.22 283.875 211.22C283.338 211.22 282.903 210.785 282.903 210.249C282.903 209.713 283.338 209.278 283.875 209.278Z" fill="white" stroke="#3C3C3C" stroke-width="1.3" stroke-miterlimit="1.5" stroke-linecap="round" stroke-linejoin="round"/>
<path d="M298 154.801L292.653 146.158H303.347L298 154.801Z" stroke="#3C3C3C" stroke-width="1.3" stroke-miterlimit="1.5" stroke-linecap="round" stroke-linejoin="round"/>
<path d="M303.343 146.168L301.315 142.75H303.833C304.592 142.75 305.204 143.364 305.204 144.119" stroke="#3C3C3C" stroke-width="1.3" stroke-miterlimit="1.5" stroke-linecap="round" stroke-linejoin="round"/>
<path d="M298 153.927C298.537 153.927 298.972 154.362 298.972 154.898C298.972 155.434 298.537 155.869 298 155.869C297.463 155.869 297.028 155.434 297.028 154.898C297.028 154.362 297.463 153.927 298 153.927Z" fill="white" stroke="#3C3C3C" stroke-width="1.3" stroke-miterlimit="1.5" stroke-linecap="round" stroke-linejoin="round"/>
<path d="M314.85 154.898C314.85 158.293 312.095 161.046 308.694 161.046C305.294 161.046 302.539 158.293 302.539 154.898C302.539 151.504 305.294 148.75 308.694 148.75C312.095 148.75 314.85 151.504 314.85 154.898Z" stroke="#3C3C3C" stroke-width="1.3" stroke-miterlimit="1.5" stroke-linecap="round" stroke-linejoin="round"/>
<path d="M293.461 154.898C293.461 158.293 290.706 161.046 287.306 161.046C283.905 161.046 281.15 158.293 281.15 154.898C281.15 151.504 283.905 148.75 287.306 148.75C290.706 148.75 293.461 151.504 293.461 154.898Z" stroke="#3C3C3C" stroke-width="1.3" stroke-miterlimit="1.5" stroke-linecap="round" stroke-linejoin="round"/>
<path d="M292.653 146.158L298 154.801H287.306L292.653 146.158Z" stroke="#3C3C3C" stroke-width="1.3" stroke-miterlimit="1.5" stroke-linecap="round" stroke-linejoin="round"/>
<path d="M303.347 146.158L298 154.801H308.694L303.347 146.158Z" stroke="#3C3C3C" stroke-width="1.3" stroke-miterlimit="1.5" stroke-linecap="round" stroke-linejoin="round"/>
<path d="M292.653 146.153L291.194 143.722" stroke="#3C3C3C" stroke-width="1.3" stroke-miterlimit="1.5" stroke-linecap="round" stroke-linejoin="round"/>
<path d="M289.25 143.722L293.139 143.722" stroke="#3C3C3C" stroke-width="1.3" stroke-miterlimit="1.5" stroke-linecap="round" stroke-linejoin="round"/>
<path d="M298 153.927C298.537 153.927 298.972 154.362 298.972 154.898C298.972 155.434 298.537 155.869 298 155.869C297.463 155.869 297.028 155.434 297.028 154.898C297.028 154.362 297.463 153.927 298 153.927Z" fill="white" stroke="#3C3C3C" stroke-width="1.3" stroke-miterlimit="1.5" stroke-linecap="round" stroke-linejoin="round"/>
<circle cx="39" cy="179.5" r="5" stroke="#3C3C3C"/>
<circle cx="39" cy="208.5" r="5" stroke="#3C3C3C"/>
<circle cx="39" cy="238.5" r="5" stroke="#3C3C3C"/>
<circle cx="39" cy="179.5" r="2.5" fill="#FFC382"/>
</g>
<defs>
<clipPath id="clip0_663_2115">
<rect width="445" height="450" fill="white" transform="translate(0.5)"/>
</clipPath>
<clipPath id="clip1_663_2115">
<rect width="91.1422" height="20.5275" fill="white" transform="translate(138.445 378.051)"/>
</clipPath>
</defs>
</svg>
