<svg width="80" height="80" viewBox="0 0 80 80" fill="none" xmlns="http://www.w3.org/2000/svg">
<g clip-path="url(#clip0_233_183)">
<path d="M12.0787 29.2215H67.9216V67.9215H12.0787V29.2215Z" fill="#EDEDED" stroke="#3C3C3C" stroke-width="1.3" stroke-miterlimit="1.5" stroke-linecap="square"/>
<path d="M58.9863 53.5954C58.9863 57.4485 55.859 60.5732 51.9998 60.5732C48.1406 60.5732 45.0133 57.4485 45.0133 53.5954C45.0133 49.7423 48.1406 46.6175 51.9998 46.6175C55.859 46.6175 58.9863 49.7423 58.9863 53.5954Z" fill="white" stroke="#3C3C3C" stroke-width="1.3" stroke-miterlimit="1.5"/>
<path d="M34.9863 53.5954C34.9863 57.4485 31.859 60.5732 27.9998 60.5732C24.1406 60.5732 21.0133 57.4485 21.0133 53.5954C21.0133 49.7423 24.1406 46.6175 27.9998 46.6175C31.859 46.6175 34.9863 49.7423 34.9863 53.5954Z" fill="white" stroke="#3C3C3C" stroke-width="1.3" stroke-miterlimit="1.5"/>
<path d="M34.3649 43.6963L40.4213 53.4854H28.3086L34.3649 43.6963Z" stroke="#3C3C3C" stroke-width="1.3" stroke-miterlimit="1.5" stroke-linecap="round" stroke-linejoin="round"/>
<path d="M40.4216 53.4854L34.3652 43.6963H46.4779L40.4216 53.4854Z" stroke="#3C3C3C" stroke-width="1.3" stroke-miterlimit="1.5" stroke-linecap="round" stroke-linejoin="round"/>
<path d="M46.4782 43.6963L40.4219 53.4854H52.5345L46.4782 43.6963Z" stroke="#3C3C3C" stroke-width="1.3" stroke-miterlimit="1.5" stroke-linecap="round" stroke-linejoin="round"/>
<path d="M46.4741 43.7073L43.7256 39.2856H46.5776C47.4365 39.2856 48.1302 39.9808 48.1302 40.8365" stroke="#3C3C3C" stroke-width="1.3" stroke-miterlimit="1.5" stroke-linecap="round" stroke-linejoin="round"/>
<path d="M34.4752 43.9162L32.2949 40.3965" stroke="#3C3C3C" stroke-width="1.3" stroke-miterlimit="1.5" stroke-linecap="round" stroke-linejoin="round"/>
<path d="M30.2227 40.1035H34.3341" stroke="#3C3C3C" stroke-width="1.3" stroke-miterlimit="1.5" stroke-linecap="round" stroke-linejoin="round"/>
<path d="M40.4215 52.4954C41.0293 52.4954 41.5226 52.9881 41.5226 53.5953C41.5226 54.2024 41.0293 54.6952 40.4215 54.6952C39.8136 54.6952 39.3203 54.2024 39.3203 53.5953C39.3203 52.9881 39.8136 52.4954 40.4215 52.4954Z" fill="white" stroke="#3C3C3C" stroke-width="1.3" stroke-miterlimit="1.5" stroke-linecap="round" stroke-linejoin="round"/>
<path d="M73.7857 27.7856L62.7702 11.4285H17.1255L6.25 27.7142" stroke="#3C3C3C" stroke-width="1.3" stroke-miterlimit="1.5" stroke-linecap="square"/>
<mask id="path-12-inside-1_233_183" fill="white">
<path fill-rule="evenodd" clip-rule="evenodd" d="M17.7844 27.8779H5.71484C5.73521 31.1935 8.42927 33.875 11.7496 33.875C15.07 33.875 17.764 31.1935 17.7844 27.8779Z"/>
</mask>
<path fill-rule="evenodd" clip-rule="evenodd" d="M17.7844 27.8779H5.71484C5.73521 31.1935 8.42927 33.875 11.7496 33.875C15.07 33.875 17.764 31.1935 17.7844 27.8779Z" fill="#76B82A"/>
<path d="M17.7844 27.8779L19.0844 27.8859L19.0924 26.5779H17.7844V27.8779ZM5.71484 27.8779V26.5779H4.40683L4.41487 27.8859L5.71484 27.8779ZM17.7844 26.5779H5.71484V29.1779H17.7844V26.5779ZM11.7496 32.575C9.14456 32.575 7.0308 30.4711 7.01482 27.8699L4.41487 27.8859C4.43962 31.9159 7.71397 35.175 11.7496 35.175V32.575ZM16.4844 27.8699C16.4684 30.4711 14.3547 32.575 11.7496 32.575V35.175C15.7853 35.175 19.0596 31.9159 19.0844 27.8859L16.4844 27.8699Z" fill="#3C3C3C" mask="url(#path-12-inside-1_233_183)"/>
<mask id="path-14-inside-2_233_183" fill="white">
<path fill-rule="evenodd" clip-rule="evenodd" d="M40.3772 27.8779H28.3076C28.328 31.1935 31.022 33.875 34.3424 33.875C37.6627 33.875 40.3568 31.1935 40.3772 27.8779Z"/>
</mask>
<path fill-rule="evenodd" clip-rule="evenodd" d="M40.3772 27.8779H28.3076C28.328 31.1935 31.022 33.875 34.3424 33.875C37.6627 33.875 40.3568 31.1935 40.3772 27.8779Z" fill="#76B82A"/>
<path d="M40.3772 27.8779L41.6771 27.8859L41.6852 26.5779H40.3772V27.8779ZM28.3076 27.8779V26.5779H26.9996L27.0076 27.8859L28.3076 27.8779ZM40.3772 26.5779H28.3076V29.1779H40.3772V26.5779ZM34.3424 32.575C31.7373 32.575 29.6236 30.4711 29.6076 27.8699L27.0076 27.8859C27.0324 31.9159 30.3067 35.175 34.3424 35.175V32.575ZM39.0772 27.8699C39.0612 30.4711 36.9474 32.575 34.3424 32.575V35.175C38.378 35.175 41.6524 31.9159 41.6771 27.8859L39.0772 27.8699Z" fill="#3C3C3C" mask="url(#path-14-inside-2_233_183)"/>
<mask id="path-16-inside-3_233_183" fill="white">
<path fill-rule="evenodd" clip-rule="evenodd" d="M62.9709 27.8779H50.9014C50.9217 31.1935 53.6158 33.875 56.9361 33.875C60.2565 33.875 62.9505 31.1935 62.9709 27.8779Z"/>
</mask>
<path fill-rule="evenodd" clip-rule="evenodd" d="M62.9709 27.8779H50.9014C50.9217 31.1935 53.6158 33.875 56.9361 33.875C60.2565 33.875 62.9505 31.1935 62.9709 27.8779Z" fill="#76B82A"/>
<path d="M62.9709 27.8779L64.2709 27.8859L64.2789 26.5779H62.9709V27.8779ZM50.9014 27.8779V26.5779H49.5934L49.6014 27.8859L50.9014 27.8779ZM62.9709 26.5779H50.9014V29.1779H62.9709V26.5779ZM56.9361 32.575C54.3311 32.575 52.2173 30.4711 52.2013 27.8699L49.6014 27.8859C49.6261 31.9159 52.9005 35.175 56.9361 35.175V32.575ZM61.6709 27.8699C61.655 30.4711 59.5412 32.575 56.9361 32.575V35.175C60.9718 35.175 64.2461 31.9159 64.2709 27.8859L61.6709 27.8699Z" fill="#3C3C3C" mask="url(#path-16-inside-3_233_183)"/>
<mask id="path-18-inside-4_233_183" fill="white">
<path fill-rule="evenodd" clip-rule="evenodd" d="M29.0998 27.8779H17.0303C17.0506 31.1935 19.7447 33.875 23.065 33.875C26.3854 33.875 29.0794 31.1935 29.0998 27.8779Z"/>
</mask>
<path fill-rule="evenodd" clip-rule="evenodd" d="M29.0998 27.8779H17.0303C17.0506 31.1935 19.7447 33.875 23.065 33.875C26.3854 33.875 29.0794 31.1935 29.0998 27.8779Z" fill="#76B82A"/>
<path d="M29.0998 27.8779L30.3998 27.8859L30.4078 26.5779H29.0998V27.8779ZM17.0303 27.8779V26.5779H15.7223L15.7303 27.8859L17.0303 27.8779ZM29.0998 26.5779H17.0303V29.1779H29.0998V26.5779ZM23.065 32.575C20.46 32.575 18.3462 30.4711 18.3302 27.8699L15.7303 27.8859C15.7551 31.9159 19.0294 35.175 23.065 35.175V32.575ZM27.7998 27.8699C27.7839 30.4711 25.6701 32.575 23.065 32.575V35.175C27.1007 35.175 30.375 31.9159 30.3998 27.8859L27.7998 27.8699Z" fill="#3C3C3C" mask="url(#path-18-inside-4_233_183)"/>
<mask id="path-20-inside-5_233_183" fill="white">
<path fill-rule="evenodd" clip-rule="evenodd" d="M51.6926 27.8779H39.623C39.6434 31.1935 42.3375 33.875 45.6578 33.875C48.9782 33.875 51.6722 31.1935 51.6926 27.8779Z"/>
</mask>
<path fill-rule="evenodd" clip-rule="evenodd" d="M51.6926 27.8779H39.623C39.6434 31.1935 42.3375 33.875 45.6578 33.875C48.9782 33.875 51.6722 31.1935 51.6926 27.8779Z" fill="#76B82A"/>
<path d="M51.6926 27.8779L52.9926 27.8859L53.0006 26.5779H51.6926V27.8779ZM39.623 27.8779V26.5779H38.315L38.3231 27.8859L39.623 27.8779ZM51.6926 26.5779H39.623V29.1779H51.6926V26.5779ZM45.6578 32.575C43.0528 32.575 40.939 30.4711 40.923 27.8699L38.3231 27.8859C38.3478 31.9159 41.6222 35.175 45.6578 35.175V32.575ZM50.3926 27.8699C50.3766 30.4711 48.2629 32.575 45.6578 32.575V35.175C49.6935 35.175 52.9678 31.9159 52.9926 27.8859L50.3926 27.8699Z" fill="#3C3C3C" mask="url(#path-20-inside-5_233_183)"/>
<mask id="path-22-inside-6_233_183" fill="white">
<path fill-rule="evenodd" clip-rule="evenodd" d="M74.2863 27.8779H62.2168C62.2372 31.1935 64.9312 33.875 68.2516 33.875C71.5719 33.875 74.266 31.1935 74.2863 27.8779Z"/>
</mask>
<path fill-rule="evenodd" clip-rule="evenodd" d="M74.2863 27.8779H62.2168C62.2372 31.1935 64.9312 33.875 68.2516 33.875C71.5719 33.875 74.266 31.1935 74.2863 27.8779Z" fill="#76B82A"/>
<path d="M74.2863 27.8779L75.5863 27.8859L75.5943 26.5779H74.2863V27.8779ZM62.2168 27.8779V26.5779H60.9088L60.9168 27.8859L62.2168 27.8779ZM74.2863 26.5779H62.2168V29.1779H74.2863V26.5779ZM68.2516 32.575C65.6465 32.575 63.5328 30.4711 63.5168 27.8699L60.9168 27.8859C60.9416 31.9159 64.2159 35.175 68.2516 35.175V32.575ZM72.9864 27.8699C72.9704 30.4711 70.8566 32.575 68.2516 32.575V35.175C72.2872 35.175 75.5616 31.9159 75.5863 27.8859L72.9864 27.8699Z" fill="#3C3C3C" mask="url(#path-22-inside-6_233_183)"/>
<path d="M11.9547 69.1524H16.6309V73.6358H11.9547V69.1524Z" fill="#3C3C3C" stroke="#3C3C3C" stroke-width="1.3" stroke-miterlimit="1.5" stroke-linecap="round" stroke-linejoin="round"/>
<path d="M17.9312 62.65H22.4146V73.6357H17.9312V62.65Z" fill="#76B82A" stroke="#3C3C3C" stroke-width="1.3" stroke-miterlimit="1.5" stroke-linecap="square"/>
<path d="M6.36484 65.2967H10.8482V73.6357H6.36484V65.2967Z" fill="#FFC382" stroke="#3C3C3C" stroke-width="1.3" stroke-miterlimit="1.5" stroke-linecap="square"/>
<path d="M57.5193 8.72314C57.5193 10.2178 58.8417 11.4287 60.3985 11.4287C58.8417 11.4287 57.5193 12.6395 57.5193 14.1342C57.5193 12.6395 56.1281 11.4287 54.5713 11.4287H54.7012H54.5713C56.1307 11.4287 57.5193 10.2178 57.5193 8.72314Z" fill="white" stroke="#3C3C3C" stroke-width="1.3" stroke-miterlimit="1.5" stroke-linejoin="bevel"/>
<path d="M70.0761 5.71436V6.50582C70.0761 8.39466 71.6057 9.92425 73.4945 9.92425H74.286H73.4945C71.6057 9.92425 70.0761 11.4567 70.0761 13.3427V14.1341V13.3427C70.0761 11.4538 68.5465 9.92425 66.6577 9.92425H65.8662H66.6577C68.5465 9.92425 70.0761 8.39466 70.0761 6.50582V5.71436Z" stroke="#3C3C3C" stroke-width="1.3" stroke-miterlimit="1.5" stroke-linejoin="bevel"/>
</g>
<defs>
<clipPath id="clip0_233_183">
<rect width="80" height="80" fill="white"/>
</clipPath>
</defs>
</svg>
