<svg width="96" height="96" viewBox="0 0 96 96" fill="none" xmlns="http://www.w3.org/2000/svg">
<path d="M29.1939 87.35V68.65H47.8939V87.35H29.1939Z" fill="#3C3C3C" stroke="#3C3C3C" stroke-width="1.3" stroke-miterlimit="1.5" stroke-linecap="round" stroke-linejoin="round"/>
<path d="M49.1939 87.35V41.65H67.8939V87.35H49.1939Z" fill="#76B82A" stroke="#3C3C3C" stroke-width="1.3" stroke-miterlimit="1.5" stroke-linecap="square"/>
<path d="M9.19395 87.35V54.65H27.8939V87.35H9.19395Z" fill="#FFC281" stroke="#3C3C3C" stroke-width="1.3" stroke-miterlimit="1.5" stroke-linecap="square"/>
<mask id="path-4-inside-1_663_2083" fill="white">
<path fill-rule="evenodd" clip-rule="evenodd" d="M68 18.0001H78L77.9841 8.00001C77.9894 8 77.9947 8 78 8C83.5228 8 88 12.4772 88 18C88 23.5228 83.5228 28 78 28C72.4772 28 68.0001 23.5229 68 18.0001Z"/>
</mask>
<path fill-rule="evenodd" clip-rule="evenodd" d="M68 18.0001H78L77.9841 8.00001C77.9894 8 77.9947 8 78 8C83.5228 8 88 12.4772 88 18C88 23.5228 83.5228 28 78 28C72.4772 28 68.0001 23.5229 68 18.0001Z" fill="#FFC382"/>
<path d="M68 18.0001V17.0001H67L67 18.0002L68 18.0001ZM78 18.0001V19.0001H79.0016L79 17.9985L78 18.0001ZM77.9841 8.00001L77.9826 7.00001L76.9825 7.00157L76.9841 8.0016L77.9841 8.00001ZM68 19.0001H78V17.0001H68V19.0001ZM79 17.9985L78.9841 7.99842L76.9841 8.0016L77 18.0017L79 17.9985ZM78 7C77.9942 7 77.9884 7 77.9826 7.00001L77.9857 9.00001C77.9905 9 77.9952 9 78 9V7ZM89 18C89 11.9249 84.0751 7 78 7V9C82.9706 9 87 13.0294 87 18H89ZM78 29C84.0751 29 89 24.0751 89 18H87C87 22.9706 82.9706 27 78 27V29ZM67 18.0002C67.0001 24.0752 71.9249 29 78 29V27C73.0295 27 69.0001 22.9706 69 18.0001L67 18.0002Z" fill="#3C3C3C" mask="url(#path-4-inside-1_663_2083)"/>
<path d="M87.5 18C87.5 23.2467 83.2467 27.5 78 27.5C72.7533 27.5 68.5 23.2467 68.5 18C68.5 12.7533 72.7533 8.5 78 8.5C83.2467 8.5 87.5 12.7533 87.5 18Z" stroke="#3C3C3C" stroke-miterlimit="1.5" stroke-linecap="square"/>
<line x1="88" y1="80.65" x2="79" y2="80.65" stroke="#BBBBBB" stroke-width="1.3"/>
<line x1="88" y1="74.65" x2="77" y2="74.65" stroke="#BBBBBB" stroke-width="1.3"/>
<line x1="88" y1="67.65" x2="84" y2="67.65" stroke="#BBBBBB" stroke-width="1.3"/>
<line x1="88" y1="61.65" x2="78" y2="61.65" stroke="#BBBBBB" stroke-width="1.3"/>
<line x1="88" y1="54.65" x2="75" y2="54.65" stroke="#BBBBBB" stroke-width="1.3"/>
<line x1="88" y1="47.65" x2="81" y2="47.65" stroke="#BBBBBB" stroke-width="1.3"/>
<path d="M8 44C32.0194 44 51.1032 31.767 59 9" stroke="#3C3C3C" stroke-width="1.3" stroke-miterlimit="1.5"/>
<path d="M54.8762 9.78155L59.2451 8.31112L61.3665 12.4038" stroke="#3C3C3C" stroke-width="1.3" stroke-miterlimit="1.5"/>
</svg>
