<svg width="80" height="80" viewBox="0 0 80 80" fill="none" xmlns="http://www.w3.org/2000/svg">
<path d="M8.57129 7.92153H7.92129V8.57153V60.4763V61.1263H8.57129H60.4761H61.1261V60.4763V8.57153V7.92153H60.4761H8.57129Z" stroke="#3C3C3C" stroke-width="1.3" stroke-miterlimit="1.5"/>
<path d="M15.1717 61.1263H15.5978L15.7678 60.7355L21.2411 48.1501H47.657L53.137 60.7358L53.307 61.1263H53.7329H61.4277L62.0206 60.21L38.7076 8.30522L38.5353 7.92153H38.1147H30.8572H30.436L30.2639 8.30592L7.02491 60.2107L7.61816 61.1263H15.1717ZM24.3695 40.92L34.4489 17.7652L44.5284 40.92H24.3695Z" fill="#FFC382" stroke="#3C3C3C" stroke-width="1.3" stroke-miterlimit="1.5" stroke-linecap="square"/>
<path d="M9.82577 8.09531C9.82577 9.05129 9.0508 9.82626 8.09482 9.82626C7.13884 9.82626 6.36387 9.05129 6.36387 8.09531C6.36387 7.13933 7.13884 6.36436 8.09482 6.36436C9.0508 6.36436 9.82577 7.13933 9.82577 8.09531Z" fill="white" stroke="#3C3C3C" stroke-width="1.3" stroke-miterlimit="1.5" stroke-linecap="square"/>
<path d="M62.2066 8.09531C62.2066 9.05129 61.4317 9.82626 60.4757 9.82626C59.5197 9.82626 58.7447 9.05129 58.7447 8.09531C58.7447 7.13933 59.5197 6.36436 60.4757 6.36436C61.4317 6.36436 62.2066 7.13933 62.2066 8.09531Z" fill="white" stroke="#3C3C3C" stroke-width="1.3" stroke-miterlimit="1.5" stroke-linecap="square"/>
<path d="M62.2066 60.4762C62.2066 61.4321 61.4317 62.2071 60.4757 62.2071C59.5197 62.2071 58.7447 61.4321 58.7447 60.4762C58.7447 59.5202 59.5197 58.7452 60.4757 58.7452C61.4317 58.7452 62.2066 59.5202 62.2066 60.4762Z" fill="white" stroke="#3C3C3C" stroke-width="1.3" stroke-miterlimit="1.5" stroke-linecap="square"/>
<path d="M9.82577 60.4762C9.82577 61.4321 9.0508 62.2071 8.09482 62.2071C7.13884 62.2071 6.36387 61.4321 6.36387 60.4762C6.36387 59.5202 7.13884 58.7452 8.09482 58.7452C9.0508 58.7452 9.82577 59.5202 9.82577 60.4762Z" fill="white" stroke="#3C3C3C" stroke-width="1.3" stroke-miterlimit="1.5" stroke-linecap="square"/>
<path d="M31.9335 72.3621L30.3405 55.2646L44.3508 65.1929L39.5465 66.9928L42.7094 72.471L39.0572 74.5796L35.8944 69.1013L31.9335 72.3621Z" fill="white" stroke="#3C3C3C" stroke-width="1.3" stroke-miterlimit="1.5" stroke-linecap="round" stroke-linejoin="round"/>
<path d="M67.3649 60.4761V61.7711C67.3649 64.8616 69.8676 67.3644 72.9582 67.3644H74.2532H72.9582C69.8676 67.3644 67.3649 69.8717 67.3649 72.9577V74.2527V72.9577C67.3649 69.8671 64.8621 67.3644 61.7716 67.3644H60.4766H61.7716C64.8621 67.3644 67.3649 64.8616 67.3649 61.7711V60.4761Z" fill="#76B82A" stroke="#3C3C3C" stroke-width="1.3" stroke-miterlimit="1.5" stroke-linejoin="bevel"/>
<path d="M71.4284 51.4285V51.9656C71.4284 53.2475 72.4665 54.2856 73.7484 54.2856H74.2856H73.7484C72.4665 54.2856 71.4284 55.3256 71.4284 56.6056V57.1428V56.6056C71.4284 55.3237 70.3903 54.2856 69.1084 54.2856H68.5713H69.1084C70.3903 54.2856 71.4284 53.2475 71.4284 51.9656V51.4285Z" stroke="#3C3C3C" stroke-width="1.3" stroke-miterlimit="1.5" stroke-linejoin="bevel"/>
</svg>
