<svg width="96" height="96" viewBox="0 0 96 96" fill="none" xmlns="http://www.w3.org/2000/svg">
<path d="M73.1605 12V11.35H72.5105H11.2339H10.5839V12V72V72.65H11.2339H72.5105H73.1605V72V12Z" stroke="#3C3C3C" stroke-width="1.3" stroke-miterlimit="1.5"/>
<path d="M19.8356 72.65H20.2643L20.4331 72.256L26.6906 57.65H56.8854L63.1506 72.2562L63.3195 72.65H63.7479H72.5105L73.1049 71.737L46.5568 11.737L46.3856 11.35H45.9624H37.6977H37.274L37.103 11.7377L10.6392 71.7377L11.2339 72.65H19.8356ZM30.1663 49.495L41.7879 22.3942L53.4096 49.495H30.1663Z" fill="#FFC281" stroke="#3C3C3C" stroke-width="1.3" stroke-miterlimit="1.5" stroke-linecap="square"/>
<path d="M12.6266 11C12.6266 12.285 11.5588 13.35 10.2128 13.35C8.86667 13.35 7.79893 12.285 7.79893 11C7.79893 9.71496 8.86667 8.65 10.2128 8.65C11.5588 8.65 12.6266 9.71496 12.6266 11Z" fill="white" stroke="#3C3C3C" stroke-width="1.3" stroke-miterlimit="1.5" stroke-linecap="square"/>
<path d="M75.9459 11C75.9459 12.285 74.8782 13.35 73.5321 13.35C72.186 13.35 71.1183 12.285 71.1183 11C71.1183 9.71497 72.186 8.65 73.5321 8.65C74.8782 8.65 75.9459 9.71497 75.9459 11Z" fill="white" stroke="#3C3C3C" stroke-width="1.3" stroke-miterlimit="1.5" stroke-linecap="square"/>
<path d="M76.0205 73C76.0205 74.3277 74.9179 75.4246 73.5321 75.4246C72.1463 75.4246 71.0437 74.3277 71.0437 73C71.0437 71.6723 72.1463 70.5754 73.5321 70.5754C74.9179 70.5754 76.0205 71.6723 76.0205 73Z" fill="white" stroke="#3C3C3C" stroke-width="1.1508" stroke-miterlimit="1.5" stroke-linecap="square"/>
<path d="M12.6266 73C12.6266 74.285 11.5588 75.35 10.2128 75.35C8.86667 75.35 7.79893 74.285 7.79893 73C7.79893 71.715 8.86667 70.65 10.2128 70.65C11.5588 70.65 12.6266 71.715 12.6266 73Z" fill="white" stroke="#3C3C3C" stroke-width="1.3" stroke-miterlimit="1.5" stroke-linecap="square"/>
<path d="M37.8141 84.1548L35.8207 64.7742L51.9653 76.1548L46.4805 78.1469L50.1571 84.3823L45.995 86.7353L42.3184 80.4999L37.8141 84.1548Z" fill="white" stroke="#3C3C3C" stroke-width="1.3" stroke-miterlimit="1.5" stroke-linejoin="round"/>
<path d="M79.1488 73V74.41C79.1488 77.775 81.9318 80.5 85.3684 80.5H86.8084H85.3684C81.9318 80.5 79.1488 83.23 79.1488 86.59V88V86.59C79.1488 83.225 76.3659 80.5 72.9293 80.5H71.4893H72.9293C76.3659 80.5 79.1488 77.775 79.1488 74.41V73Z" fill="#76B82A" stroke="#3C3C3C" stroke-width="1.3" stroke-miterlimit="1.5" stroke-linejoin="bevel"/>
<path d="M84.7658 61V61.752C84.7658 63.5467 86.25 65 88.0829 65H88.8509H88.0829C86.25 65 84.7658 66.456 84.7658 68.248V69V68.248C84.7658 66.4533 83.2815 65 81.4487 65H80.6807H81.4487C83.2815 65 84.7658 63.5467 84.7658 61.752V61Z" fill="white" stroke="#3C3C3C" stroke-width="1.3" stroke-miterlimit="1.5" stroke-linejoin="bevel"/>
</svg>
