<svg width="446" height="450" viewBox="0 0 446 450" fill="none" xmlns="http://www.w3.org/2000/svg">
<g clip-path="url(#clip0_663_2195)">
<path d="M2.15 383.35V273.65H114.85V383.35H2.15Z" fill="#F7F7F7" stroke="#3C3C3C" stroke-width="1.3" stroke-miterlimit="1.5" stroke-linecap="square"/>
<path d="M23.65 287.304C23.65 289.791 21.642 291.804 19.17 291.804C16.6981 291.804 14.69 289.791 14.69 287.304C14.69 284.817 16.6981 282.805 19.17 282.805C21.642 282.805 23.65 284.817 23.65 287.304Z" fill="#76B82A" stroke="#3C3C3C" stroke-width="1.3"/>
<path d="M23.65 314.768C23.65 317.255 21.642 319.267 19.17 319.267C16.6981 319.267 14.69 317.255 14.69 314.768C14.69 312.281 16.6981 310.269 19.17 310.269C21.642 310.269 23.65 312.281 23.65 314.768Z" fill="#76B82A" stroke="#3C3C3C" stroke-width="1.3"/>
<path d="M23.65 342.232C23.65 344.719 21.642 346.731 19.17 346.731C16.6981 346.731 14.69 344.719 14.69 342.232C14.69 339.745 16.6981 337.733 19.17 337.733C21.642 337.733 23.65 339.745 23.65 342.232Z" fill="#76B82A" stroke="#3C3C3C" stroke-width="1.3"/>
<path d="M23.65 369.696C23.65 372.183 21.642 374.195 19.17 374.195C16.6981 374.195 14.69 372.183 14.69 369.696C14.69 367.209 16.6981 365.196 19.17 365.196C21.642 365.196 23.65 367.209 23.65 369.696Z" fill="#76B82A" stroke="#3C3C3C" stroke-width="1.3"/>
<line x1="2.64014" y1="299.814" x2="114.36" y2="299.814" stroke="#3C3C3C" stroke-width="1.3"/>
<line x1="2.63965" y1="328.656" x2="114.36" y2="328.656" stroke="#3C3C3C" stroke-width="1.3"/>
<line x1="2.5" y1="355.665" x2="114.22" y2="355.665" stroke="#3C3C3C" stroke-width="1.3"/>
<rect x="60.85" y="83.35" width="321.3" height="272.3" fill="white" stroke="#3C3C3C" stroke-width="1.3"/>
<rect x="82.149" y="129.65" width="122.405" height="104.545" fill="#F7F7F7" stroke="#3C3C3C" stroke-width="1.3"/>
<path d="M172.686 205C173.167 205 173.632 204.808 173.965 204.479C174.306 204.141 174.5 203.681 174.5 203.206C174.5 196.774 174.5 174.901 174.5 168.461C174.5 167.985 174.306 167.525 173.965 167.196C173.624 166.866 173.167 166.667 172.686 166.667C166.051 166.667 143.496 166.667 143.496 166.667C143.496 166.667 141.171 162.067 140.124 159.989C139.814 159.383 139.187 159 138.504 159C134.303 159 119.499 159 114.314 159C113.314 159 112.5 159.805 112.5 160.794C112.5 168.139 112.5 195.861 112.5 203.206C112.5 204.195 113.314 205 114.314 205C123.367 205 163.625 205 172.686 205Z" fill="#FFF3E6" stroke="#3C3C3C" stroke-width="1.3" stroke-miterlimit="1.5" stroke-linecap="square"/>
<path d="M127.994 180.352C136.644 188.601 150.348 188.601 158.998 180.352" stroke="#3C3C3C" stroke-width="1.3" stroke-miterlimit="1.5" stroke-linecap="square"/>
<rect x="82.15" y="257.65" width="122.7" height="76.7" rx="38.35" fill="#F7F7F7" stroke="#3C3C3C" stroke-width="1.3"/>
<path fill-rule="evenodd" clip-rule="evenodd" d="M144.8 278.65V278H143.5V278.65V295H127.15H126.5V296.3H127.15H143.5V312.65V313.3H144.8V312.65V296.3H160.15H160.8V295H160.15H144.8V278.65Z" fill="#3C3C3C"/>
<rect x="228.15" y="129.65" width="132.7" height="117.7" fill="#F7F7F7" stroke="#3C3C3C" stroke-width="1.3"/>
<path d="M254.15 247.35V220.65H277.85V247.35H254.15Z" fill="#3C3C3C" stroke="#3C3C3C" stroke-width="1.3" stroke-miterlimit="10" stroke-linecap="round" stroke-linejoin="round"/>
<path d="M279.15 247.35V178.65H307.85V247.35H279.15Z" fill="#76B82A" stroke="#3C3C3C" stroke-width="1.3" stroke-miterlimit="1.5" stroke-linecap="square"/>
<path d="M228.15 247.35V206.65H253.85V247.35H228.15Z" fill="#FFC382" stroke="#3C3C3C" stroke-width="1.3" stroke-miterlimit="1.5" stroke-linecap="square"/>
<rect x="228.15" y="270.65" width="132.7" height="63.7" fill="#DFCBE1" stroke="#3C3C3C" stroke-width="1.3"/>
<path d="M288.9 293.667L304.2 302.5L288.9 311.333L288.9 293.667Z" fill="#FDEFE7" stroke="#3C3C3C" stroke-width="1.3" stroke-miterlimit="1.5" stroke-linecap="square"/>
<circle cx="86.499" cy="106.052" r="4.65" fill="white" stroke="#3C3C3C" stroke-width="1.3"/>
<circle cx="104.501" cy="106.052" r="4.65" fill="white" stroke="#3C3C3C" stroke-width="1.3"/>
<path d="M28.3946 77.2627C28.3946 79.0873 29.1261 80.8333 30.4303 82.1246C31.7345 83.4159 33.498 84.1401 35.3409 84.1401C33.498 84.1401 31.7345 84.8644 30.4303 86.1556C29.1261 87.4469 28.3946 89.1929 28.3946 91.0175C28.3946 89.1929 27.6631 87.4469 26.3589 86.1556C25.0547 84.8644 23.2912 84.1401 21.4482 84.1401C23.2912 84.1401 25.0603 83.4159 26.3589 82.1246C27.6631 80.839 28.3946 79.0873 28.3946 77.2627Z" fill="white" stroke="#3C3C3C" stroke-width="1.3" stroke-miterlimit="1.5" stroke-linejoin="bevel"/>
<path d="M60.6007 37.749C60.6007 41.3983 62.0637 44.8903 64.6721 47.4728C67.2806 50.0554 70.8076 51.5038 74.4934 51.5038C70.8076 51.5038 67.2806 52.9523 64.6721 55.5349C62.0637 58.1174 60.6007 61.6094 60.6007 65.2587C60.6007 61.6094 59.1377 58.1174 56.5293 55.5349C53.9209 52.9523 50.3938 51.5038 46.708 51.5038C50.3938 51.5038 53.9322 50.0554 56.5293 47.4728C59.1377 44.9015 60.6007 41.3983 60.6007 37.749Z" fill="white" stroke="#3C3C3C" stroke-width="1.3" stroke-miterlimit="1.5" stroke-linejoin="bevel"/>
<rect x="307.15" y="53.65" width="137.7" height="193.7" fill="white" stroke="#3C3C3C" stroke-width="1.3"/>
<path d="M330.473 75.3549V83.7549H329.741L324.341 76.9389V83.7549H323.453V75.3549H324.185L329.597 82.1709V75.3549H330.473ZM338.731 80.8629H333.451C333.499 81.5189 333.751 82.0509 334.207 82.4589C334.663 82.8589 335.239 83.0589 335.935 83.0589C336.327 83.0589 336.687 82.9909 337.015 82.8549C337.343 82.7109 337.627 82.5029 337.867 82.2309L338.347 82.7829C338.067 83.1189 337.715 83.3749 337.291 83.5509C336.875 83.7269 336.415 83.8149 335.911 83.8149C335.263 83.8149 334.687 83.6789 334.183 83.4069C333.687 83.1269 333.299 82.7429 333.019 82.2549C332.739 81.7669 332.599 81.2149 332.599 80.5989C332.599 79.9829 332.731 79.4309 332.995 78.9429C333.267 78.4549 333.635 78.0749 334.099 77.8029C334.571 77.5309 335.099 77.3949 335.683 77.3949C336.267 77.3949 336.791 77.5309 337.255 77.8029C337.719 78.0749 338.083 78.4549 338.347 78.9429C338.611 79.4229 338.743 79.9749 338.743 80.5989L338.731 80.8629ZM335.683 78.1269C335.075 78.1269 334.563 78.3229 334.147 78.7149C333.739 79.0989 333.507 79.6029 333.451 80.2269H337.927C337.871 79.6029 337.635 79.0989 337.219 78.7149C336.811 78.3229 336.299 78.1269 335.683 78.1269ZM349.824 77.4429L347.436 83.7549H346.632L344.64 78.5829L342.648 83.7549H341.844L339.468 77.4429H340.284L342.264 82.8069L344.292 77.4429H345.024L347.04 82.8069L349.044 77.4429H349.824ZM366.359 75.3549L363.527 83.7549H362.591L360.131 76.5909L357.659 83.7549H356.735L353.903 75.3549H354.815L357.239 82.5789L359.747 75.3549H360.575L363.047 82.6149L365.507 75.3549H366.359ZM370.107 83.8149C369.499 83.8149 368.951 83.6789 368.463 83.4069C367.975 83.1269 367.591 82.7429 367.311 82.2549C367.031 81.7669 366.891 81.2149 366.891 80.5989C366.891 79.9829 367.031 79.4309 367.311 78.9429C367.591 78.4549 367.975 78.0749 368.463 77.8029C368.951 77.5309 369.499 77.3949 370.107 77.3949C370.715 77.3949 371.263 77.5309 371.751 77.8029C372.239 78.0749 372.619 78.4549 372.891 78.9429C373.171 79.4309 373.311 79.9829 373.311 80.5989C373.311 81.2149 373.171 81.7669 372.891 82.2549C372.619 82.7429 372.239 83.1269 371.751 83.4069C371.263 83.6789 370.715 83.8149 370.107 83.8149ZM370.107 83.0589C370.555 83.0589 370.955 82.9589 371.307 82.7589C371.667 82.5509 371.947 82.2589 372.147 81.8829C372.347 81.5069 372.447 81.0789 372.447 80.5989C372.447 80.1189 372.347 79.6909 372.147 79.3149C371.947 78.9389 371.667 78.6509 371.307 78.4509C370.955 78.2429 370.555 78.1389 370.107 78.1389C369.659 78.1389 369.255 78.2429 368.895 78.4509C368.543 78.6509 368.263 78.9389 368.055 79.3149C367.855 79.6909 367.755 80.1189 367.755 80.5989C367.755 81.0789 367.855 81.5069 368.055 81.8829C368.263 82.2589 368.543 82.5509 368.895 82.7589C369.255 82.9589 369.659 83.0589 370.107 83.0589ZM376.066 78.6789C376.266 78.2549 376.562 77.9349 376.954 77.7189C377.354 77.5029 377.846 77.3949 378.43 77.3949V78.2229L378.226 78.2109C377.562 78.2109 377.042 78.4149 376.666 78.8229C376.29 79.2309 376.102 79.8029 376.102 80.5389V83.7549H375.25V77.4429H376.066V78.6789ZM385.874 74.8509V83.7549H385.058V82.5069C384.802 82.9309 384.462 83.2549 384.038 83.4789C383.622 83.7029 383.15 83.8149 382.622 83.8149C382.03 83.8149 381.494 83.6789 381.014 83.4069C380.534 83.1349 380.158 82.7549 379.886 82.2669C379.614 81.7789 379.478 81.2229 379.478 80.5989C379.478 79.9749 379.614 79.4189 379.886 78.9309C380.158 78.4429 380.534 78.0669 381.014 77.8029C381.494 77.5309 382.03 77.3949 382.622 77.3949C383.134 77.3949 383.594 77.5029 384.002 77.7189C384.418 77.9269 384.758 78.2349 385.022 78.6429V74.8509H385.874ZM382.694 83.0589C383.134 83.0589 383.53 82.9589 383.882 82.7589C384.242 82.5509 384.522 82.2589 384.722 81.8829C384.93 81.5069 385.034 81.0789 385.034 80.5989C385.034 80.1189 384.93 79.6909 384.722 79.3149C384.522 78.9389 384.242 78.6509 383.882 78.4509C383.53 78.2429 383.134 78.1389 382.694 78.1389C382.246 78.1389 381.842 78.2429 381.482 78.4509C381.13 78.6509 380.85 78.9389 380.642 79.3149C380.442 79.6909 380.342 80.1189 380.342 80.5989C380.342 81.0789 380.442 81.5069 380.642 81.8829C380.85 82.2589 381.13 82.5509 381.482 82.7589C381.842 82.9589 382.246 83.0589 382.694 83.0589ZM391.771 75.3549C392.843 75.3549 393.683 75.6109 394.291 76.1229C394.899 76.6349 395.203 77.3389 395.203 78.2349C395.203 79.1309 394.899 79.8349 394.291 80.3469C393.683 80.8509 392.843 81.1029 391.771 81.1029H389.515V83.7549H388.627V75.3549H391.771ZM391.747 80.3229C392.579 80.3229 393.215 80.1429 393.655 79.7829C394.095 79.4149 394.315 78.8989 394.315 78.2349C394.315 77.5549 394.095 77.0349 393.655 76.6749C393.215 76.3069 392.579 76.1229 391.747 76.1229H389.515V80.3229H391.747ZM397.795 78.6789C397.995 78.2549 398.291 77.9349 398.683 77.7189C399.083 77.5029 399.575 77.3949 400.159 77.3949V78.2229L399.955 78.2109C399.291 78.2109 398.771 78.4149 398.395 78.8229C398.019 79.2309 397.831 79.8029 397.831 80.5389V83.7549H396.979V77.4429H397.795V78.6789ZM407.339 80.8629H402.059C402.107 81.5189 402.359 82.0509 402.815 82.4589C403.271 82.8589 403.847 83.0589 404.543 83.0589C404.935 83.0589 405.295 82.9909 405.623 82.8549C405.951 82.7109 406.235 82.5029 406.475 82.2309L406.955 82.7829C406.675 83.1189 406.323 83.3749 405.899 83.5509C405.483 83.7269 405.023 83.8149 404.519 83.8149C403.871 83.8149 403.295 83.6789 402.791 83.4069C402.295 83.1269 401.907 82.7429 401.627 82.2549C401.347 81.7669 401.207 81.2149 401.207 80.5989C401.207 79.9829 401.339 79.4309 401.603 78.9429C401.875 78.4549 402.243 78.0749 402.707 77.8029C403.179 77.5309 403.707 77.3949 404.291 77.3949C404.875 77.3949 405.399 77.5309 405.863 77.8029C406.327 78.0749 406.691 78.4549 406.955 78.9429C407.219 79.4229 407.351 79.9749 407.351 80.5989L407.339 80.8629ZM404.291 78.1269C403.683 78.1269 403.171 78.3229 402.755 78.7149C402.347 79.0989 402.115 79.6029 402.059 80.2269H406.535C406.479 79.6029 406.243 79.0989 405.827 78.7149C405.419 78.3229 404.907 78.1269 404.291 78.1269ZM410.977 83.8149C410.465 83.8149 409.973 83.7429 409.501 83.5989C409.037 83.4469 408.673 83.2589 408.409 83.0349L408.793 82.3629C409.057 82.5709 409.389 82.7429 409.789 82.8789C410.189 83.0069 410.605 83.0709 411.037 83.0709C411.613 83.0709 412.037 82.9829 412.309 82.8069C412.589 82.6229 412.729 82.3669 412.729 82.0389C412.729 81.8069 412.653 81.6269 412.501 81.4989C412.349 81.3629 412.157 81.2629 411.925 81.1989C411.693 81.1269 411.385 81.0589 411.001 80.9949C410.489 80.8989 410.077 80.8029 409.765 80.7069C409.453 80.6029 409.185 80.4309 408.961 80.1909C408.745 79.9509 408.637 79.6189 408.637 79.1949C408.637 78.6669 408.857 78.2349 409.297 77.8989C409.737 77.5629 410.349 77.3949 411.133 77.3949C411.541 77.3949 411.949 77.4509 412.357 77.5629C412.765 77.6669 413.101 77.8069 413.365 77.9829L412.993 78.6669C412.473 78.3069 411.853 78.1269 411.133 78.1269C410.589 78.1269 410.177 78.2229 409.897 78.4149C409.625 78.6069 409.489 78.8589 409.489 79.1709C409.489 79.4109 409.565 79.6029 409.717 79.7469C409.877 79.8909 410.073 79.9989 410.305 80.0709C410.537 80.1349 410.857 80.2029 411.265 80.2749C411.769 80.3709 412.173 80.4669 412.477 80.5629C412.781 80.6589 413.041 80.8229 413.257 81.0549C413.473 81.2869 413.581 81.6069 413.581 82.0149C413.581 82.5669 413.349 83.0069 412.885 83.3349C412.429 83.6549 411.793 83.8149 410.977 83.8149ZM417.049 83.8149C416.537 83.8149 416.045 83.7429 415.573 83.5989C415.109 83.4469 414.745 83.2589 414.481 83.0349L414.865 82.3629C415.129 82.5709 415.461 82.7429 415.861 82.8789C416.261 83.0069 416.677 83.0709 417.109 83.0709C417.685 83.0709 418.109 82.9829 418.381 82.8069C418.661 82.6229 418.801 82.3669 418.801 82.0389C418.801 81.8069 418.725 81.6269 418.573 81.4989C418.421 81.3629 418.229 81.2629 417.997 81.1989C417.765 81.1269 417.457 81.0589 417.073 80.9949C416.561 80.8989 416.149 80.8029 415.837 80.7069C415.525 80.6029 415.257 80.4309 415.033 80.1909C414.817 79.9509 414.709 79.6189 414.709 79.1949C414.709 78.6669 414.929 78.2349 415.369 77.8989C415.809 77.5629 416.421 77.3949 417.205 77.3949C417.613 77.3949 418.021 77.4509 418.429 77.5629C418.837 77.6669 419.173 77.8069 419.437 77.9829L419.065 78.6669C418.545 78.3069 417.925 78.1269 417.205 78.1269C416.661 78.1269 416.249 78.2229 415.969 78.4149C415.697 78.6069 415.561 78.8589 415.561 79.1709C415.561 79.4109 415.637 79.6029 415.789 79.7469C415.949 79.8909 416.145 79.9989 416.377 80.0709C416.609 80.1349 416.929 80.2029 417.337 80.2749C417.841 80.3709 418.245 80.4669 418.549 80.5629C418.853 80.6589 419.113 80.8229 419.329 81.0549C419.545 81.2869 419.653 81.6069 419.653 82.0149C419.653 82.5669 419.421 83.0069 418.957 83.3349C418.501 83.6549 417.865 83.8149 417.049 83.8149ZM323.273 92.4429H324.125V98.7549H323.273V92.4429ZM323.705 91.0629C323.529 91.0629 323.381 91.0029 323.261 90.8829C323.141 90.7629 323.081 90.6189 323.081 90.4509C323.081 90.2909 323.141 90.1509 323.261 90.0309C323.381 89.9109 323.529 89.8509 323.705 89.8509C323.881 89.8509 324.029 89.9109 324.149 90.0309C324.269 90.1429 324.329 90.2789 324.329 90.4389C324.329 90.6149 324.269 90.7629 324.149 90.8829C324.029 91.0029 323.881 91.0629 323.705 91.0629ZM329.912 92.3949C330.704 92.3949 331.332 92.6269 331.796 93.0909C332.268 93.5469 332.504 94.2149 332.504 95.0949V98.7549H331.652V95.1789C331.652 94.5229 331.488 94.0229 331.16 93.6789C330.832 93.3349 330.364 93.1629 329.756 93.1629C329.076 93.1629 328.536 93.3669 328.136 93.7749C327.744 94.1749 327.548 94.7309 327.548 95.4429V98.7549H326.696V92.4429H327.512V93.6069C327.744 93.2229 328.064 92.9269 328.472 92.7189C328.888 92.5029 329.368 92.3949 329.912 92.3949ZM336.709 98.8149C336.197 98.8149 335.705 98.7429 335.233 98.5989C334.769 98.4469 334.405 98.2589 334.141 98.0349L334.525 97.3629C334.789 97.5709 335.121 97.7429 335.521 97.8789C335.921 98.0069 336.337 98.0709 336.769 98.0709C337.345 98.0709 337.769 97.9829 338.041 97.8069C338.321 97.6229 338.461 97.3669 338.461 97.0389C338.461 96.8069 338.385 96.6269 338.233 96.4989C338.081 96.3629 337.889 96.2629 337.657 96.1989C337.425 96.1269 337.117 96.0589 336.733 95.9949C336.221 95.8989 335.809 95.8029 335.497 95.7069C335.185 95.6029 334.917 95.4309 334.693 95.1909C334.477 94.9509 334.369 94.6189 334.369 94.1949C334.369 93.6669 334.589 93.2349 335.029 92.8989C335.469 92.5629 336.081 92.3949 336.865 92.3949C337.273 92.3949 337.681 92.4509 338.089 92.5629C338.497 92.6669 338.833 92.8069 339.097 92.9829L338.725 93.6669C338.205 93.3069 337.585 93.1269 336.865 93.1269C336.321 93.1269 335.909 93.2229 335.629 93.4149C335.357 93.6069 335.221 93.8589 335.221 94.1709C335.221 94.4109 335.297 94.6029 335.449 94.7469C335.609 94.8909 335.805 94.9989 336.037 95.0709C336.269 95.1349 336.589 95.2029 336.997 95.2749C337.501 95.3709 337.905 95.4669 338.209 95.5629C338.513 95.6589 338.773 95.8229 338.989 96.0549C339.205 96.2869 339.313 96.6069 339.313 97.0149C339.313 97.5669 339.081 98.0069 338.617 98.3349C338.161 98.6549 337.525 98.8149 336.709 98.8149ZM344.412 98.3709C344.252 98.5149 344.052 98.6269 343.812 98.7069C343.58 98.7789 343.336 98.8149 343.08 98.8149C342.488 98.8149 342.032 98.6549 341.712 98.3349C341.392 98.0149 341.232 97.5629 341.232 96.9789V93.1629H340.104V92.4429H341.232V91.0629H342.084V92.4429H344.004V93.1629H342.084V96.9309C342.084 97.3069 342.176 97.5949 342.36 97.7949C342.552 97.9869 342.824 98.0829 343.176 98.0829C343.352 98.0829 343.52 98.0549 343.68 97.9989C343.848 97.9429 343.992 97.8629 344.112 97.7589L344.412 98.3709ZM348.371 92.3949C349.195 92.3949 349.827 92.6029 350.267 93.0189C350.707 93.4269 350.927 94.0349 350.927 94.8429V98.7549H350.111V97.7709C349.919 98.0989 349.635 98.3549 349.259 98.5389C348.891 98.7229 348.451 98.8149 347.939 98.8149C347.235 98.8149 346.675 98.6469 346.259 98.3109C345.843 97.9749 345.635 97.5309 345.635 96.9789C345.635 96.4429 345.827 96.0109 346.211 95.6829C346.603 95.3549 347.223 95.1909 348.071 95.1909H350.075V94.8069C350.075 94.2629 349.923 93.8509 349.619 93.5709C349.315 93.2829 348.871 93.1389 348.287 93.1389C347.887 93.1389 347.503 93.2069 347.135 93.3429C346.767 93.4709 346.451 93.6509 346.187 93.8829L345.803 93.2469C346.123 92.9749 346.507 92.7669 346.955 92.6229C347.403 92.4709 347.875 92.3949 348.371 92.3949ZM348.071 98.1429C348.551 98.1429 348.963 98.0349 349.307 97.8189C349.651 97.5949 349.907 97.2749 350.075 96.8589V95.8269H348.095C347.015 95.8269 346.475 96.2029 346.475 96.9549C346.475 97.3229 346.615 97.6149 346.895 97.8309C347.175 98.0389 347.567 98.1429 348.071 98.1429ZM353.441 89.8509H354.293V98.7549H353.441V89.8509ZM356.864 89.8509H357.716V98.7549H356.864V89.8509ZM362.494 92.3949C363.318 92.3949 363.95 92.6029 364.39 93.0189C364.83 93.4269 365.05 94.0349 365.05 94.8429V98.7549H364.234V97.7709C364.042 98.0989 363.758 98.3549 363.382 98.5389C363.014 98.7229 362.574 98.8149 362.062 98.8149C361.358 98.8149 360.798 98.6469 360.382 98.3109C359.966 97.9749 359.758 97.5309 359.758 96.9789C359.758 96.4429 359.95 96.0109 360.334 95.6829C360.726 95.3549 361.346 95.1909 362.194 95.1909H364.198V94.8069C364.198 94.2629 364.046 93.8509 363.742 93.5709C363.438 93.2829 362.994 93.1389 362.41 93.1389C362.01 93.1389 361.626 93.2069 361.258 93.3429C360.89 93.4709 360.574 93.6509 360.31 93.8829L359.926 93.2469C360.246 92.9749 360.63 92.7669 361.078 92.6229C361.526 92.4709 361.998 92.3949 362.494 92.3949ZM362.194 98.1429C362.674 98.1429 363.086 98.0349 363.43 97.8189C363.774 97.5949 364.03 97.2749 364.198 96.8589V95.8269H362.218C361.138 95.8269 360.598 96.2029 360.598 96.9549C360.598 97.3229 360.738 97.6149 361.018 97.8309C361.298 98.0389 361.69 98.1429 362.194 98.1429ZM370.888 98.3709C370.728 98.5149 370.528 98.6269 370.288 98.7069C370.056 98.7789 369.812 98.8149 369.556 98.8149C368.964 98.8149 368.508 98.6549 368.188 98.3349C367.868 98.0149 367.708 97.5629 367.708 96.9789V93.1629H366.58V92.4429H367.708V91.0629H368.56V92.4429H370.48V93.1629H368.56V96.9309C368.56 97.3069 368.652 97.5949 368.836 97.7949C369.028 97.9869 369.3 98.0829 369.652 98.0829C369.828 98.0829 369.996 98.0549 370.156 97.9989C370.324 97.9429 370.468 97.8629 370.588 97.7589L370.888 98.3709ZM372.639 92.4429H373.491V98.7549H372.639V92.4429ZM373.071 91.0629C372.895 91.0629 372.747 91.0029 372.627 90.8829C372.507 90.7629 372.447 90.6189 372.447 90.4509C372.447 90.2909 372.507 90.1509 372.627 90.0309C372.747 89.9109 372.895 89.8509 373.071 89.8509C373.247 89.8509 373.395 89.9109 373.515 90.0309C373.635 90.1429 373.695 90.2789 373.695 90.4389C373.695 90.6149 373.635 90.7629 373.515 90.8829C373.395 91.0029 373.247 91.0629 373.071 91.0629ZM378.642 98.8149C378.034 98.8149 377.486 98.6789 376.998 98.4069C376.51 98.1269 376.126 97.7429 375.846 97.2549C375.566 96.7669 375.426 96.2149 375.426 95.5989C375.426 94.9829 375.566 94.4309 375.846 93.9429C376.126 93.4549 376.51 93.0749 376.998 92.8029C377.486 92.5309 378.034 92.3949 378.642 92.3949C379.25 92.3949 379.798 92.5309 380.286 92.8029C380.774 93.0749 381.154 93.4549 381.426 93.9429C381.706 94.4309 381.846 94.9829 381.846 95.5989C381.846 96.2149 381.706 96.7669 381.426 97.2549C381.154 97.7429 380.774 98.1269 380.286 98.4069C379.798 98.6789 379.25 98.8149 378.642 98.8149ZM378.642 98.0589C379.09 98.0589 379.49 97.9589 379.842 97.7589C380.202 97.5509 380.482 97.2589 380.682 96.8829C380.882 96.5069 380.982 96.0789 380.982 95.5989C380.982 95.1189 380.882 94.6909 380.682 94.3149C380.482 93.9389 380.202 93.6509 379.842 93.4509C379.49 93.2429 379.09 93.1389 378.642 93.1389C378.194 93.1389 377.79 93.2429 377.43 93.4509C377.078 93.6509 376.798 93.9389 376.59 94.3149C376.39 94.6909 376.29 95.1189 376.29 95.5989C376.29 96.0789 376.39 96.5069 376.59 96.8829C376.798 97.2589 377.078 97.5509 377.43 97.7589C377.79 97.9589 378.194 98.0589 378.642 98.0589ZM387.001 92.3949C387.793 92.3949 388.421 92.6269 388.885 93.0909C389.357 93.5469 389.593 94.2149 389.593 95.0949V98.7549H388.741V95.1789C388.741 94.5229 388.577 94.0229 388.249 93.6789C387.921 93.3349 387.453 93.1629 386.845 93.1629C386.165 93.1629 385.625 93.3669 385.225 93.7749C384.833 94.1749 384.637 94.7309 384.637 95.4429V98.7549H383.785V92.4429H384.601V93.6069C384.833 93.2229 385.153 92.9269 385.561 92.7189C385.977 92.5029 386.457 92.3949 387.001 92.3949Z" fill="black"/>
<rect x="322.5" y="114" width="103" height="15" fill="#F7F7F7"/>
<rect x="322.5" y="142" width="75" height="15" fill="#F7F7F7"/>
<rect x="322.5" y="170" width="84" height="15" fill="#F7F7F7"/>
<rect x="322.5" y="201.115" width="109" height="25.0052" rx="12.5026" fill="#EDEDED"/>
<path d="M355.491 210.717V215.617H354.581V211.48H353.545V210.717H355.491ZM356.74 213.307H358.665V214.035H356.74V213.307ZM361.606 215.666C361.219 215.666 360.871 215.584 360.563 215.421C360.255 215.258 360.015 215.031 359.842 214.742C359.669 214.448 359.583 214.117 359.583 213.748C359.583 213.379 359.669 213.05 359.842 212.761C360.015 212.472 360.253 212.245 360.556 212.082C360.864 211.919 361.214 211.837 361.606 211.837C361.975 211.837 362.297 211.912 362.572 212.061C362.852 212.21 363.062 212.425 363.202 212.705L362.53 213.097C362.423 212.924 362.287 212.796 362.124 212.712C361.965 212.623 361.79 212.579 361.599 212.579C361.272 212.579 361.002 212.686 360.787 212.901C360.572 213.111 360.465 213.393 360.465 213.748C360.465 214.103 360.57 214.387 360.78 214.602C360.995 214.812 361.268 214.917 361.599 214.917C361.79 214.917 361.965 214.875 362.124 214.791C362.287 214.702 362.423 214.572 362.53 214.399L363.202 214.791C363.057 215.071 362.845 215.288 362.565 215.442C362.29 215.591 361.97 215.666 361.606 215.666ZM364.124 210.423H364.999V215.617H364.124V210.423ZM366.348 211.879H367.223V215.617H366.348V211.879ZM366.789 211.263C366.63 211.263 366.497 211.214 366.39 211.116C366.282 211.013 366.229 210.887 366.229 210.738C366.229 210.589 366.282 210.465 366.39 210.367C366.497 210.264 366.63 210.213 366.789 210.213C366.947 210.213 367.08 210.262 367.188 210.36C367.295 210.453 367.349 210.572 367.349 210.717C367.349 210.871 367.295 211.002 367.188 211.109C367.085 211.212 366.952 211.263 366.789 211.263ZM370.286 215.666C369.899 215.666 369.551 215.584 369.243 215.421C368.935 215.258 368.695 215.031 368.522 214.742C368.349 214.448 368.263 214.117 368.263 213.748C368.263 213.379 368.349 213.05 368.522 212.761C368.695 212.472 368.933 212.245 369.236 212.082C369.544 211.919 369.894 211.837 370.286 211.837C370.655 211.837 370.977 211.912 371.252 212.061C371.532 212.21 371.742 212.425 371.882 212.705L371.21 213.097C371.103 212.924 370.967 212.796 370.804 212.712C370.645 212.623 370.47 212.579 370.279 212.579C369.952 212.579 369.682 212.686 369.467 212.901C369.252 213.111 369.145 213.393 369.145 213.748C369.145 214.103 369.25 214.387 369.46 214.602C369.675 214.812 369.948 214.917 370.279 214.917C370.47 214.917 370.645 214.875 370.804 214.791C370.967 214.702 371.103 214.572 371.21 214.399L371.882 214.791C371.737 215.071 371.525 215.288 371.245 215.442C370.97 215.591 370.65 215.666 370.286 215.666ZM374.33 214.014L373.679 214.63V215.617H372.804V210.423H373.679V213.559L375.492 211.879H376.542L374.981 213.447L376.689 215.617H375.625L374.33 214.014ZM379.673 210.717H380.583V215.617H379.673V210.717ZM384.145 211.837C384.617 211.837 384.995 211.975 385.279 212.25C385.564 212.525 385.706 212.934 385.706 213.475V215.617H384.831V213.587C384.831 213.26 384.754 213.015 384.6 212.852C384.446 212.684 384.227 212.6 383.942 212.6C383.62 212.6 383.366 212.698 383.179 212.894C382.993 213.085 382.899 213.363 382.899 213.727V215.617H382.024V211.879H382.857V212.362C383.002 212.189 383.184 212.059 383.403 211.97C383.623 211.881 383.87 211.837 384.145 211.837ZM388.171 215.666C387.868 215.666 387.572 215.626 387.282 215.547C386.993 215.468 386.762 215.367 386.589 215.246L386.925 214.581C387.093 214.693 387.294 214.784 387.527 214.854C387.765 214.919 387.999 214.952 388.227 214.952C388.75 214.952 389.011 214.814 389.011 214.539C389.011 214.408 388.944 214.317 388.808 214.266C388.678 214.215 388.465 214.166 388.171 214.119C387.863 214.072 387.611 214.019 387.415 213.958C387.224 213.897 387.056 213.792 386.911 213.643C386.771 213.489 386.701 213.277 386.701 213.006C386.701 212.651 386.848 212.369 387.142 212.159C387.441 211.944 387.842 211.837 388.346 211.837C388.603 211.837 388.86 211.867 389.116 211.928C389.373 211.984 389.583 212.061 389.746 212.159L389.41 212.824C389.093 212.637 388.736 212.544 388.339 212.544C388.083 212.544 387.887 212.584 387.751 212.663C387.621 212.738 387.555 212.838 387.555 212.964C387.555 213.104 387.625 213.204 387.765 213.265C387.91 213.321 388.132 213.375 388.43 213.426C388.729 213.473 388.974 213.526 389.165 213.587C389.357 213.648 389.52 213.75 389.655 213.895C389.795 214.04 389.865 214.245 389.865 214.511C389.865 214.861 389.714 215.141 389.41 215.351C389.107 215.561 388.694 215.666 388.171 215.666ZM393.066 215.414C392.963 215.498 392.837 215.561 392.688 215.603C392.543 215.645 392.389 215.666 392.226 215.666C391.815 215.666 391.498 215.559 391.274 215.344C391.05 215.129 390.938 214.817 390.938 214.406V212.607H390.322V211.907H390.938V211.053H391.813V211.907H392.814V212.607H391.813V214.385C391.813 214.567 391.857 214.707 391.946 214.805C392.034 214.898 392.163 214.945 392.331 214.945C392.527 214.945 392.69 214.894 392.821 214.791L393.066 215.414ZM395.414 211.837C395.964 211.837 396.384 211.97 396.674 212.236C396.968 212.497 397.115 212.894 397.115 213.426V215.617H396.289V215.162C396.181 215.325 396.027 215.451 395.827 215.54C395.631 215.624 395.393 215.666 395.113 215.666C394.833 215.666 394.588 215.619 394.378 215.526C394.168 215.428 394.004 215.295 393.888 215.127C393.776 214.954 393.72 214.761 393.72 214.546C393.72 214.21 393.843 213.942 394.091 213.741C394.343 213.536 394.737 213.433 395.274 213.433H396.24V213.377C396.24 213.116 396.16 212.915 396.002 212.775C395.848 212.635 395.617 212.565 395.309 212.565C395.099 212.565 394.891 212.598 394.686 212.663C394.485 212.728 394.315 212.819 394.175 212.936L393.832 212.299C394.028 212.15 394.263 212.035 394.539 211.956C394.814 211.877 395.106 211.837 395.414 211.837ZM395.295 215.029C395.514 215.029 395.708 214.98 395.876 214.882C396.048 214.779 396.17 214.635 396.24 214.448V214.014H395.337C394.833 214.014 394.581 214.18 394.581 214.511C394.581 214.67 394.644 214.796 394.77 214.889C394.896 214.982 395.071 215.029 395.295 215.029ZM398.438 210.423H399.313V215.617H398.438V210.423ZM400.661 210.423H401.536V215.617H400.661V210.423Z" fill="#3C3C3C"/>
</g>
<defs>
<clipPath id="clip0_663_2195">
<rect width="445" height="450" fill="white" transform="translate(0.5)"/>
</clipPath>
</defs>
</svg>
